<mxfile host="app.diagrams.net" modified="2024-04-21T10:22:46.003Z" agent="Mozilla/5.0 (Windows NT 10.0; Win64; x64) AppleWebKit/537.36 (KHTML, like Gecko) Chrome/123.0.0.0 Safari/537.36" etag="GyHGtCGhaJBoEabP1q1o" version="24.2.7" type="google">
  <diagram id="C5RBs43oDa-KdzZeNtuy" name="Page-1">
    <mxGraphModel grid="1" page="1" gridSize="10" guides="1" tooltips="1" connect="1" arrows="1" fold="1" pageScale="1" pageWidth="827" pageHeight="1169" math="0" shadow="0">
      <root>
        <mxCell id="WIyWlLk6GJQsqaUBKTNV-0" />
        <mxCell id="WIyWlLk6GJQsqaUBKTNV-1" parent="WIyWlLk6GJQsqaUBKTNV-0" />
        <mxCell id="zkfFHV4jXpPFQw0GAbJ--0" value="&lt;&lt;Abstract&gt;&gt;&#xa;User" style="swimlane;fontStyle=2;align=center;verticalAlign=top;childLayout=stackLayout;horizontal=1;startSize=40;horizontalStack=0;resizeParent=1;resizeLast=0;collapsible=1;marginBottom=0;rounded=0;shadow=0;strokeWidth=1;" vertex="1" parent="WIyWlLk6GJQsqaUBKTNV-1">
          <mxGeometry x="639" y="80" width="160" height="50" as="geometry">
            <mxRectangle x="230" y="140" width="160" height="26" as="alternateBounds" />
          </mxGeometry>
        </mxCell>
        <mxCell id="zkfFHV4jXpPFQw0GAbJ--4" value="" style="line;html=1;strokeWidth=1;align=left;verticalAlign=middle;spacingTop=-1;spacingLeft=3;spacingRight=3;rotatable=0;labelPosition=right;points=[];portConstraint=eastwest;" vertex="1" parent="zkfFHV4jXpPFQw0GAbJ--0">
          <mxGeometry y="40" width="160" height="8" as="geometry" />
        </mxCell>
        <mxCell id="hfr1dAZ7PhntGpoKkZmB-31" value="" style="shape=image;verticalLabelPosition=bottom;labelBackgroundColor=default;verticalAlign=top;aspect=fixed;imageAspect=0;image=data:image/png,iVBORw0KGgoAAAANSUhEUgAAAusAAAHWCAYAAAG58vdFAAAAAXNSR0IArs4c6QAAAARnQU1BAACxjwv8YQUAAAAJcEhZcwAAFxEAABcRAcom8z8AAP+lSURBVHhe7J0FmCXF1YY3EHRx98XdHYIECfDj7u5OcHdbPGhwdwnubgvBXYIEdwkhiqT/ec/Md7e2qb5d996emTs753ueure76nTpqa9PV1dXDchK8L///a/raCj++9//dh0NRczv+++/7zoaip9//rnraChiaYRQeCgXi+eHH37oOhqKmN9PP/3UdTQUZXmIXRPLw9///veuo6GI1U2PV/yPP/7YdTQUzVR8DO1Q8bEyV1bxscLEMvGvf/2r62goYnIxvxCtVHxZhSnOWB7C9GIKE8Yt2W7V+KorvqxCFV4mp3yFcqma2uMVT4REEDoycdNNt2RHH310dswxx9i/3DFHHZsdfvjh2bFHDR7G/6ijjhrmGIdc3i90set0HHN5WbnaeS29wZZPjo844ohauP6PPPLI2rnKp/OYQ4Zr8v6WZoc79sjBHfXWWY9/+9vfhqlL3H/+859f+EU1ntZbaqmlus4c5fg5e+WVV0xhv/vub11+Q5FMNVT8b3/7264zRxn+979Omnru2Reyv33fIsf3lMYfcsgh2YABA7IRRhgh22CDDbp8s2y66abLJppoohp3Pv/889l6662XXX311dmHH35ofk899VR2++23Z1988YXJEQ/uwQcftPDtt98+23zzzbNvvvkm+/e//20aucUWW2Q33nhjdvzxx5tMlSAPL7z8StfZULRlxZ988sl2Q+JGvNFGG3X5Ztmss85qlfirX/0qO+yww7K33nor+9Of/pS99tpr2ZVXXmlhW221VTZw4EA7Bh999JEd77DDDvZP5W688cYWBiaffHLj21FHHTUbNGhQrVGrxjPPPDPMzbotKx40UwFl13RXpRbhH//4R/bPf/6z5l4MND9mMTnH9wCSNZ4WWnLJJbvOHK3CK76XkFzxTjXVIlrxsZtQX9F4LJ96eOyxx+z/pZdeymaYYQY77ilQr3J9WuN//PHnbNJJJ8ukJuTxiiuusDGUnXbaKVtwwQW7QjIbJgDXX399tt1225kJOuKII5rfX/7yF/vn+p5CcsUzltCOQwazzDJL50FXnVF5t956q42jfPfdd+Z34okn2v+TTz5pzwdUPrjvvvuyU0891Y65jjL2FPp0xfekhlaN2GhuIdW0o8b3VSRrPPCKbw1hD03WeNAXKr6v0A/jQ3n0mYrXQFiI0ERUI9RrjNhbpJ5AlGqw2cmQ3kQpc2HFL7rootkiiyzSq07Ycccdu46ybPrpp+866sQoo4ySzTvvvF1nnS+e11prrWyFFVaomZsjjzxyNvPMM9txT4Eh6bB+cX1G47fddttKqKU36Kn05hpmym+u1UEVH9Zvn7659hWIvkMUVvzSSy/ddeRoFVFzktYggJss5K/u0E4V3xu8XGWa3Fyp46SbKxVfL3HCFJ6XC8/rxRFDPXledofYd999bVrFHnvsYe9ZJ5lkEvMfffTRa+Yn/wyQ/fWvf7UX6FCowhTf/fffb36//vWvzTICX375ZTbWWGNlE088sV1Pvnj/O9JII9lL+Jh5W4SGqKYdOT5f2N///vfZiy++mE044YTZTDPN1OWbWYUx0WiVVVaxl9285NbMBBSK0Ut6uHDPPfeYmTrBBBNYAzHANu2002YnnHBC9vTTT9v7VIGKn2OOOezleyoaGiRbfPHFu876J8p6aiM9OeR4XReteAL9DVR1iGo8rRE6hND4JZZYokvE0Qyk2fzr5ho61/geQEMc3+4aj3JQoPCmmoe0jvKECG+sPYGWKl6FAPmCxJAiEyKMX8in+X//939dZ0OBpTPllFNmr7/+up1jEs4444zZq6++anMkqeRpppnGTEDMT00TvPfee82M7Ak0XfH5SuE89Cs6LgOyqQ30+eefZ99++200fuxk/OVA+K9joS00Xk+sOGUyX/GO1pD8YYJXfLVoiGr6+wNUVYBBkise9IXRSc2TAaJJXB74vfvuu9k555xTKNOdiN1TCjW+ncZq9KXIuuuua/8C4zTC2Wefnd188821V3tYNyGwag499FA7xgKiIXoKyRqPldBOD1APP/yw/d9xxx32H4JPeBgk4/3qsssua6bkwgsvnD3wwAPZOOOMYzLzzTefNcaxxx5rpiVT+j755BML6wmo4sOe1ic0Hrzzzjs9ThFVoaGbq7/6qwYoS0MV72M11cArvhcRrfgYb/aVij/ooIMsr2WgjHyckCLbHWAYGIR13Sc0ng+IGQz7+uuvozdYvpFFq7CXsVh4NzrGGGNYGGXBKjrllFPsnHhwJ510UvbVV1+ZX3ejIaoJP8X5+OOPh3GYYj3lPv3001pl4fiGFNAA2OyDBw/Oll9+efMDjIsgx1fdBx54oJWFp/AzzjjDvg7HrGQoGZOZ+HsC0YonYzHXbmM1u+66a9dR3wJ1SY/M16+bkz0AcXwIt2q6GVCim5O9AK/4XkS04rm7y1HhOt5t9z2zUUYZzaa0jTrqaLbUiNxoow173qrrzvg68/9Lmbxj2p+OdT1LssivngvT0zEWl+pTHyaEdRzV+BCym0P7OdaCsRtI6rqTZQjzoFxQgLxFT4HyiPlxbR5h+YTQLxZPrCxNLX9YL/EwrDsrPpZezK9exSMn2Vi+YhUfy1eYXmrF60PnENGKDyOPIRYeW9YwFnms4lO1LYTCQ7nYNbHKSa34sjyk9pymNL4eYhmLJRz6SSNiCZcVNIZYJcb8QsVQOrE8lPW+VCgPYZli+VLjVV7poVa0e6XH8t8MUitdfsmVrgoMIy7rdromloFmKl1xh9eqMmN+IWJ5TdX0MO7YNbFKr6eQLWl6T1d6rOFjFZxa6amaXlbpiju50gmMueOOHBws99q5POyxXf/yC5eBlWy4XKyWgZWf/HWs89BP52WuFsfhh//i2iMOH3b5WcL46iOU4z+2TG3M6ZpwaVv54W6+6SarMypV9RebLYYy8F+o6QQ60rDAAgtkl19+uWm6tD3Wu2uabr85cKFXejpmna3zU/zLr7jc/kE9ikvm9KrBC4kLL7wwm3322e2c9QT4Sg/wGI0F8vjjj2frr7++jf/zhgmwDC0fd2kCE0tfoSRbb721nQPCeIsEWHuMtC699NLa0rUffPCB/VcFPjgTrrnmGvuPKW1bVDrLVM0999y2kAOV/vLLL1uY3iIBuJOxf+QZV2E5W7oy4D2psM0229gXd5rcdNddd2UrrriiTVDiWhyv/YiDr/RYT7gqSHEACsD6xm1Z6eK+4QG8KgyXrqVyL71sKNUIsnwKOd3RGuh1eRRqut9Eq4FXei+goUoHTi+to+9reoEOnH/++YUKEvpjgva0ImmefZhuqab3dCbLcOPNN9u/8sWWEqx3xqIPYMsttzSzkIYQkMUPJWLeO7Y/E5RY5KG7kf+4AZRWugTaBdffcEPXUSewuQHLkwDsecCytKwZDJ544onslltuyc4991w7x3ZnG4hHH33UzrsTMXqpO7TbjpXe19DwjRTEhjAd6WiKXrzSW4OWOg9R94kUeKW3hqY0vZ3MxjnnnPMXUxzIo/Dss8/av/zIuwah8IuNbXc36lY6Bzg0W8dhpWPjxpaG7UnHTYk8zTbbbJYnYa655sr23HNPs1JwLE3LZlpDhgypbbRVK2jHMWDUMRzF7C6Ela66ZYyd/z6j6VVCPaI7kUwvygz/zumtwa2XXkBTle5oDck3Uml3X6/01Px3ZzlV6aShOmZaBpZUqaYXHeehMP7ryTUDFmrYf//9u846Ia157733bI44L66xUHj5vM4669gxTnurYs1ccMEF5hfmlXnqWEf46yU2N2493PApJX58TsmAGcdhHEXo85xOpbOJlTINOCafWgoWmd/85jfZcccdZ5vdCoRjqk066aQ2cV/Q2jj6NhVgdrL/NStvCDTmH/7wB9vbaffdd7c0MTlTKz2Uk0XYJyo9nBDaCsoq6oUXXug6ah0xTa9b6cCtl9YQq/Ta0C7dlBP9AzSinR6O+iJYQEiMQb3i6t5IgWt6a2jqRtpOmk5e8nzMTK033nij66wTUpRQYbA0QBmfV42WKr2oAWQ9gEZ7RShfVBmSCWmPpUkEzESuZYcCFsPfb7/9rILZVUBx7rPPPubHOmGsjgro9kAV0F2oXNNjFZX3S5ERUq7FXo75q/GZy5gaP9dMNtlkXWfdg7qVTuXi0Cxljv/u1oThHWGlU7fUMT2W/0JN90pvDU3Ri1d6a6DSqUexB6hb6aAvVDqrI+ULJoR++fCia6pETNOFpm6kPQ3GU1hCKgRjIszu0gAUoBGEqaee2sZXWGqK7XoAcnw18fbbb9e+7OguxCpdFtkvPlXnXMQPJNhbYFkU5XGllVayf6CtOvnabbzxxrORQr28HjRokM3kmmeeebIxxxzTlpBlVhdf2K255po2qFXllxgxxCpdpm+hpvd2ZYdot/ykoKkbqaM1NHwj9UpvHV7pvYC6E0hjFdxXKp356anAMHjkkUe6zrofsUqXcdInND00C4Wxxx7b8sk3pcw7p5DsBsnujoCVVjfZZJPs/ffft3OsHfbNBm+++aa9mutO1NV0+82BwqjiaZ3eWhqW9FThuPAdJ6/W2MyKNXt5z7nccsvZVxhUOh/P4rhm9dVXN8tnoYUWsq81Lr744uyjjz6qbdHZXahb6bLJ9Y8jUF3B0Ry4kYZ1iuNdL/+Fmt7X7OJ2A5qep2kt0lBY6a7praEpk9ErvTXEKl116pXeTeCmH1Y4qGk6BzE36qjDLoGaupxqMy5cRrUKF+ZVcafmP1wONuZS45t0silsgCusU51HNT0GjZCFiPWGUE4349gqPyHyGlGEWHqxG37qopSpxkJIE7FrYn4/dVRuHlQ4KF2FVFCmQ/lYJYSF661KD7e6F5jok0fVlR7KSfnCstUq3X4TECtwzE8RA2Um1kvCzKQill4s7lilxxo+Fl8MZXlVmUO5enWTXOlFiGUo5pda6Jhc2JACFJLXutRrU/PcCPLXcx5TiFhPicnF/GITaZHLp51a17G8tFoPqYock8uXmbzEbhWxuklpe5v6gmfo8Mv7F/lRYXl/hYXn9PrQj+vIYChDuNaRDP0pXP5a3s7hLz/CiS+UzV8jh38YpvOYH/Lyw+k8LxvGK0dZ8tdLPjyOlZmyhH7EoyXC5AgvqsO8X1hX8otdG/7rGJdSD4qPsDCc41icoR8uX2Yc7Zy/Nl8+HN9+xOILz3uM2WO9kQzkQcXkQSHygOXysrE0YvHF8heTawT5ODnPxxlLF9AoeeTLwrUxuVjdtFKvqfUQKwt+raRNmcN4OWZBmTxi18bqJp+XhpRd2QiLWVToPKpWdnpyXrYVZW8V+Tg5z+e7KN3//veXe0/88MOw+eba4VvZO9j/v7+US916oiVlzxeGDOP329/6VmyO7sGUUwzKLrvssq6zTh1kklheF2MdKuXumMzsSpC1h2M9y+FoBejX3F2Ln3z77bf23fXPP3eYMd/98hPe2B08idlh7LwDJIDL+zPFM9az+hLWWGMN+3/ooYey6667Lvv973+f7bDDDubHQuN87XTmmWfa/IQQlHu99dazVd6PPfbYWh0B/g855JDaJBABYqBxWB3+vvvuq8nXw2mnnWbb3QLmPeRBnDyzhGkD9iHmmGmzfRFamV7l+eLLL7OLLr6s49xODegh9RnqJfWBsuf98nINP6AODzvKajYTE2NQUBYIYFI8FcJK+SxhuvHGG9dW1hd4TmDmE/O4FQf/jBjwz4IFLDKmMKYJsPID62AxOQe24is2tj/gtRX2KLJM/NE1YOedd7YV+ddee23z5yGNBQ/YXoFztkKgQzIp/89//rN9UmiN2RUHnxUiw2Shiy66yPLMi1wWPUAG06AdEW7DIKD4dGLyThlBzLJoyWYvQl9XdipvlllmsUaXcvBNKuCcVThYqG3llVeuybD9AxWM0ukjhYkmmsjmTKJEyMD2iy22WPbiiy/WrsPxXSv/1157rd0tUHyFgfw/2HDDDa0DgDAcR+d89dVX7Zg0xx13XDv+7LPP7J+7B/9SfhzTC8kndwM6ILPl2hExZRdoN+r/5ptvzP73E6M2wyp85cpOgr5XeJuh3CrqM+A9Ap20yInRRxiheOHXEHm/ZGVH0XG+W7WjtxGbL10Zs6Pk6lnMxnc4ehMxZY+N0DRtxjizO9oF3crswJW9elCfVaLq+NoVPGznkaTssQrKG/bIuBlTDkZJFgjWOa0HFqzVymN8OTvBBBPY8BojMSw1wc6rfKDJcThahAO33XabDT0yrLjvvvvat4goATPsQSjLEhbMwL/xxhvtvC8DXaSc0lv+cUwOk5+QN20aYnbAaEy+M2hIy12nGzhwoDmUbd211u6qpaGQEkIeyyyzTLbqqqvaOf58HAvoCJLjboqisrYK4+rgzjvvtAVwAHJ6J8A3Otttt50dI0vbMIwK2McirxB9EdRxHpWaMVyIkqPs+UgcnXjppRc7GHrCGts4ugcxZY89oGqoUmiK2fOROBw9iW5n9npmjMPRk2j6ARUPbgGhC/2IBKdzV3ZHbwLSRdnRQekl/7x9lY7KMZcpPE9mdkBCbsbEQd1AEroD1gMyr7/+etdZJ2i82IcKIXhAdaJpgdm7/pPgyl4fM8wwg/0z0YplhGGWIkw33XQ2S5LZiaxsC9jq6YEHHrCpxww5spwwQ4nsFsqacuxmQRuQDjMtkdt7773tWkZkmAeO3GqrrWb7peO366672sxLrVM3PMCVvQ0w88wz2z/KttNOO9lxkYIxbDj33HPb8S677GL/Wj/79ttvN+VkbryUHWhhRGY6HnrooSZPwyOn5aOZecm6fszIRNnZdQRlp/MNL+hRZfdbqaM30bSyw9JlTnBld7QDYsqu5UhCl/drmNm1JajD0VuIKTujLXm0bMa4sjt6G67sbQB2GOeTvjLQCDyc8okeOyFyi60H9h7ie9J64KGV0R9GYYR65qZ2vQVa81bnIUI/PmcEeVnKE54XpcsIEp89tooeU/aYzU4ls2atCs0Muw8++MCOmRDFx8MAGTaOAlSwZuGR+VNPPdWO8adxAfKaUswrYr78J20+WuajaMCIg2YPci3XgCmmmKJWKbPPPrvlg/zwDSn+HDNMp4Zm9ERb4Z944om1eE4//fTaTMJTTjmldkyZJMNOBviHygCYzRjbC4QyzD///LbVPx9LAz6o5ptS5WHzzTe3sgG2+tfwJNtWULfg4IMPtrqmobmeJQYZmWHtFdIgT4svvrjJEofw7rvvdh11grq599577Zh6IP/sG8voj5TorLPOss5MfbGVxu9+9zvrpOyGz1ArL3X4oBz5ddZZJ9t0001ttiV1TV6mnXZae4+Qf7/QDGLK/ssH1M5P+UIM4CNWHL1OLn+OYwyXfyovH4mjEzQuClbG1CiTlulAFgXFD+XVtUcffbQdv/POO7Y1yHPPPWfj7EOGDLGhRHDUUUfZP0OQrGqAPITDx9oiDKYdg3BrET4KD8G1dBQUVUuBwMDscMf2gTfffLP5sb0JYItCOgx6wEoFzKzkWtKlHMy2POecc+xY19ApwDXXXGP/rQDiI7/SXRzvJOhMOkdXyRv/Ok9mdiqSzC+xxBKu7N0I6hjnKEaM2XUHCvELZu/6L4QqPlR2sY/D0dNAB2W2ihhwSePsCKbAld3RDkAH9VwjRcfFlD3P9k2ZMfke42gM2MzY3+G2282CWzV2fH8yLdMeUCPMjhLHHJXHPwoOdFyP2SUbQxhWJJci0+7YYostbNWuemAERWBk6aWXXspOOOGEbLPNNjM/RmF4gGW+C/Nm6BhcQ50wmsS3qvfff7/J8aDIPyNbd999dzbTTDNZ2+HHqM1uu+2WTTXVVLaEHH44oFGlvoiYsjMiKN2VowOE500xO8chiFTDVMjo6Z5jWIendcBTOk/F+CPPkm2AJ3Ut98YCoCzXBp588snauCzH8mc04vnnn7djhgD1pI+/vtFkFIAw8spIBv7Km0YziI94AaMOpA0YkdAxSiIZRqQ4Jh6e/kmXY8oqf+qAMjMCgGJxTR6MJqDcLFrKkB5rPzJ6wSatgOuIe6uttrIhSPKGnUrc+tb0qquuMjk6Av/sust3qcyIRNkZwwcsxMqkMy2ZB/TfV9E0s3f9lyJUdjdj4qDzoPitQttDdwfYhrqvw5Xd0W/gyu7oN+h2ZUfRAdMFXNkdvYmYsuefI4F0VmiY2V3Z64M5OSlgrJhFi6hX3DHHHGMPz4CHVtZ154GUV/V//OMfjbmYSyPwyp4HV3DHHXfYAy9AEZirwkMvYMEkBgjw41lg8ODB5t+Xkcrs+eHYppQ9HwkJ8eBDpcccn5kxUhAL68uOMt1666023BcDk7xis/xY6o7l7diqhvknU045pdUtozRazYtRIGYwKm62xmHEh3kwGk3R3BgmkKH4jAJpYtnhhx9un/YBdhFh1AalZ55NODOyL6JbzRgaggtRcmYhxm4Zjo7K7FBCxnvrDe1RlzgdU5fIMxzKbh4QA2y+yCKLmAwI5dUGDE3m05FcSvtIti8ipuz5t6UgXw/JzK7K8fnsxaCOmlGivqx4vYGmmT21omXG+Cq+jt6GlF3kgqvMjAFSdl+f3dHb6Pa1Hl3ZHe2CppWdB57wdhBzwJU9DazSVQZ9zgf0kMmwICMwgC9uNHTIKAv1zjQEJowJzHVhqQjAsKK+EqI9+aSOxtdDm+YRaRSNtNSufRFFyk6ZQoeyh+eVMDv+/RmMoqC0zGDkX2622WbrkhgWUnCUj2FHbUDASA5DkdqcgN23UWg+zdPnkHQUrqfOmehG+BVXXGGbCAN2x2b8HrAymJbkY8iYKcUoAJPYGMfvq+h2MwZQwVR6PhJHZh85h4rOOHyVJMAu3M1geCMiyhMbjYnpZH44smFlh9lheccvobufo3uBslPPMstAjNnzfg2bMbE3qA5HT0JmTEgssZdKv1B2FBdFDh1+8pdic+zM7mgH5MfZ0dHYWo90gPC8qQdUjh2O3kKM2ZMeUNU7yiCZJX+7VMexHTocvYKRfj2y/cvqAJWPxsSQ7yicp9hPIHaHSL2WseiwsEDjziFSO3MMjVwXq4da+TqCFF7LcyCeLwfI1w3X8/1uHrFRiNS6Tkm3CLG6GabMAWLppPgRH22aT+unH9N0pE8qe8wvpuyxNGKV2h2I1QPly6uE8hP6x+ohpsSx71urVvbU+sqXF+AXy09qOnk/4tMH+iFSy/wLZUeR8ORfjvOYHxUW+nNMIqEcMgoL/bUeIPK4fLjC6Mn5MPzCc9KgEpBTevzn8yKXjy+WZ8UVyubPcTSI0pSLyYVhOkZGLpTJl49wLQ0hP45ZuzAvl78Wh18+j3nHtdRDPn+hTOjyeUE2f63i1LFk+JecZMN/uVh+KDN+cqF8KBfTm7yrnNkBmQqBjJbTCJGXAxQ4DwqRR4zZKVAesWtjeY4xTSPIx8l5rHyxdGL5jtVDjNlTr43lJeYXq5tUcG2svmOIpR0rC+2cR7N6Y/ug5hGrVCLLV0Ts2lhjdkelxuKMISYXyyOVms9TTC61M7KEc0p8PYVWytJImfPpwLh5xK6NodX6yte/K3sXXNk7EStL1cqe2nbE1aqehHBl78Lwruyxekhl3aqVPXZtDK3WV77+B1AQKoIM4Dim4XUuPx6YQj8cBQmvxWF3heeEI5f3y19HwWL++fPQhWExOfnxT/zyz5cZx3J14Tkulu+iMuMnRyVTh2Fd4E+64XXhNXn//HmRXMwv/JeLlRnlDP04VllCPz0syw+Xb2fKTHwcU9dqz1gd5utB/mEbKT3+daxz0tI5TmmFfuH18osyO5nOA7l8T4ldS8J5xK7NnxehSI5ChCiSi/nH8hhj9hjyZeaa2HWxB3LSTUkjhmavE/JlJj4UNo+YH8qZR8yPTpHPJ8qeR6z+Y+WLyTWCfJwNKXseqcqu3hgiVrgYiuSqVnZMt5Q8xcocU5CYsqeWuTsQK7MrewdiNrsreydS68GVvRNtr+xFY+K6tONmbP+u7J2I+cXujvXib61Zy9FTyp5HsrJH/FpV9jxqD6ihw37N+6lwxx49ODvmyGNsN7cjjzzS/jvdsfbPKlXyG3z0cfYfyh1z1ODacYojvrwLw/LHebnwvJ5jBa3Y9Xk3bJmLneLLuzB+pTHMeYc79phjamFD3WDzO+aoznrWdbF/ltLjWC4vI3fYYYeZn5yuC/1w7LyX98vLcW0+PhzXEqZzjlWHYRzHHXOs6dcPP3Q+VKLodLy8HrbiTNnziLGczm+55Rb7dziqxHPPvVj7NlcQs6fccWPIX2dzY/KI2ey68E9/+pP9OxxVQjudaAse9K1VM8aV3dGWYNshQQz/88/NMbrgyu5oSwwZ0rnPlTDSSJ0faLSCqLJzuwgdD6h5v+FB2SkDa51rA7Hll1/e/tlkCzByoONVVlnF/kOwE95GG21kS0RTJ3mw2Vce2v6Rne9Sse6669o/O+axM14esS0l1Y6Urzv3ZOoO0C4yY0LkbXgQ6mSZ46E0PI8ye2zYjAvBDTfcYP99EVTqJptskl155ZV2rspkcaOLLrrI1kzXx7z5iuZa1jvnrsea6wpHMR955BE7Hmussex/3333NVKg8yD33nvvZWeffbaFsZ67OhTLTjNfm+0bgQiFa7beemtbFYy4wDrrrGPy1mgd4dpwgA4Ittlmm+z444+3jqwd+sib1mJnQSXiiA2TtgNCM0agPkYauXmGV30KUWWPjbNLLsY0fQUUftNNN82uueYaO5fCjjnmmLZ6F/+TTDKJ+SksBMoMQy+66KLZrrvuasdsEDD//PNn33zzjW0EcPrpp2d/+MMfsskmm6ymmNQd/6zsxZ6kbBrA+TLLLJNtv/322ayzzmqdQ43DHqVsBYlCM4TJMUvYcQ3pKG8jdygCmwvMM888tisHnZjykQ4y2vsU8K89U/NK0A6IKTv1B1SGRtHvlX3bbbe1bVxAqAhyKLz8QnCtmBtm53jiiSe2sWK2eEExxx9/fBszZtW0FVZYocbsgP+99947O/jgg2vnmEqs37jXXnvZPqYCX8/DwGxFc+ihh9bigMXZzzWMk6XvFlxwQcvDfffdZxsHw+yEkefZZ5/dZLUUn65tJ5BPCKAewvUxU9GvlV2gwXEwtM5RihNPPDEbd9xxa35yAiYO5hyKiP/rr78+jMzAgQOzU0891RqGjqAtYTBbJCN5zCaeGdiQGFv/kksuqTWOZFm/cffdd88OPPDA2nWAf54b5Id5dd5559X8uQvMO++8tXDAHQXovJ1AuWPMHgKZYfNefnf6hbLLFg8Re+0rDA/K3gx0S+2LUKO3axnIH+YgusjzYpFj4ASFz+lwMmxFsDzqKXtffkAdbtFk47cLUHb0EOuB/yLHHfWH//6Y/T1xOnYeUTPGx9kd7YzUbw/yMsk2uyu7o13AV2XdouxcgOM2AtyMcfQ2mlb2srnYruyOdkOqsucRZXZXdkc7o9vMGEEXus3u6G1Uyuyu7I52hiu7w9qoGSXoa2ha2WMPqOE4uyrQbfZq0exre9qB7STzGGOMMWxODGPQwztQdt62Ntq5o8wuZVdkruxpQIF57Q3qNcJWW22VvfnmmzYLEWj/VMC/jpntyHwcJpTxoTITzfbZZx8Lh6QI55j57cyURA6Fn2WWWbJxxhknu/32223eDRPLFOfwgEqVPWbGaA5N3owJO4KjE1NOOUX25BNP2fGPkbpB8e6+++5sjjnmqJ0/+uijtVmSTIriAwx2rQZMWGNiGaChmQ0JzjnnHFNywGQwpvTSCZjXzj9xab47U5JBI8rRruj2N6hS9ptuusn+Q4w33ng2txoG6c9u5JFGthmP1MUYo48eZVO+PtJ03rnnnjt77bXX7Jhpw7A94IML5icxnRcccMABNQWH6WF0TRXWdGWmHLNrNXdlphgD7hj6UGSXXXax/+EBqTZ708ou294fUIuhykXJXnz+BTs2BHXOtF+ALO8zaDimBTPFF5xyyinZVVddZccQC9uzC2eccYb933jjjfY/ePBgi4dP2tgGnmVRaE+Unnn2QB2IO0WKgvQFNK3ssQfUmLKrU6Dsw0ulVQnufIMGTZW9/PLLXT6O7kKqsufRFLO7sjt6E92u7EUPqA5HT6PSB9TYfHYpu+xFh6O3kPouwZXd0edRqbJjxuQFJefK7uhtND0ag2KjyKFjQ10NY+F4OBXbu7I7ehsoe6iv6Gd4LhfqMK704w0BYeDKHkcK0ziqQeVmTB5axz32BtXRGF555RX7D6dZ3HnnnXU7DLIvvvhi11n/Rqqy55Gs7MzbAK7sxWAVMFb9KsPqq6/edTSURJjbUg80MLKXXXZZl0//vZtUruz5inRlL4dWtVpjjTWiK/oKUnbmufAa/9hjj81mnHHG7NVXX7WpBjwfsVDpTjvtZAufMseG9SMnnXRSmz5AY+PHuo/TTz99duGFF9qqYQsssIDFy6xHFjhltTEmkPG/5ZZbWtjwgKbNGNgCuz10PACE59xCi5SdsKWXXjpbeOGFs0UWWaTfOiZfaXovoF5jE8GAlJ29hQDrM2pW47TTTpvtvPPONklszjnntDkvKDENx8KpLJsHWMyUOh80aFBtzsx1111nisDCpmpo4pt55pltqe3hBXllD3U1dHnddjOmQrCkNNNsWfNR9RWDlJ1FUAHz25k5CqaYYgpjcxZgZYVf5qej+GCCCSawGZPY7sxyZL765JNPXpssxiKngA7A5DLywN2A6cR0qOHF7KnUjIm9VJJt6aMxxYDJYZB2wfCi3Hn0mLL73BhHb6NSZWecHVYImcGV3dEuaFrZseuY9xI6HlB58NR8GODK7mgX5JU9r79FrpDZ83Bld7QLut1m1+iCry7g6G24sjv6DVzZHf0GKcoeG3atvUFF6XkoxfGAKqNeF7mydw/qjcuHDRZrvBBl4THQ1qloRLa7kVd26pD8ocNynEuv+S98QHVmbw6s7fL111/bcT3lYyc7VvZis1/WmQllQ6XieO2117b2YL0ZIZThWs3JYQ/XMCwGGh3w9pVjpjjw/UIZUt+c5/MG1KGZ7NZMp8yjUjMmNhqTouyNFgT5Vgrf7PWtpFkPLGpEQ/AmNVTOPJjzImj+DP86Zg4M0wYefPBB28RXyi4ZFkhaccUVsxlmmMF2rcaPaQH8006sEqa4mBvDokrhPqusTQNQTNax4U7OBDQ6K5PYmKBGB1C8zMGhcwD2iUWOSWjEjQxzd/Bj+gMT27R5MvEzxYG4AfEyKa1VNK3ssdtovbkx+aFHFYjG4Zg5G9ocd+qpp64xFxOXtKoVMwJZNQswJVaVseOOO1qFALY/Z44JoNHZExSwchbXEifbmePP6llsmT7aaKNZ3plbQoNr1z/yoHUV8Wf7da5nFS/2+gcca+dr4pdCcKwZg1y75JJL2jH5ZMYhYFHRpZZaqrYAkthNCpcHysEsxT333NN2t1522WVNqakXOgwLG6FkO+ywg03gokwoEdByd5999pl1iummmy579tlnzY/0tMkv17AGJJPKwHLLLWf/QPmiDphohmLTfugCsy3BzTffbJ0EGSb6saEwdwL2bmVJPdJlDg7ESN2BmWaayeJmy3w6CKAsmMos70c9VYFUZSfvIQqVPS9YpOyOoZCyo1h01iJojUeAcrCLNfULe1P3bD4M6Px0ABr3gw8+GKbzSKmJS2xJ+AYbbGDHrAMJMJUAShp7V0KemWw211xz2bnWhITJlR5Kf8stt9gx29WD1VZbzZQbZVcHJE+6hunJQCTz8MMP18irVXAnSsEvlB0bk54dOlgjPCdyKgS4sheD23f4cUUR2Blb0HqOLHnHluY0EF8tYUtfffXVxugwKp0BWfy5u7GLNQoo84IJetoSnRmP2PHE9f7775sfaXKeVxSUlQ7GjE3A3RKw3iR3NUwT0sdsAaxNydx6oDuKrtVqaEcccYRdj4lM/FyP/pAXdKtVcOemHHLS0aJ/ueRvUMkw8AfUOFQ/rSLPRvXQiGwzoPM2mkZ35wnEBlBAPu38ebLNLjlXdkdvo0jZ82ha2Z3ZHe2CblH2UNiV3dEukLKjn3mFDvELZefBhweJ0GHY8+TOsYbR1Cmuv/56+3c4egsouxQdh27iQh1Gf/O63bDN7sru6G00zeypyu5mjKNd0O0PqM7srUNMxFvFN954o+bXCiAhbtH9CanKnocre4XQ+4kyBT7zzDNNQaeaaqpavYJmFJ+3qzxjpaLVztUOaFrZqXTYIXRUII3AsdAXlb2nG5a3hLwuL2sM7XDHw/+VV15pc4N4s8jckT322MPmpWguC/OOmJfCPqjMLWIBJNJ44YUXsosvvtjm1djbwQ4/3rayjSRxMM+HiVqAuSrXXnutXXPrrbfam89GOki7Iaxf2jivvzjpb+gqZXaN3ICqFI14Go1LeeW6ME+toCieorwxQY3X2jGwghfX0QCYM0ykmmiiiWwJPBQVcJdgchsb/bJaGBOrNO+E1/gbbrihHdPwtBeT3VgwiYlqKDfYd999s/vvv9/uIson8dGpGq3TdkKvmTFUGnMymD0HmLuhORowCLPdkHnppZds/UHw9ttv28xDwAQntjYEH374YW0yFQymedqwnuaQwJ7ES5zkE3mGmVBG5mgw3ERekUeZkCNPmgFJ3li1C+DPHA5APF988YUdkx/NKSHPmi9CfjT/A38dU3bNE2HOCvIrrbRSbTJUHkzLPfnkk015yZ9Yedxxx7VZoMyT0YxKOgGzPln2TsoOw5NfJmWxWhgszWQt5q0stNBCtVmamvHInPjtttvOlH6JJZawNEi3r6LHlD1lNEYVGWPDepWcD6uyQRQX/7F4G0mLThQivJZZiuuuu27X2S9RLx3Cfv/733edDa0//HWdOjAuX7/4qZ0kn5ejk/V1tJWy91esv/769i9Fawaat94dIF+YRn0dTSs7tzZ6PowhxwOqGEEN58ruaBfklR09zetw7NyZ3dHn4GaMo9/Ald3Rb+DK7ug3QNl5lpRLxQCM9zz0YW4IReqbEVSDRhrJMSyaZnaeUvNghCYPNY5/cF2MFAVGBseX+TEojjAuXRO6EDqHuLgr77fffnYeQ/7avohuN2N0B3BmjwMlggh4c1umUPfcc4/tmSQwF4blMHibDPkcd9xxVs+MievNNEtz8CYVIMtbVr155kUUb6VZlYD1Z9h1D1xyySU2pwaQBtMH9Pa4LyN13Zg8XNkrAGYf81UEJm/VgxaCYpEkpkXgmAtz77331qYEMDmMjb+YKjF48GDzY7Ngpj1owzDWiGGxJcAMSsAzFYsYMX2BeAHLYYTx9nX0mLLH1vyjke64445Cd9ttt0X9+7pjzRaULFwHRmAODquEgTzTM2+GvU+Zz0LdCDA3ixkBlFILEzF5C4Zn1iIzHJl/A9h1j07GHB9mONJGzHZkyoK2iwTcRVidDWj1rr6MypVdDaR/yTmzDwuUkMlagLpSfY0zzji1iWIhtt56666jLDvhhBOs4VhRixmPkAbbQTIhDGXH9AA8Q7GkoNiZOwera7E0HlOBp5lmmtr6kXQgVusCxEHcdAKWygOE93U0rexi7BAhs6vx9NDqyh4HSoqtjV2syVaquxAaEFAYszQPOOCAbK+99rJGRKG5Kyy44IIWHgMLmtIOPB/EBhhCqAPG8tJX0atmjKN3MLwpcSq6XdnFILIjHY7eQqXKXm+tR9mRDkdvQcre6J0tarPHlF2dwpXd0dtoWtljzB57QyU5N2McvQ3pZ5my58OSzRhXdke7oFKb3Znd0c5wZXf0G1Sq7OEbVMGVvTqwZAdrwTBxrJEHrDKEM1IfeOCBrqPhDy3NepShL4fNrmPBlb0+8vVVD2y/CJi9yLo6QOviwFrMf4FwPvnkE/Nj8hejZtqPiGPNjwFas0bLNDPbUe3KNVqxgH/WmUzNZ7sir+yq+zJXyOx5uLLXB5O+eNWPYwk6kH+VT4UzgSw/3KsZk1x71FFHZR999JFN7LIG6vBj6TpmMDKtlzjVWdhWknAdK9277ror22yzzUy5L7jgAluZjE2/JMt/2TSDdkZLzJ6HK3s6WIcR5WHSFf+he+ihh7qkhoKJYyEro8hsDYliM9mL+TVglllmsX8mbrGmI6ANmKuuqbvIcx0mESuDLb744uZPh2LCWfhOhJmQ5Anwz3V9FT2m7LGXStxu2cMz5ggbHp3Kx1JzoYLLofy777671U9esQhjr1PkAMyO0rPOI4oPtCgpsldccYVtAc8xoAMccsgh9vEGU4xZrHTmmWfOFltsMQtfZJFFaus98kXUb3/7W2tT0uOuonT7KppW9tgbVK2LGELK7p/lDQspMvvyo4QoknZybpQ9i+QvvPDCriMHaFrZeaBB4eWw5XhACv1QdHUAn+JbDB4Gi1budVQHDT2iq9LZUF+L/KJmTKznSM6VvRhUqKP7gbJzFyy7c+bDG7bZfT67o7chZu82ZRdrubI7ehuVKnu9B1Q3Yxy9jVDZ6yn8L5Sdt254yojnGJs9PAeu7I52QV7Z5aSz0tvwHNewze7K7uhtpDJ7Hq7sjj6HVJs9j4YfUF3ZHb2NypU9H9HQdWN8NMbRu0DZGzVhgL1BReHlYHDeoKLcob9GaEYdbWA2+uhj2L6brDbFf6cbGBx3rxtttNFsn9G8Hy70K3LD5rvYL9VVHV/MpZYNlyrbbJxF19Em+bDUeojJxdIZOObYpo+hfvK2VMf1nG0glkfMjInJxfxikAkUggy2glicMcR6f8yvnukWIuZHReahbwKyIKmYHPWQz08jjJUqG8t3rP1i7RLLdyw+RvHy18fSiOU55ke6v0inSyyl3HmZlpQ9VgkxxCqwN5U9lu9YmYuUM49Y3UjZQ2ldG/MLkdKQQqpsrL64q+cRK3OsfEXKns9PqrKn6kh6zfwynX6p7KllTm2UWHy1r726zoGuDf1iacT8ipAqG6uv2A4rMblY+WJysqVDxK6NIarYDdRDDPnro8qe2kMbKUg+vt5Sds7Jd+jPcUzZYyhS9nw6xIdf6BvLc6uNnFqPsbRbYfaYXyPKnpeL5a+Reoghf729QSUhMoXjmL3wdS6nB9nQj2tDP46RC2Xwkxz/uDA8dMjk8xLGL4cfjoaWX5FsPo+4fB5x3377bfT60BFeVA/hOXmh4UN//GLp4o/TOXHn/eQflld+4Tkudi2OvOT9yWPoF4sPl9L2xCO9wV9hMX2I+YX/OOJTPBzLyU9yksWFfjG55HF2hPMggTxiTBOTa7XXxuKMIZaffFnICyNQecTKHPOL1WHs7pjKwt2BWNqxdo6VJbXMmG75dFDsPFppu0bwC2avWtljShxLoxVl59rUCovJpSp7Kw3firK3UjdFaEXZYfE8YnKpyh67NobKlZ2f1MRpwBSocsoajXRTGpZCp8ih2LGGyYO4UjtLSnwgpQ5JV6ZDWUM2km5KWUg7RXmURx3XQ6oyNlKWsjQJp1NBOin5S81jjMRiSJWLEUkMiq+sLKl1mKJbAJnUvpLKD1X2FUA7p5QnRqgxEFdKXwFl7Uy9kK/YTTKGVL2pqq84sZegSmUlXSf2YqToA+GNEHuZjJDa8VLlepPYU/QBmdS+ksoPVfYVUDWxk26qzpa1M/VCXPSVFB1L1Zuq+soAArtDWVMKm9KRQWoHJd3YN1Z5EF9qA6dWdIocaVKHKcqa2iapdYhMSociX6nKmhIfSC1Lit4QjoFB2mV1mFIGoeqyQEopUHxleU3VQ+IpI3bJQIhl6VLHqXWTQrCkl1KHyNFXUto5tW5S9AsgU1ZmZMhXo8ZuGVLrGrl6ZalZ7CkFRlmRK5NV5ork5J9a0VRgSicmXSqwXpyESTYFZekC4kstSwqxK74UhOnyH3MKSykLMqkWexh/PZTVtfLFf0qasuTqATnFVy9OhZV1PMmltAuyKaQJUvUwVU66VVZm5FJ0lrhSdTGV2FNIDjndwMkr56ELQbrSoXpAJkVvcCpzPi0Bf+LSUEyRnJCSLmhED+ul2dBQTKrF3oiyllUIKFNUQcpaBuJKzWOKwhBfWcMJPFEgWy9e4kvtTKl1g0xKWZARsVeFVKXmv6wshKOHZWVJiStEqkWV2i6p8aXqTSP6mlJu5FLKkioHUgk7tW7oKykckUrsxJNS38ipvuulTZqpfSW1nVPrpkwfumWMPTW+lEYDqcpK5aGEZbJhw5WhSoUBVVvsqXWDTGpZ1M4p8aagSn0gvJ2JXWn2JrGntLP6ShmIqzeIHbmqiR2ZlPomPZW5KG38iS/15WlqOzdC7PXqpduInWq2ZLvS5i+fjZRGA1RgilyqshJXaplTFIb4Uhuu3YkdaHw4Jd4UpNZ1ij4Q3rvEXr+dlWZvEntKuZHrLWJP7aMi9jJUbrH/XG6x40+awxWx14sQ0HBI/Fwil1rYVKiyU1C1XCpSG643kdqRewspL8gbRZlOC4liybqdmm7Veki6Vfe/quPTsGUZUvkLpNb3j/9RP0X+l9eIa1KHYlLzmCpHvdQrywAyR0fmv8gRAY5CxMJDh5ziA2uusXa20IILZxtusH620YYbZhtssEG3uvXWWy/bsAfSadZttNFG2brrrmv/5DPmYtdV5VLj74m8dKdrNP8bbtAhH/GXIwy3Udd/TAa34Ya060aBH3loz3pcf/31o/7Nuqp0RvGQv7L4qkoTRzybbLhxtuyyy9k2UZdffpVxGCSa5zkc/hi7Ivl6DoOuKjnCkYuFyZnFnmqhpQzFkChOYFtQ9hqr+m4euYk6HA5Hi/g5e+qpP2fzzz9/9uWXX9ric9qRNYTIl7UFdF4PqRzbyFBMPfRdYnc4HI6KAXc98fiQbI7ZZrPzn//3c/b++++bBa91yyH0zv//dRB72nTH7iD2emk6sTscDkcX4K4hQx7P5pijk9hDfPTRR7bE9CWXXtYh2DlE87fv/5791HFN2RuQ4YbYlSh75Tux9y2o7eopTr0wUBbe19Fo+Yb3+hie8PjjEPscXWdDgaVOM77717+aBX/9DTd0cGcaEafyX2XEToJExn89RyRM7aFwnOs/5joroDNREXvq215HddAj4yabbGKKeM0119g5uPTSS83v8MMPt/NZZ53VznEvvfSStd+QIUNqfgsuuKDJ8YKJ85dfftnOY+BaZjSMPfbY2cgjj5xNMcUU2VRTTZWNNdZYdu3EE09cy1se8l900UVN/sUXX7TzIrz66qsW56677mrn6NqgQYOySy65xM6rwuabb27pUCZNB3333XfN74ADDrDzerj66qtN9qijjuryGRZhJz3iiCNM9oYO4gC77bZbNv3002fPPffcMHKOaqG6feyxx6LEnseHHRb8r371q+yCiy/J/teht3AcDkNZTpwYHhc5dF9TN2PhoSO+enINWezMH05BGB9DMddff33XmaMnIUXddNNNjSggF+Giiy4yv0MPPdTOIfbJJpssm3TSSbMdd9zR/JZYYolsgQUWyMYYYwwjWrDxxhvbda+88oqdFwFdgZjzHYR4RhhhhOzRRx/NXn/9dSP+EUccMRtzzDEtXkgNoDeQ6GuvvZZ9+OGH2bjjjmvhkvvd736Xffrpp3b861//2v656TAOyvG5555r8UC6nLMjE47jyy7reJTuwKqrrmrnOF6S8T/BBBNkn3zyyS9uPNtuu63lkzzRmcmTiF11eOSRR9o56fDIzvFee+2Vvfnmm3ZMPin7wgsvnL3zzjvmR/kHDhxoxwceeGDtBoAc//fcc0/txvzCCy9Ym9IunCsvxEsagHSJk/CRRhrJ/ldccUUrD85vDOV44oknsjnnnLPrrBjU5E8//Wg6Sj3feMvNnf6ROoZsU9ArQzFO7H0LIieR8ZVXXmnnAOLDDzIBc801l52/8cYb9v/000/b/1133ZVNMskk2SKLLGJysthl1ceAPxY7JAxhEjeOGwfX7r///iZHvJzPMsssdmMZb7zx7Pypp57KlllmmWycccapPRn8+c9/ztZee20Lh8yIF+tGFrvI9YorrrBzCHLvvfe2Y90sADct/CDJlVZayUj42WeftTDJX3755XYeYrvttrN0SZM6Q+7CCy+sxX/vvffa8e677951RWZPEfjx5EM9cnz00Ud3hWbWL+abbz7zJ+555pnH/I899ljzI06w5ZZb2vnf/va3bPzxx7fjv/zlLxZGPVO3kDngn7rUsOnUU09t8l9//bWdO7EXQ3VDe83W9fK0EXz++edW1+iFQJy4vKFQBCd2RynU8CeccIIp3HTTTWeEjbWsDn/fffeZzLzzzmvnQNYxhAGRYcUutNBCFsb8e8KOO+44I1FIkOlgkHFoETJsB7HPPvvsNX1gCANyh7CRw+omrltuuSX76quvsl122SVbdtlls2+++SZbcsklzeLHel555ZVN7oMPPjCC4hhrlHhlLe288852LouXzoVVDGFOO+20RuR0WIgcP6apkT7nunlgXXPtVVd1zl8Osf3225sVTd7I+znnnGOyuIMOOsj8OZ5yyintJqQbDmlByLfeequd77nnnlanPMnQHtQTj/48DVDfgLpFVtPstthiCzt/6623ak9ayy23XPbFF1/U8gHhA+oFYteHMwxLEU79gnpk0N+hukFP0NtGoesxen7VUee33NS5ITrDND/XLPb69V8ZsRNIZPyXOayAmH/o6NwoLseAMXYn9vYAJA7Jn3rqqTVCB7QZhA8hAYZIIH+IgzZH0Z9//nkLg7A4f/DBB7MHHngge+ihh+xY4YDHTnSKl1AQamitcD3+TCFDR5CDnMjT/fff3yWV2dg6eZAxcffdd9tTBkQOST388MO14SCGRa677rrsySefNKuJ4YvPPvvMwgBxQZakEb4bIC+QquYiEw9lYognD9VJaNyQD+qRIRmBcfATTzwxO+WUU37xfoAwxs1VV5dfdll24XnnZ5933Lze7iDtRx55pJYXysJNiryQNulwE1C/YsiJdM4+++xhykp7MJSgOqe8lBHLXtc64lCdhcTebJ3RBz77rNOCP+ePZ8HuNmzTEaEtWUC8MSfuLHMYMeQ3FoYbgKWBFcRGiDjO807+KFmRTMxxV1lsscXshZbD4XC0MyBEgMHA+wvefTTrRh99dHs3NXrH8QQTTmwE/7fv/ma8WI9nMRZ4wouFh46Pp+pxsT17Q8ApSBmKCe8agKEYvd13OByOdoZ4q2owRKbhsfAJNo9wGLseyl7GVj7Gnid2TXd0OByO/gqIXStB1rt5VDbGzo8Tu8PhcHQf2prYi748DcmcxwycHhWY3eBDMQ6Hoz+jx4kdASKDiDmOOcJwZCwvJyJ3Ync4HI44yogdP/hUa9CHHBtzcDYGeSwMV8lQjEg9JHYccGJ3OBz9HT7G7nA4HMMZuoPY68GJ3eFwOLoZbU3s/vLU0dOgCxTP+m0cfMHJolgaywT1OloVUPxbb721fTlbDxrC5BqWYGAJghSDytGeUNuzZATEzjl6x3/egcqIHQGUXAPx/Oed/PncmWMSlx8IM+fE7mgZHXr09+/+nt1x++1dHkM7iP4bBdfxRSGWEytWsviW/IVnnnnG1r7561//2uXTCdb+uOCCC2ytFsA1OL7EZnlg1rpB5+kTio+0+NyfawW+FgzTY32dm2++uZYefYYlDfjqkeUOAF8Rqp8BFgYjLx9//HGXT2bH+gqRpRW0xIHyGabp6Fmo7lmBMyR2kG8f9IebOPyKE//mHdez9EA9uWSLHcUN14oJEWZQxI4DPhTjaAW3d5D7hBNNmM0440zZM093rsLYDPjqj4Wy7rzzTjvHgmIVRfDee+/ZJ9+sXwNIk8XO6Dz464tB/NlgGeAfrvnOol4sYvb2229bmIhZqzrSx1hEjL7A2i8sr0v8gDV6kAEsXMan6IB1b7gRkf7xxx9vhK9+pdUkiYNlmVnVUZb9WmutZYu8gXxfdfQsVP9VWeyS4yZQD90yxq47EoDYWbBICplHakYdDnDbrbdlY4w2RjbvPPOYdWtAh+QKMNNMM9mqh6yKyDIXWlkyXMCLddpZlhiSXG211bp8M9ugBKJntUrWk9da6qzpIf0dPHiwrULJxiUsRxyCfkOfgNjpC1jqHLOc8sknn2yLeYnYIX0InP7AGk5YelzL6poslqb0iJNrsNZZrz3M70477WQrWgLJO3oXw8WsGEhcidKJbrrppkJiF8go+dDjhTt3P3bpJavi/fPf/7bju7ss4EU6iO6xhx42vxp+jis6OxBNOOGEXWdDsfrqqxvBMpZNnJA9Oxxh7bKZBWDpYMj8mGOOsV2Mll56afPfb7/97BoIf/HFF7flf7WzEgvfcRPAckZG689zzFDJHXfcYccQO2vCs7Qv5+xqxfAOx2z0wBMyx6yyqeWKGULaYYcd7Pj000+3eLfaaqtavuh3bArCrlWgrN85egZVEztc2aPEjiLpUQNA7FgpoRXvcNQDqvO//3US0nnnn29b6bFefLjUcDMIO0K9TiGkyPQUYnlpp/w56iOV2FNGLrg+NJ5jGMAYHS9P89ZS6GRJ8/I0H5Z3JEjmZClA7IwrpmTY4RB4GajxcMGJzNFXkULs8GwZF+PgbLlYOK4hi13THet1MMLyFrsTu8Ph6M9o66GYonnsIUTsgg/FOByO/o6Q2OshldgxlNuC2P0ljsPh6K9gdpOmzdZDrxB7ystTECbqxO5wOPo7sNirJvZ6sC9PIWzIvZ5DjkeJWJgcMjgse86BE7vD4eivkIEbfnkacmXewcX8h7yad4RrtYAiZxY7ginQPN088o8ERCw4sTscjv4OjbEXDZ/Iv62HYsicEoXY+UDJX546UiEjIJxdVSXyhgxpKM0qDJCYrpNGUVm6o4yO9kJ3jLHXQ7cQO/MrpaxO7I5msPDCC2cHHnigLZxVBdDHVVddNZtxxhlr59LR/D9LCrB+SwqK4mAtF+IBTzzxhH392t1Q2o72gxO7w9EB1nZ57rnn7KM4PpHnE3oW4GIFw2bBEgKDBg2yY5YNYFkAHpGJG8JXx5t88slt/RX8cfpcH7BaI8sT4M+aLi+//LL5X3311dkEE0xga82wVgwrQbI2zYMPPmiypDPXXHOZ7B//+EfzG3XUUY38n3zySfNnLRjWhPnNb35j4Sw18OyznQuf0Z9Y2gB/3AYbbGD+YMstt6z5s0SB+p8Pf7YPepzYUQCN19RzgJeisTA5oVFiR5aby9NPP23WzZAhQ9z1Q6e2f/HFF22tExbLyusNnWPttdc20jv44IOzTz75xPxD/SsCxD7DDDPYMUsUhFb0dtttl22xxRZ2PNFEE2UPPfSQHYMpp5zSljO46qqrLF8ffvihrQSJQxZivv76621dGQE/rU9z8cUXZ7PMMosd03FZD+arr76ymwLrvnCz4f3VmWeemc0zzzwmB0hvwQUXtGPWoiEPKufdd99tZR933HGtHj766CNbpZL3WVonJqVOHD2DVGIPjWzar8ghF/OXc4vd0ZaYbbbZapaswDK2rGIIqR955JHJ+ihA7NNNN50dYz2z4Jew++67m+ULIEvWZhemmmoqI9ULL7zQjkPwVTVPEddee+0wpMxNimWCAdeJoLkpcXORZXbFFVdYnMxyOOmkk8ziFkJiH3300YeuZtkBVk2lX40zzjh2nQDZs8Y7wGJXP3T0LobLoRiU3x8LHY1g5plnzh555JFsm222sSGGvfbay5bJzaMR4iKuRRZZxI5XWGGF7LTTTrNjcPTRR2d77LGHHc8+++y19dQBebnnnnvs+C9/+YtZxNxcJptsMrvZYLRA/Kz+KDz//PO1c2QYlpHVzlg/QzBY9KTDMTcqNvnQEAvlgtghcIGbAgRBfTz88NCVLXnaYJVK/NlxydF+6A5ir6f7DRF7ypengMw5sTuaBboDyWEg6Nz1x9GXMVxY7E7sDofDMRQ9TuwQLsTOfz0HUevlaT4sDyd2h8PhGIoUYocjU7gYVyZnFnsZ+wsaihFpF8GJ3eFwOIaiaou9bJTFx9gdDoejm5FK7KlGdqVj7KnEHs6K4eOOG264wY4dDoejPyKV2FO5uFJiL1oELA8ndofD4RiKqi32su+CasQuIua/yIVj7LgiOLE7+gvq9YO+hOGlHO2KZix28WzMcQPgPyYH6r48lZCgWTGhf14GOLE7WgG6c8IJJ9hn8lXi1FNPtWUE+KAHt9NOO2Unnnhi8gurIrBkAJ/40yn3339/W7gs1i/qAXmsMKYUc0wfYt0ZPspq5qvtovRvv/12+9iKcLm//vWvtm6O0i5DmQwfXR177LGFcilphGhUXmCZ3Hb54r3XLPYU+Bi7o6fAkgKsGwMBswbLuuuum73zzjtdoY2DjjDnnHP+4stMlg7gi00t5gXuvPPO7KKLLrKvRwWuhyjOO+88W6yL9WIEFicTkb322msmSzhkzyJg999/vy05oHVtAMsBnHvuubVVJJlccNhhh9nXrHzFCrgOqC9dcMEF2VlnnTXMwmAsSvb666/bomOXXnpp9uijj9bCdJ3+yRNrzoRhgDywZAE3kW+//dbqhGUSuGHpC1fagrKrDPRxljiAiKgPygMox6233mp1rQkT3Dj5ihbHddQPYXxZzDE3m8suu8ziIg8swaA6AMiQL/JDGYHyf9ttt9k/SzNccskldj1x33HHHdkoo4xi7chCcr2NXhljT71LtLKkAI1ThLyigSL5enmlQaVMqWhUPgbFkY+rLO58mXWe9xfydVIUv5QjFl4UdxGQz19DvEVpI1sUFrtO7Zlv12mnndbWWwmBXh133HFGxJApn/eHKCsbZMN6LrvuuqtZ6yz6xef8WNkAMqADyoBhdUk+1cei5UvYNddc0/wByw9stdVWdrzppptmxx9/vPUPbkLvvvvuMHkhnPVn6NgsLzDHHHN0hXSuNQOZUy8sfsbKkoCbCOXkqYW0tKAYuPLKKy2MNJZYYglbpEy6wfIHG220kR3nMc0000SXI4bIIXbyx82IuLVWzuabb26rVUqnCIOQWSSN48cee8z8IXzOubFA1AsssID5sybP73//ezsG6623Xm2ZBFbU1BIKusFq8TXKgFEIWFuHJzhhmWWWsfYHtNchhxxix9Q/Sz1Qj+jTGGOMYW3RDkgl9vpPj+hUZzujL/X0vceIvaizCyjmZ599Zo7V78I7F0rzxRdfWFhY8K+//roWRhmUJtYGceDCsuGv+MMXwXQi4sGFTyXc6ZHFH4tBoIEUf7h+CeVGljRCecqCP/Lh+uLkF1nyL3+VgXPkCVMj8o885ECHV50SJnnCwrrDn2tIn/wJrC6o+EN58o0/Lmxv6uXjjz+2eMKdYFi8SnlSmckX7YQf8vk6Uj5JGxAX7aT8EB/L9rK6Yx5YphADRBcu4lUG4mdFR60HI2CRQijoA4TBglyQ/o477mgrL0JK5OeUU07JRhxxRFtvBqt55513tuWEAeQE8YjYWfURfb7lllssbp4AVF/XXXed+bHuyxFHHGEyECfylBdip/7ID3LUCWvXcNMBhFEWbkjoM3URlok6WX755bvOOvsVabNUsMhQUJ4g1YEDB5q+k9f55pvP/LmWm6DKCah3iJsF2iCrECwrfPLJJ9ta9NxAqQ9ujGuttZbVKXW2yy67ZGeccYaVgZsQNxp0iHbHwpYustIla+sQB/UA0fO0RXswnKZ1fsgDN16VhZsXNxf6KG3xyiuvmH9voxpiHwr0QGWOwYi9nkAIGiAFIVFw1/V57I5GAbFD4ljlEA2dm1UMU3U1D/SPRbkY2gnBcAtxY5ETN6s/8rQAEeG/9957mz9PCliDEB2WJmuvY+VCcqyfjhwdl2s++OADyz83Av6Rh7CRkUUM2bFyI3ninPXcKSvHa6yxht0kOWYp3hdeeMGInLiw/vGHHAFEC2EKbE6CFR8CwuaafP9VXTLMAgFDrgx1cAwgduqLVTEFyszNCMsaOfJFnlhbfrnllrN6Znhk0kknNXlIlrR5X8DKnBxjIHCD55ibADcoDBDOMRoAQ1taLZOhXMIgdxZvox0wFuAZ/Bn+EjhnCIuyUrfkQ0NXvYlUYg8N0Xoo6wcNWewp0x1RBlkJwInd0QwgATo3KFPi4REqM//NlL+764y9EyDRZtMJr+vuvLYDIHZNPoELxZMcy4HQKFa98C8niGPzMjqufCiGBIlPiSy++OJ2x3Vid/QlhB3F8Uuobrxfp0HEXoaQ2OuBeq+nn5UTOwlC7gKPhU7sjr6EfIdxgne0ilRir3SMvUpiJ7GQxHm540MxDoejP6NqYg9HRWLo9qEYLHb2gwyteIfD4egPEA/yolnEjl/MgcqJvZ6QwvTyVOf5f+DE7nA4HJ0QD6YSezglOQbJMRYfXpdHt4+xL7nkkj7G7nA4+jX6/FAMicXG2OtlwuFwOIZn+Bi7w1GAZowDXcMaKXy6z8dHfCxER+NYHanRuJvJSxH0MRIfEqmfNBJ/kWyVeXS0hu4g9npoiNjzY+wxOLE7qoC+WGQdED0BtjKcx+fqZ599dtdZJ/hMP/xykTT5unOkkUbK5p9/fvsiErAqJEsMzDrrrPbpPWu9MBYqHecrVW4c4403nn35CegDrJfCp/H4jz/++MOsmcKiYHzlOvbYY2f77ruv5UMdn69guYavPNdZZ53auOvRRx+d7bXXXtkiiyxiX3qy9o0WveKmMPfcc1s8fG1JWfkCkydmwnHkd+qpp7ZlA4ATf8+hKmJXm5XNdx+AIEqohpcS5B1hZCwvk0erxK7rQHgMOJfLQ376V54BaXOcz28snhD5uOTyCP3yckXHyovOgeooFgbCcx3nZfLIX5N3jUDyRdeFcabEnW8Pnau+BUiLT9shM9YLyV8HlHZRuhAva7wAZFTXECsrE7KyIrqK7vJZO5+4Q6xvv/22rcWy6qqrmjzX4icLm8/bWWuFDskTLQuKsfYLQCZcpZBz0mKJXJYhELSUAJ/Bs34Kn/BD5hhSrIPCjYbP0TfbbDP7fF+A5PFjoSuuD1ecZMVF8sNn+dx4AJ/1r7LKKnbs6FmkEDu6hR5Jj9HzmCNML09j4bi2GYqhQCz6w0puLNkagoWZ8GeBHxZFIm7SYLEjLBAescPFfrByBg0aZKvesdKbwJoaxIF/uDATVqHkWf5ToEMgTxhLiQKuoTzkiUf5lVde2fwBn1lPMcUU5r/JJpuYH5VM58SKwn/ZZZc1f8DiUqwjQhp0aLUDnZh48Gc9Ea3xQWenoxIP4WF7LLTQQhYXeSVeASsOKxR5VisE5Il1S7AYKYfKBo488kiLg+EK1i8RIEX8cVihAu9P8CMeiEbAYqQ+CROxAOpI7UneAHXKomDkkTyxGBd+OMpMPWAla1VErFTqfZxxxrF6VjvmEfpD0iyEFQJSZNVFCBpCxroV0FfKT1roDeu3CNQjREoY/xC9wPK/LBVrnasjLNRL1o5hIgGLaoV6oJUNaWfKiP4KtDHL5dI/8N9nn326QoYSO8sZcz11KLAWDfmiDrghEgcygurX0TOoeiimjE/bgtibVTA6TypSyyiEeVInwDVajpgfaCTvQj4unRelEUMz6eZBerhG6zSGevkJywVpQeZYyAcddJCtTimklAlrlVUYWYMGi5gnAG4yAnFws2cIhhsPxMjqobQ3QyUrrriiLUCF0cFStnoU5qYA8XMNS9RqcS46KNZxuPIgZK7lcO+66y678WHMsCYOy9lioZMPrG1u0sTJEBA3EHD66adbmMD65CyMBsgHeSQP1FNYNtZNh9TDNecdPYu2HmNvltixUqoggXaHyhwSUk+gp9MTqki3KA7IbOuttzZCgpRDaxRUcYMSivKgm/j2229fGwJJLXNMruzaeuGNxkf9EM5YPXXIk5VQlg9H9XBidzgCoEdORK3D67B30ePEDhHzWKk7fMwpTI+KXCOHfwgndofD4RgWqS9PNduqyImLxdlFvO0Wu8PhcHQzfCjG4XA4hjM4sTscDsdwhh4ndsZoQiLmv8gxxh7zlwN5YtcOSk7sDoejvwJi5/sUcaXGx0MHQmKXbN4BfaAEYuEDWKeCTWz5L3NsQss/n1rnw+T4Yo85xhxD8hA7U62c2B2O1kAfok+FHdrRN8Cm3+JFpvKGnBk6pvXG/OXEvYqryA1AOVCWFKQMxaB8IYkvtdRS2Y033ujE7khGnrA4l0XTLPRBEV8pM6/7lFNOsfMikizyD6E8FcngjyuTqwfmoV955ZV2zNexfJQUA3F7H2tfpA7FSE/LUMbZ3TLGHloVTuyOFISkx6JcLBXB8gLXXXedrZXCk9/7779v4c2S/EorrWQLaLHkAuQ+ZMiQrpDMlgxgPRmWWiAMx9ehWEgsB8GXoNtss00tjPVkbr/99tr5FltsYTrOjYPlIXbffXfz56tUcOutt9r5uuuua2XhmC9hAYTN+fHHH29LJHDMV68nn3yybdCw6KKL2rIBfDHLkg+Ar0snmGCC7NBDD82WXnppWzIB4tDyAnyhS1nI+/TTT197xG/m5uJoHRqKKUPqGHtZH+gxYi+7wzj6N1hfBet0ueWWMz2LERCPn6yJM8YYYxhRNgLe80B4rK2yww471NYMAsTF2jhA6ZKXe++919Z1EQED1nOhk/K4e/PNN9vNR4BoWZcHct54443ti1nSFNm+/vrrXZJZNnjw4Gzttde2YwiZxc0gblZsRFZLD0w44YR2cwMsZQCxs9ok6+QI5JmvY0mXBcUoi6xDFgaD5MMlGBw9jx4ndpQCYo91pDxE7PVkRewCxM6KdmUZ4RqWOf3d735nnZv/FMdCYIsttpitk9HIde5619Fu/LO2CUvqshBZaBDUA4+rWLdY8ltttZX51dMvFuKCLPNrpaCbEKmNSXaE33333ebP2kac33bbbTYMwjEWOthtt90sXQiTZX+x5AUIl0XFRKq6lv41++yzG/kCSJabwPrrr283CmS0kBhPEZzrJoCchmK4URxxxBHZe++9Z5b8448/bv5MauCaBx980OLhqUF5+Oijjyy/Tuy9i6qIXf2jzBgfgADKRWep55BjoaFYGJ0qTBCnjsaKeW6xO1LAS3aGQ9Zcc80aEUmvIGeGHLDWH3roIfNLAXoH8WlNc8WHfqKnvMgi7OGHH7Z+wOqhAKJ86qmnbGLBn//8Z9N9hkcgVZE18rj8zYjVH1kLnbjVD4iLOIiPPO266642TMO1OK7BES8EgOUNkGUhMfoZ5cAJPAnwVPHmm2/aOfEgJwLhWhzpqo/m8+roGZQRu9oO41m8WuTQEXSWm0AsHNcjQzEpFruj/yJGNhAsY+KQKP8hobWCImKDHHnyY4iGVRw/+eSTmiyWPOPmjPtDyHScRkA83ABYvpihG1aIbHQoKY9YOYrK5uh9VD0UA8fWgxO7o+0QEhTH0p3u1qF8/HmirJI4FRf/VcbraE9UTexlnF05saOkYQfh8fmWW27pOnM4HI7+h7Ymdr2QqYeYxc7sAYfD4eivyBO7ntRCByojdqxrBuIhY4TrOV7CIMcYo/xCEgeKR368PHWL3eFw9GeUETs8jONdjLi1yMGxenEaC8d1i8VOfE7sDofD0QmIPeTPPLGLL9t6KMaJ3eFwOIaCbwlS+NOJ3eFwOPoIIPY+PSvGid3RjshPZexLCB/V9e/oW6jaYodn62EAA/C8PIWM6zki4uVp3p/rQ2VzYne0ijx5NUtqofyrr75qa6bMOuus2dFHH21rwPDx01prrTWMvgq6EYQ3BMnEOpXCYjcQhfGfj5e0QSgj8MHUOeecY8csl3HPPffYMUsTkH+AfHgNUNyhv+RC5+g5lBE77YFe8SGeuLXIibPrvjwlQg7U0Gr0vANkrChMcGJ3VIFHH33U1mGBfPnq86WXXuoKSYd08LHHHrN4WEtFIAwCfOCBB2wFR7Dpppua3FhjjWX/d955p/mfdNJJteV+uTkQzoJcnONYmAxcffXVtjgX67iMOuqoFnbttddaGMsLTDTRRBZGJx977LFtjRrAujfIshIj/+eee675Q+ynn3663XyU1jXXXGMLmYnYTzvtNPMfc8wx7Z8VKAFrxHA+99xz166db775LExld/QcmrHYaaeYA+LYIudDMY62ASsiMntARASJ4nSOgxBPPPFEk5eOlYElAQYOHFhb10XXhdezDK4WFAN0QsiSm8IJJ5xgi8wJrOB4/vnn2zGW04gjjmhLCrNCJUSqNEiPBc7eeOMNy3u4TDA3FG4QyLEQ2cQTT2xL/z777LNdElm24IILGrEDliJgGWHkySfE/sQTT9jqjyFmmWUWu+mwJANpaikGNsDhnCWLndR7HlUPxZRxdrcQO06dZskllyz9QAlZ4saiGX/88W2FPHfDv2NpXEgRwomRuFzon5fBypUOSedi4DqMjBCsd44/KzUecsghtrqo8NZbb1n8EONRRx1lq1EKDOdgOQM6IjcjFuqC2AcNGmT+gPVniAPLnHxecMEFXSFZduCBBxqh80JNy/cCFgnTNQsvvHB21llnmf9UU01lNwOw9dZbZ1tuuaU9xUAYkLVAXthEhFUeiUd1onhDWUfPgXbq0ZenNDxEnAIskBSEFjtLCrBWTGoajv4JlqDFCIB8cBBunsTlVlttNVtlsVFAhAx7sKgYC3Jh8YZghUcW+WIRsDPOOKNmoLA2uoZlAASt1RcZ57zkkktsqOXSSy81K/vss8/OVl11VbPqiUMWMueQ+HrrrZfdd9995kf8WPu77LKLfaV92GGH1VaYZNlgVrUEpLfPPvvY+SOPPGJPEoDrDzjgAMvzHnvsYTcE0sM6DHeJwnDiPMVqdFQH8WB+HnsRUo1s9K4eBnAXQRlIlOOYYy1q/lm2NPTnGsKwaiB9lId//HA8pmIl+Z6njkZAZzjooIOGIXOGQ/IrPDY7pKDOFkJ+Rf8pYE15rHAhNX8paeRlYtf4EEv7Qe0EsTP5BI7EiW91Lj/e99TjYhzhGBKxMLlfvDytByIEZbLEJyWD2H09dofD0Z8BsUO4cCcOfhTvyoGyoZhQLrwuj8rH2EkovFH4sr0Oh6O/Y+SRRzZiF4pIuWyIRRCxF6HbX546sTscjv6O/MtTJ3aHw+Ho40i12FO5uGzIxsbYuUtAvBzzHzplgGNeiMbCQ0Dq4VCMj7E7HI7+Do2xC+LVvGPCiY7zXCtHmDhb5/ljs9hTSTfVYndidzgcjqFIIXZQZokLZZZ9twzFOLE7HA7HUKSOsTuxOxwORx/BcEPsgoidcR+Hw+Hoj+hVYldieacwvvwLz2MO6AUAWGqZ32Xnn3dh9sH7H2bvvfdB9v5779vn4Dg+pcbpvJ5rRLbMNZpuzD/vyuQUnv8vcqlyOGRS5FjPJOafd2HaRfEqrJ4MLi9TJIv/Bx98EA3Lu3ycRa5MRmGSqycrlyqTIofrjvhSZXGtph/614srVS7vymQJT4kvVQ4n2SL5mH+RLOsQffDBR9kII/zaJp+IF0POlAMi9lh46Hh5GvOXa8hiz3/SXYQwvp9+6kio67gnQKHaGanzVHsTqfrQW2j3NgbtXoeg3Z+iU63X3gL1l9rOqTrbiMVeL04j9lSySRmKAfn4ijKgu04IzkJ1U3hZgZFjGCilYmiQ1DH/1LpJbRCWZSDtsk6VGh/x1GvgEKkdObWdU+swNd2YPuRBOPkjbckWXUG4XB55v5SycE1qmbHOUpBSZpCqD+QvJY+0CU/WZQjruQwpfSW1DpFL7SupeUQmRS4lTZVDoxj5eDmrxdBx8mPFPNIWxF6EsswBhafESWP0FrGnyjHOlqI43UHsVbdzqrVSVlaB/KXoA51JnRlpc5HrSDdMG4mfI9FzbYo+IJdaZq2rVIaUPgC6g9h7o680Utf0lZT6Id1UHUuRQyZVLvUGnqo3/YbYhZQ4qWgn9mKkKldqO6eirKxCij4QHiP2GEg3TLtIlnhSySZVb3qT2FPqG5mUOBspc0ofaKSu25nYyROukSezFFRG7AQqUWU27xSGsvJPocPw0AHii4WFDihzZU7KWi9dwoiv7PEylM3HIRemE34JVs+VlUWQspIGiMniUuoQR92ofmLhoSuLkzhwLAkaC8+71HZGWWNheUd8ZeUgnDpEtpMg4nI4wvkvizM1jyClnfknj6AsbelCLCx0jcip3EWOeJDhBh4LDx1yZWWWU9+LhYWuLH+APMI3KnceoTxtl1I30plYWOhSygxIk3ZW2iAvJ5dah6l9pSy+hl6eNmqxk0A9qJLLgAyy9YAM5UjJo2RTkHoHLcsfIF0UAdmYsoZQHZaBcqSmXVZmZMhXuz5eAsIbGXtNRVkela/UOFMtduIrKzNoRK4sj8RD3aW0C3Kp7ZwyZg9SyoEMT2akndJXUuJMiQtQfyllJi7dwEk/5oSyNhGq6ivdSuxlSFVWZFKUlXKkEnt3VHQKuoPYU5SVMpfFiQxxVU3sjZSFPNQD4SL2MlnKklI3oJE8piCV2FPTTdXDFN0CyPWWEZQSH+mmEnvqDYUy48qQWmbyJWIvQ0q6oDJib0ShUyqQxFLiTJUDqXIoQgrKKkVIlaOBy+QUzi5UZUA2RbFA1XVIG0u5UspUJkPdVNWZlNZXX31l/2Vpp9ZhajtThylyxJfSQVPKDFLrEKQSQ2/2FVw9KB52E6oH5HCpZa66r3DzTpFNKTNIbWfKXE9vnNTroDsU1Uk9jpQyKy0n9WI4qRej6r7ipJ5DqhxIlXNSL0aqnJN6MajDFDnic1KPo5G+0luknqr/kHpK2illBqntTL7q6c1wReqpY5m9qahO6nGklFlppZJ6KhGmtjN1mCJHfCmdPaXMILUOQSrB9YW+4qQeB/mqpzdO6nXQiKKWySl8eCF1wuTqoSpFBUrLSb0YqQSX2lcaKXOKHOUoIzjF46QeB/mqpzcDUogakGBvkXqK4oPvvvuu66g+UhWwSkVV+Lfffmv/RVB6Vecxta6ZFZGiqJQ5JV3KjSuTRaYsj4pDpF6GsjYRUvWL/KW2yb///e+us2IQV0ralCOV1FPbOXWWUyphUo6U+k7RV4WnkDpIKTOyqXWTKgepV9l+yJXVDUCmXroDaDQSRCjmFIYc43DKYF4udIozJhf6IUd8YbhcXq4sTQrKBzQcx9LWOXLEF/rFHGHcxGJhcroeJcj7xRxpQ0j8x+TkR52QR+KtF59ceF3e4U96lIX/8LrQEQfytDGynNdLO2yTmFzoV6++wzgoL3nguMiBL774wsqi8sUcsqo/XCycf+II27lIFldPD8P4SLfKvkJ8ZXUop7bLy4SOusMA4ljX5WXwI/9KV36hjPxwYbpFcnm/vJMMaQLdvMlH6MJrOJdul6URliXmuD6MLyaDkxw3RpU7lnbeL0WOts77yYXX19MbI3VAIYqgDpQ6V52I60HxlckJKfEB7pz1ygEIJz7SLwMyZfEB4kMuJpv3S7HUiU9x1gPhKIGOixxIrcNUSz2MuwiSQfHqyaqe5YqgMNVhkaz8y8oskL+Utqauy2QAcmqXeiCulDwil6KvoKw/yz+1LxMf1xTFBwgTuZSBeikri9LSUKXSD538QSMvfVMQ1qHSiIF56mXtrDjK9EsyZX0FIFevLMlj6kSU8kgJUhU1Ne3UxkgdJ6QsuDKkyIDU/IFGSL0MUoQUlMUnRUol9RQQJw5FrQfJyRVBYTyRgSJZ+ZelK4jUy4C+1sufgFyqTqSkS5qp7Zzado2Sej0Qjkspc2odgtShyu4idVAvr/BNCocRR0r7IZOis8jVK0tDpM6jRgpSMkZBU9NOlUttXMqSUsmpypeqLKBMUQHxpdZhI8SVAjp7ajuXQfVXVtdhPafUuUi9DCltDKibFNlUQkptP5CqhynpgtS+kmqgpZA6QCalH6TWIWgHUq+H3iL1svgqn/0CUiqPjKWmnSo3PFjqgPiqaNwQjSh0VaQOyGNKWShHah77AqmnliUl3UbaOZWQ3FIvRliH9fLam5Z6vfic1OsgRQakKgtod1KnrnuD1JFLzaOTejGc1IuR2iZO6hGkVB4FTU07Vc5JvRipeaSundTjoG7IZxkoR2pZUtJtpJ2d1IuR2ibDknpxvfcbUlfjWnXz0+G6/oYBcqlpp8pVTeqpypeqLCCF1GnYqkk9JT6Q2s6pSM2j9CYFqaSeWuaffkIfytv6hx+YmdB1UgeUI7UsqXWTqoupfSV1TJ34UtJObb+Um4TQW6T+w3+G1mFPkjr6miKHTD25brPU882W714UNDXtVDm31IuRmsdG2jkF5DG1LKl5VB1yTT2k1g0bp4vU+S2K9YcfmJbWdVIHqe0HUvLYSDu7pV6M8vwRX0c5/tMhl5DF3iL1svhq89TLQIKpX8mRYGrmUpAql6qoKXkDqXKp+QOpN56qkZpHytxIeXoDqV9DpiK1uKlyqfrfHUi9MabeuKsuRyO6lfpElvrUkVqWn3/oqMOOpzdQL7+ppJ6qD8ik1A8y9eIbQIUgAGnXc5A/d0RlMCYjJ0vlq6++zQYPPi47/ujB2bFHHZsdfdTR2dFHd7pjjjkmO+qoo2rnoTuqQ/aoo44JzoeVO6YjnsHEeeTQOInv0EMPzckd25Hu4I7jwRan/IvSzbsjjzwy6p93yBFnkZPc4MGDs4MPPrhW9jAsdPgrTp2HLpQ94ogjojKhIzxflpgMjvhS4sTpmnoOOcobC2vGEddBBx1kdRkLlwvruMghx/8xYV13+YVOcR5FvQTneUeaxxxzXHbkEdQ3cR3VpX9xeeKmrvP1k09fLgyPyeF3+OGH1+LLh8sRdsghh9h/mUvtAzjFXc8hky9vURjtfOyxQ/ttXkZ5O+yww+rKcYwr0mv8kD3m6GM7eOW47NiO884vboflMzlxIDLcHMOwmON6yD8WFjrk8mnFXFl8tvaLmL+eIxJIHdl68mHkb731bvarX42YbbThRtkG62+QbbRRx/8GG1TmNtxww2HO119//WHO282RX+WZf+pDfqHLX1fmUq9Jjb/ZfPSUq7oMG3a4jUpkN+pwZXKkt9FGG3ccSwZ9T8tDT7uUvtJIf2qkvstcZz1ulK233np146w8Tdpr/Q2zcccdLxs0aFAHYXcQ589xroMD4UN4sYw/xYexsNA1IgexF6VrY+oclIFIUodfcOD999/PRhppJDt2OByOvoDpp58hW2H5/8umnHKq7McOfiwCywSIXOtBZFsPImgIOyW+eukaqZdFAogkZRyOuBRft5F6eXYdjmGQouMOB5hu+umyv7z5Vrb33ntnM844oxmzMf1hTB1eLAPXphjOIvUylMXXN0nd4XA4uglTTTFF9tJLL9nxJptsks0666xG7CJS8ds//tFpqZeB66ok9bL4nNQdDocjwFSTd5D6Cy/UeGyFFVbIpp12WiP2kMT/8Y9/dpy3TsKCk7rD4XB0A6YZNCh7/vnnu846seuuu2aTTz65caAI9R//+HcHCaeRdT0SFpBxUnc4HI6KMWjQFNmzzz3TdTYU++9/YDb99DPa9zB8rPb9P77P/vPjD9lPcF6XTAyppA6hp8j1Oqn/+te/tmOHw+FoZ4i3pphysuy55562Y0FhTFNljB0u/P4f/8j+/UP5x5upZJ0qR156ldRHHHFEO3b0DvJtG7ZPPZTJpMRRhFaurYcw3irTKIu3LK1W8lJlORz1obqeaqqpfjH8QtiPP3YS6XIrrJDNONNM2TfffNtBxNXNfqmM1PlSFIEyB/mHn+HHZOQEJ/XeBY3PBxIrrriifcmqJSG4OW+11VbZ9ttvb1uGPfPMM9maa66Zrb322tljjz1mMuC8887L1l13XfNnX9B33nknW2eddbIzzjijS6IYt99+e7bWWmvVPu4gnh133HGY+EOoQ6E/LAOw1FJLWfplQFbbnlEuxj532GEH01XF2Sq+/PJLKwP1EL4o4wvmrbfeunTDc/KBDHUY9o8iUB71tQ8++MDS/cMf/mDnju6D9CVP6vjndWmHHXfKJpt88uxf/2ZtnC7PCCBquZAj804y6FeKLHKxMFxt4+kyB6mHX5TGZOSIGEDqI4wwgh07eg5SQNqBzXsHDBiQzTvvvDVC4i3+hBNOaC9+Pv744+zmm282GdxCCy1kMmCxxRbLfvWrX5n/22+/nT377LP2jgSSKcPJJ59s14033njWSXBKg/TqgTwhx42nDAsuuGA22mij2Q2HecNLLLGElQESlR62CogVPSZPfJIuLLnkktkkk0ySffLJJ10+cXCzWWSRRez68KYQA/0MuYUXXtjy/+abb2bTTTed3ag4z5OLUOTvSIfqkH7x3HPP2XE97Lnv/tmgaafJ/tlxA/4BHu1oW9ovdOJEkXWRIzx0MRm5MplKh1+IBxeSulvqPQ+1J/8i9fnmm8+UDHBznnjiiX9B6rTVyCOPPIzMKKOMYmFvvfVW9uc//9nCsdbLIFI//fTT7SaC8bD77rub3zzzzNMllWWXX365WcG77babKSR5/uyzz0xuiy226JLKsltvvdWs/X333Tf78MMPzQ+ynX322bOxxhoru+6660xHKcuf/vSnWln56m+XXXaxz8C5VrpJfq699trs9ddfzx566CF7Urn++ustDEiO/JAOdUOeuIGIxJdbbrlsookmsvwCrtl5551tbjP/AnOeIWlukDwVAWTPOeecbPXVV8+OP/54yyd4+umn7QZCe3ETxf/iiy/OhgwZYuHgjTfesM/oqY+LLrqoyzezfFGmTz/91OofGdKmDNKJdka75DE2/BKCfP7clddNN9/cdPDfHfpUlH/aOqVsyNEHykBc9eSc1Idj0BY88kNGWK8QGX4i7Mkmm8xInaESZBZffHEjno8++sgsc6xyriPsr3/9a/bUU08lk/oJJ5xg11122WVdPln26KOPmh/WNFhllVXsfIwxxrD/8ccf3whbpM7QBmDoiPMxxxzT/tEpLFjyQX5lRVNW1uyYcsopbdlWyjbuuONa2DjjjGP/00wzjVn0DHFwrmt182JBLOmvQH2QJk83yDDEA373u99ZWuSXmydpEz722GPbP9fQv2aZZRY7pz755yniN7/5jR2TL/Iw+uijW76Ig+twtJGeWrhRgLvuuqsWNzczjnmioV25mSmMf5XtySefTCYWRyepv/DCC11nxfixi1jR59nnnCP7bxeX5utZxkoZGiF1+LgITurDMWgLkTqWosbUReqTTjrpMJb6TjvtZMSKRX7qqacaGUFghL333ntJlrp06cQTT7Tr5p577mzllVfOVl11VbuW+BkqYWwd0mEIA0v+wgsvNHnG4UW4InWOGWZBr/QEwKp8lAdyVJ45n3766Y0Y0VcsWWS5KUC822yzjZ2Tfz3BMDuLDnzPPffYOU8vIOwT5Bc95kbFtchBzEsvvbQRADcQnjTw32uvvSwtLHXOyQP9Ztlll7U4Pv/8c+sXhHE9oN455+b6zTff2I2KeiGP3LwI27zDIqT8U089tT0t3HHHHdYmzMQg/M477zSrneO55prL0thzzz3tfMstt7R02h1hnfcmUkg9n9fNNtvM2kbcF4Y7qTsqA20hUmfIIxySgAghdazQK6+80ggXxYRMGBaYYoopjFQPPPBAu/7dd9+tkTpEBWJ6Iz+GFLgOkoTYeUSFxLGcIb3zzz/fwjmfeeaZbY0NzueYYw676XCsMXV076yzzrLxefxxkDr47W9/a/7cnLB06VjcsAByWMACwxZY5NQFLyIJZyVCOhIOgic/eUDq5F2EzU1jhhlmsC8NqSde1i666KIWnzob+cGSZiwdYNUTh8KJh+Vv9fSBu+2226z+yCOEz7FInZsJRMPxAgssYHGAq666yvxYQpYhKI5pP3Dvvffaeb32cgyF6gdSTxlTF0TEDO9hVKCHAlxIvCl176TuKAXtAIHTsSFNAWtwggkmMOXFGrzmmmtsaAASx8Kcc845jdxYz5o1qLme4RgNv4gkQkiH1PYafrnkkkvsHGBt43fBBRfYODHHED5rWR933HHm/vjHP1r+CGO2DHoHMWOdnnLKKTYLBEuW+EGe1OlUnAPiGDhwoB0DxpeJa/7556+R+qabbmphPC2MOuqotWsFygWpkyYkDOi8nOMYPuFahq6ITx2adxCkDdkDxt+pY+pHRM21PKEQH+cidepYpP6Xv/zFwtZYY43s1VdftWPyLzC8hR91p+EXjbNrqMZJPQ2qH4bU9O6jDLpGer/tttvaE+5/OnQCEE5YSt0j56TuqAu1q8ZyIcKXX37ZyJpzHtNpK5E6wxNXX321heGeeOIJm+3BMaTOSzwIB6JCDkLBXXrppbWhHaUJUXMdBC5gXePHEArjvBxDUAxfEB8vM/fZZ58aqdNBRGR68ahxeBEs45kQMfGRB8bMeTqgXJAZsjxtMOyx8cYb2zlWr4Z4ROqQPBYyTzB58D4BK5u8CRqr5+bIkwUvYznfb7/9zApntgrnIlSses4pK/XF8ZlnnmlhlIHzW265xeqPtqCO2fmHmwNhjKkTxpMI+bzpppusf/GUQzgvknni4pgbBbJ33323nTupN4ZGLXUgzgO055wdT5w//tjJrT93EPXQui9ugx4ndRJrhtTpDI7eBR2ezp13zPoAGgqBVEWiEAvQmPprr71mlrquzTueCNAR6ZIs/LPPPtvOAVY4ftxMAOPsYRw4Zh1AihxDwoAbCefMNMFi55iZHQALWNdC3Lz8hdR5AuGlK9a3wnG87ESPkeWc6ZnkWZa7hmtUDv4ZtiGMsW9B7yHID0Nc3Ij0MjZ06qRhPkXUOL18xXFjADonPvoQxwyNAb3UDp3ecWgoRnXOTBjOuRH2BajOexsMr6W8KI1B3EdfmnqaqbP//fxDh2cHAf8PPYAfh5J/HpWROtYNkSFYz0H+KH4sTE6ZIkHOndTbBxrHZqybj3ogIYGpcLy4ZOoebfjwww/XHj8h8/vvv9+GGBg7Rg73wAMP2E3hwQcftMd8WepSaqxbwiFPgTiw/okP/QCM0zOkgtWKfgH0hzhfeeUVO+elJETFlEOu45r77rvP5NC3Rx55xJ4IyAPxY7XrBoMVzVAPTylMn1T+0GdejvLkIuha5U0gDsrJMEwI6ujxxx+vlZ38ULfUMU8eMoJIk2Nebmq6JU8+TPe887bbsh/+8197CqLeAdb8jTfeaNY4dUZZw3zyHoShKBxDNgIfSVG3vEAFtBf54yaSL5OjGFjq9aY0lkF1vdtuu3Y8WQ3K/v0vVnPsMJ7RvY4wwmMOPRF31nPotozxmBuQcmcACJdZ6nlA6ow7OnoXtF1Potn0ejqf7YNqyp2vP93AHI2BIS6+C+Bm3qjDMMFxDNZdfwObofQPzhP0O7UP1JMbwN2dsTsstyKH5cDjLNYex7iYXOiIk5c8vqCXw+HoS2CojG8neNHdtBt9dItjzDHHysYce5xs+x13yv7V8dQlbszzZejKwnkfhCvi4QGpd3Pk9JiZAuSx1DU263A4csDYksGVZqA5egAMeTG8wVAIPNaMsyGSjuvBCSecnG2xeefX0WWWeCWWOhlPAZlMGX4hMTnG9njJ5XA4HP0VTBDg4zFQj4wJ44ZQhjK5Sqc0AuKSc1J3OBz9HamkLgu/DHoaKIKTusPhcHQjIHVNSXVSdzgcjj4OJ3WHw+EYjtAnST0kciVI5vgARbNfUtJwOByO4Q1O6g6HwzEcoTtIHT4ugn1RWo/1BeSYvxmDk7rD4XDEkUrq4s8yIFeP/Gt7lML8RY6EkGNZURG2/HEkIic/J3WHw+FII3X4Eo5N4WNGV5CLheF8+MXhcDi6EY1Y6vBmGcrkuo3UcU7qDoejvyOF1PGHqFNIXfxaBJ/S6HA4HN2I7nhRWi8eJ3WHw+HoRjipOxwOx3AEJ3WHw+EYjuCk7nB0E1L0vB3RV/Pt6ERI6hByEdqK1LlejgSVOZ/94mgVdIGqNIc9O7fddtvs3HPPtfN6HaxqsFeoNpYugvqI/tncms2jHX0bZ511VrbpppvaMTwqrgwdqIzUlUgZROoxWWUM56TuaFew6TO7608++eRG8D2hk0qDjbHnnXdeO45BN5iFFlrINuIGRx99dLb33nvbscIdfQ8hqYu0xZdyQLxZBuR0TQwDIGqs9TLHZqp0BMidc/7JQD5zJKjMOak7msWdt9+R/YdlKbrUphX90bUrrLBCNvfcc2cjjjjiL3aLZ1/Ia665JrvnnntMtwU2EL7++uuzW2+9dZjtHNHxhx56KDvnnHOyDz74wNJQf6BPXX311WZlc738vv/++66rO58abrvttuy+++7r8smy7777LptrrrmMzAlHnn6n/H/++ef2lHHvvfeaH468vvrqqxb+5z//2ax7yfOfQhKO7kUZqQP80S+WYuE/z7/iXB2jT0VyNvySAuSIKIYwg07qjiqwzjrrZCOMMEJ29FFHdRDjv7p80aOugwbBEhdY6W+99Va21FJLZWuuuWZXSOfQCO9+xh57bNNXiJUO9PLLL9vG6WONNVY22mijZRNOOGHNmOEGQXwTTDCB/Z900kmm42z8Szyjjz66XTPxxBMbWZ955pnZKKOMYuk98MADds2YY46ZjTrqqNm4446bsQH8TjvtZGXGnXDCCdkee+yR7bvvvnYNNxyuQZb/BRdc0PJC3MjPMsssdrMibIEFFrA+6GgPpFjqOMIUXg/I6JoYksbUCUcOqyEGJYBDmfgnYV6UOqk7mgVEt+OOOxpRHXDAwUkKXwQs6tlnn712DBHKSNlggw2y2WabzY7B8ssvb9b3WmutlW244YZdvpmdQ/T7779/Nv7449fy8+CDD1oesaxXXHHFbJVVVjF/MOWUU2YHHnhgdt5559VInSEWDasA4uKmAFZdddXs/PPPt2NIfbvttrOnCG4sehcAZphhBss3Fj1pn3zyyeb/6aef2vlLL71k547eR6Nj6jovgji2SK7S2S+yDpTo+++/b5YOSMmow5HHf/7z3+zv3/8j22KrLY2sDjrokOzrr/7WFdphtXS4nwsUPPSbfvrpjaBvuOGG7JJLLrG4brnlFgs744wz7HyKKabILr30UruZAGTxn2666exG8MUXX5j/Msssky2++OJ2DOhDWNw8BSDPEI5AHnhM5vpwJtgTTzyRHXPMMdnMM89s1xzV8UQCuKEgC/bZZ59siy22yF588cVsjDHGsEdz9RNuHPPNN5/FzfXvvPOO+UMKnIfDS2V9z9G9YPaL9iitx3OEpRgutCd8XIRuIXXiw4WkXoZWrDBH/8CPP/2YrbXmWtl4445rZCf8D737uViHH3300exXv/pVttxyyxkhL7vsskbUK620UpdEZsR5+OGH28tMSJHxafDGG29khx12WLbwwgub/yOPPGLXYyUDdTD0/LPPPjMZ0gsB8Z599tk1S33JJZfMBg4caBb/HXfckY033njZcccdZ2HkUaROOGRA3iaddFIbQhJWX311s/h5eibNTz75xPzJj5N6e6HqeerSuSK0Damj1AzV4LBodOyufzt0YfTRRjdCxI3ZYbGO2uEPcZl13EG6BlS4QI0Z6mCMOwRkShwMXzBkEhIxVjhEvs0229SseYB1zDAJj9JY2MJzzz1n49no/CSTTJIdcMABXSGZWdNHHHFEdtFFF1l+AeneeeeddkyfwgpnDB1gqSMLyPfWW29tQyr0I9IRGEpabbXVbGiG+D766CPzd0u9/dBvSR2LgzT0Rpd/d/3XoQM/dynuP/71T/v/6quvslU7iBXSOvSggztnxwjocESN9YKUWSEhmJWC/2mnnWZj1xzvtdde2VZbbWXHDGcce+yxdmPZdddds9122838mWki6xhi5eUmx3vuuafF+8orr9g5L2PnmWces8gZa9cQD+BFKi9Y99tvP4sfmZlmmsk6NDcYwi+++OJaumD99de36yF5XoTK6idu/Hl/Rf+j3jh/5plnLByk9G9H96FPk7oyxH+e1F2xHA2jS2WYyvfbDpKErA4+6KAOMu/Sw7xOcZrzgvRuv/12G49GB0M95GXiY489Zsd33XWXjWtjMb/99tvmB5jKyBTDE0880WZzCcw6YT754MGDbYphiNdff91mu/DCU33m448/zu6//347xo8hFq4lzq+//tpInz7G8YUXXpi9+eab9lKWcXqBp4sjjzwyO/300+2mBCCCm266qdbJKR/vArShjQwtR+9huCB1MkecjVjqDgeQLv7vfz9nX3z5pY1fjz/eeNnuu+9uFnxPoTvJsF5/S+mLQiOyjt5DKqkTlqJ3yNUjfyP1FJBY6vCLbhQhqafcgRwO6dCuu+5kusOn9bJKHY6+iO4g9Xrx2B6lZQ6S5vGVR1mOcTE5HIgNvzipO1IgZb377rvsJaZQT4kdjnZGCqkzEgJ/6ovSeg4ZDGxcLNzWfkkBpJxqqTupOxwORycaGVNPsdRBZWPq3CHqQRniP0/qqZl1OByO4QmNvigt42PkKiP1VEud+PKk7nA4HP0RkLq+KE0h9TIQh5O6w+Fw9BJCS70eUkkdOXFtDE7qDofD0Y0ILfV6cFJ3OByOPgAndYfD4RiO0LakTmJlpK54SNBJ3eFwOLqH1OvJJZM6EZWRuoBV76TucDgcnZtklE1pxB9XzwIPAccWYQArzvEVEuRe5IiAOeosEsQxfvWuIU4ndYfD4fjlzkd5h9UtPi3jYjn4mGtjYUmkjsNKD5cJkMtfyzlrdXDHcVJ3OBz9HXlSL+JNHDybD8s7wiH1WBiukmUC8o8MnLul7nA4HOnz1OHMFD4uk7Mx9RQ0MqbupO5oFuhNd6Je/N2RdneXx9H+qPpFKTpVSuopikckmP1lUIL8O6k7moH0McVqaRTEnX+yxE9ptoqiTlmURlXpOtoXbT1PvRlSZ7suh6MRhHpWT3lTgS7ylHn33XfbmCOIxYsfuyyxuXSzIC0cuyqxi5HDMVyQuuJ0Unc0A3bPn3zyybPHH3+8y6d1oItsh8c2cdL3UO91fPnll2ezzTabHZchFg+gr7Ax9RVXXGEvtNjHNNwI2tG/0B2knte5EE7qjrbDa6+9lo088sjZ9NNPn00xxRTZPffc0xXySwJNBfuOQurh/qNCGOe1116bzTfffHYs/3ppEhZaTXpKZVaZ/EcdddTsiSeesGMhjDMWv54o8tB7rXznr2e5OXoXTuqOfg925J9lllns+M477zTLGULOE2MjeOeddywONnN+8MEHs3HGGcd25scPd9JJJ5ncjTfemE0zzTTZXHPNZf7IPfrooxYGtthii9o1mqZGJ5tooomyvffeOxthhBFsI+pFFlnEnjhmnHFGu0Eh/+c//9k2rJ5yyimz0UYbzWRXXXXVGiFPMMEE2W677Wayo48++jBPDNdff3024ogjWtj444+fvfHGG+bPhtb4kwbXaBNs+l9Kv3Z0P5zUHf0eL7zwQjbDDDN0nXWCYRHIcJ555smuu+66Lt90iNT/8pe/GKlzvNRSS9kY+iGHHJL96le/MuuanfgJg6AZOlluueWyJZdc0uI48MADjVAZFoKgxxtvvGzPPfe0sEUXXdRIGplPP/3UrH12///oo4+yMcYYI7v11lutT2y44YbZ/PPPb+Pt5AVy1zATNxBuAu+++2521VVX2SQD0mHIiLj/8Ic/WIfmRjDnnHNmX331VTbWWGNlO+64o6W53377Wd5J09E+SCF1dKMRUq8nZ/PUibDICcih5EJMVq4ZUv/www/NEkPBhwwZ4q4fOtqf/6uvvtosZYAChxAhzz777NlDDz1kyo2ulUGkzvALOsYxX0hzLeQIab733nvZlVdeacM+gDBemuoGM8kkk2SXXXaZ6TXuggsuyKabbjoLm2mmmbJLL73UjgGkjtVPGmOPPbblG3z55Zf2ER/X33///WZhM+QDsLSfeeYZOwYMPT388MPZ6aefns0xxxw1Cw3jinxw06Ac3Jj++te/Zt9880028cQTZzfddFNXDI52QCOkrjau59B56X3M2cbTEHY9RwSM5fGlKMcxGZwy1AypX3TRRdlCCy2ULbzwwvbo6q5/OtofQl988cW7NOOXuOuuu4zMIF/G3wV0rggi9VdffTV78skn7RidBQyJYKlj7fJEgCUtPPbYY0auyKLLU089td1QIHGeGjbaaCOTg3QhYAFS/9Of/mR9BmtaM2qIn7Sx+Nddd12z4iF/AKkzrEIfA9wwuAFtv/322XrrrWd+IfhSkaEX8jPttNNanqg33SQc7YEUUqfN4WK4Exfyqpy4l3DJ5mVwycMvSrQMzZK6wyG89dZbNesYPZLDikafGHoILdoUiNQZyuCJgGN0mnj//ve/2/knn3xiacw777x2DWE8DZAXjrG4GUYRyKde4kKsWN4A2QUWWMCGiSB1hmkY67YO15FO+OJ3wgkntPFywAtV4tTTCWP7WPjnnHOO3TSE5557zgj8lltusfhCcINgnJ08AP07eg+NjKmr7euBNtWNPwYfU3e0HXhRytiyANEyno71C8k2A3QRAiRuxqlF6uBvf/ubnX/22Wc2li1SB1jfusEwzs4LUfKA5T1w4MBsn332sTCeLkJSX3DBBc1SZ/gF4t5hhx2s/2CN77777jbuTUcn3WOPPdauG2WUUYzUBSx10mdYiDDGzHnK4Aay3XbbZd9++63dMHbddVeT2XnnnS0+hmPqdXpHz6I7SL2eXLeTun9R6mgUzFCBWBlmYbiDoYqnnnqqK7RTxxoFhI0uopPMGWfsWR0Da5qbBjJYvyuttJL5A24AWMUCc84ZqsFB8oChSfLLTB1hmWWWyR544AE7hoyRf/bZZ61MzHIhL3vssUd2wgkn2BAMTwsM8zA2rnwxpAKJA/JBPRAPL3jpj9QDQ0bcKPAfNGhQbVaMo31QNakjU5mlnrL2C3FJ4ZzUHc2AcXIszqmmmmqYceoiNEPyPYXUvDVThqJr8G/nOulvaITUU56wkKvXvk7qjrbDBx98YJ/0C8PLUEK+n6X0O0ffh5O6w+FwDEdwUnc4HI7hCD1O6rz8RKCM2CHq2MdHeeDnpO5wOBydSCF1+FKkHuPVEMjVI3b7olRCRU5Erb1H8+EhJMu/k7rD4ejvSCV1CD2Fj8vkBjCkggCC9RwWPXNuuUgZkAvhpO5wOBxDkULq8Cq8mcLFyDBsHgvD1dZ+KQNyPqbucDgcjaE7xtTryfmLUofD4ehGpJI6nJnCxRotKYKTusPhcHQjGrHU25bUFaeTusPh6O9ohNRxZXBSdzgcjl6Ek7rD4XAMR3BSdzgcjuEIVb8oLZNzUnc4HI5uRK9Z6nkH9A+QS10mwEnd0VcQ0+FG0Or1juEfjZJ6qFMc5x1z1EX+nOf/a3uUQsSh04U4jsMvSkOnyATOndQdfQXoKXrcLPL6D1qJD4RxxvpYq6A/Vx2nEJa9u9JIQW+mnUcKqcPB4mK5kI9D/zAsf4wbUO/LJIEKQpi1X/LIVx7nJMC/k7qjGbz77rvZaaed1nVWDdhRaLfddrNt5dgKjs2c2bkoZROOemDnoYMPPtiIkp2OzjjjDPNvlFSQZ3iTvgPYPJpdkRqB0ixKG8JltyWFq+//4Q9/qO2bmpJvZOrJHXLIIdnrr7/edTYsUuIPkSqfl4Ovvv/++66z3oWPqTv6NdAbCIGdj9jf9rLLLjPdC9GMJcy+osS5yy67ZHvttZe55ZZbzvwOOuggk4n1A/zy/uH5iy++aNvTATaI3nPPPe04j1jcgsIWX3zx7IILLrDjww8/vJAI6uUnlo7I+7zzzqv1R+pU9cj+qsccc4wdg3rxg7L0xhlnnOS9ZHW98pI3MslnLI08kAn1gn1fV1555a6zeD57Cq0Mv8RQJuOk7mgroDdsDs3myk8//bTtD8oGzKeffnqXRHNgN38IPHwvBIibzq8+8M0332QXXXRRdvnll9t5CIgKS5wd+wHXvPrqq9mkk05qOs+Gz+zahP+jjz6aPfjgg7YZ9e233277lyqNt99+O7vwwgvthiUS40Y255xzZttuu2329ddfZ3/5y19sc2rh8ccfz84++2wjZsB1dG7lkw2zL730UnuEVzr5/+WXX97SFeTP/qoi9SeeeMLiIL/cYKgv9nC9+OKLbSNtwHXPPPOM7atKOcnXxx9/bGGAvVTZmFvxszcrcdGeAH+ecF544QWrM+obGXDfffdZWmwGDhQH7Xf++efbNQD/N998M3vnnXfsn2u0JyxxbrHFFqZDtE9vo9delJahN0i9Xr6KwlLKIiCbl2813kbSB6F82bWNxJ2XbTbuRtJsBrH4sX7DzZ7p8GzKDFkwLNEMGF6A1NHNEGxsvfrqq9sxhDzmmGNmY401lm3kTHrfffedhWH5cf0ss8xiYYsssojFxe7/bPgMIEaIGSA7wggj2D9u1FFHtd3/IR7OSZdwNo3Gf7XVVrN4CbvyyiuzDTbYIJt77rktLogb/wknnNCsYEiYoQWGqfDnxsQ/8Y077rh2Tb5eeR9Gmh9++KGdEy4CmW+++bLjjjvOjueff/5sookmqsU388wz25PIiCOOaH4bbrihyS2xxBKWH/JMGQiDXAGbenNzADwREaaycQ64AcmPJzL+/+///q8mi5/yuOuuu5r/aKONZv/a8Jv6lp/yR7wMW3GMW3bZZU22N9EIqaf0N+TUdjHYmHpKRJA6d/AyEFcjpJ6Sdh6xa8hf/tENFMVfVoGp+ZJcPm35x+Ipihv/WBmEfEPWi6corJ4y5K9RXvJEyHlRPovKEMuT/PJ5gtSnmWYaOw6vYUf9hRZaKBt55JGHsThBPu48RKaMqe+4447ZTjvtlC2wwALZ2GOPXbOIZ5hhhuyII46wY7D00ktnm2yyiR3PNttsw+zUj15zHX5skA0gk4UXXtiOBaxyyJHhFLDPPvtYJxcgaVnADAdhcQPyyY0NvSbf4ZMDpEt8WKGEXXLJJeZPvXEeG89mM2/KF0L1DpEPHjzYjqkT8gEgaeK77rrr7JyhJcWx6KKLZosttpgdA0hL55A9Tyg8cVF2LGcAHxDfe++9Z5Y7RMyNCUC+Cy64oB1zk0Pu5Zdfzm699Va7IVIPgDJC+tyARepY/YD8MYQFeKJqB0IHjZB6vf7fIWEu1mdC9DqpCyeffHLtDs3YpMALMxqVjrz77rt3+Wb26Ir8wIEDsymnnLLLN8vuuOMOiwPrYdZZZ+3yzewxbZRRRjElwGIBVAxlIn4cRIJFozAUEnk6EY/lgJfFWGukS/ryB0sttZSlQZmxiFSvWDX4I4+yC/LHrb/++l2+nZYT6eLCMp966qnWEShfOHaroQXi4fFdwFqi3ogHBZcyPPXUU1a2McYYw64B+PMITYfEb/LJJzd/QNtjvaouVEcAa5a6hpzorAL1iTxlxtJWXfzud7+zMOoIkhZ4eUleKQdtDokCXce/jjU+jgvjrgddA6nut99+2f7775+tsMIKlj/0jTIRjsW86aabZhtttFH2m9/8xqxiQD8599xzzRLnRkD7Q9gQnyx1rF0seEB9MjyhNAXyetddd2W//e1vzaom/Oabb7YwbiIiaF7komcQ2ySTTGJtQJwAMoN4RZIMjxBGv0M/wpuP6oahiH333deOBYWhbxp+4ZgbCP0CR3xffvmllf+mm24yKxzwFIE+CkOGDDHdAMi89NJL2QEHHGB1RX1uvPHG2VZbbWVtTzxXXHFFNsccc5g8QC+OPvpoO6Ys6Bs3BdqI+CBFnhKIizjQbW7AesqifrjRL7nkknZ+yimnWH9sB1RH6qAPkTpjaJ988okRC4+8yhMKy50Yxx0cEMZQ0BdffJF99tlntfE3Cko+8/KAPBE312A5qFLwxw95/sP6UDzkC3n8cVyvsLByUX7CyFNYV1999ZX5k344pks5JY+/4uLRGj/iDwkUkiAvYZkBNxr8kQ/LTF3InzwI1J3ilz/louz44agL5Yd4kNc1nKs+uF7tgL/qjnHhUF4I/cM6ojxKF4IIh19CYFFCHpCnrLwU6ManIUTlc7LJJss222wzq3PCIR8seSzlnXfe2Sw+6hc5nhIYCmBsmBsf7YlVLFI/8cQT7UYA0CuID2KhnKRHnWEVExdxc4PH8JAlDKkzfAB4oTv99NPbrB2GnoDyTDqrrLKKGQ7kWfVI2bhJMSQkEEa6GAK0ldqUuBQfeWJ4CVCvkC5txrWQunSEfPL+AFA2vdQF3DQZugIM13Czow6R56mI8myzzTZ2YyF/3LwwagSGXjTbBz3kpsmTCDc/6ouZSwzd6EU3BgSkvt5669k1gDh1U+WGI1JXOXsL1ZJ6Z3nUjjHUNskoKziJlY2pKzEUmv9GSN3Re+htpc+DR2ysVAF94iUZBIblLDJvJN8i9XBLRsDQCR2Oc544eAIUIBBmxvCSEj0WeULqPOlww4Sgpp12WrseYhSpb7nllnaN0gF6GoDwyAN54fy2226z8NjwCzd+ZHjpKkC0vJzkSYEwGQT8K37qTDfTJ598sjZsEtaZjhlyEalzzJAH8dHfKYMMBcb6IVjADY6bocBNSiQKqT/22GNW55CzphZilHAT42YE0YXDN1jqGtcn3zzlQeo85fDUiHEHuPHzFMfwy2GHHWZPVKpj2k5DLkzT5CYJFN6IvlQJyhrWVQzSydCoLALh9ch/QGpBSTC0uOpBCVLxWAgORyNgyGGeeeax47POOssIFAJgCK1ZMOQB4YkcBB7tGXKAcK+55hqT4SXlSiutZFYvVirXoMeQBJYhljPn3GBkLdM/eIFHPhlWwg+yh0z5x2IljRlnnNGIEVni55yyQsIMJYw33ng2u4bhFxEx+SE+hh54cckwIUTLMFpYJt0k8jM+1lhjjdqYfgyUQy8weQLhBkp+dBPSy1VIUy9isaAJo+70glPpUgZuVPAF9cGTFZY2dcYQCpzDbCYN5YBlllmmlgeuIz5upsjyIpi64EaHP98FUN+USWPo4KSTTrLhQ3DLLbeYLHXW20i11ClrKh/XwwDGhLEGihx3VxxKxPCCzvMy/COjfxSCTkiHdDgaAWOpdEgcY6pYnq0CHcXCltUmYO0yPQ9CBBATViuko2EHwDAZwwNMv0OWMWNm4tAJIVfihfyID8uUtLBWsZIZTsJhSXMt5Mg7JIZWSIMxbPy5jiEOhhYwiMJhFKxexqgZYpDly5MDxCfrjjxwQ1FZRBCUSdY2yBMHecYBZPXiGEudutETOn37+eeft2OsZciKGyFkSlkEnrQ0PEgeGc7hPQZl0NMOXML0ROWbKZw82QPKoymTOud9BpY59cgNB5BPrhMYDqNdFCfp8YI83+Y9DeqJJwrKQduJQ0NH3VJnuLx//lwcWyRjwy8pIENlwy+qPCkZjeSWuqNR0DGZCSGi6c/IE3AMkimTTYkrFQyPQVZ5VJnG8ALqiZfEAI7EwZH6p85wCguhsDy4TpCMXDKpI6e7bBGUIWUUiwNry+FIhRQ9D/SpXVBFXhqNI5Rvh7rgpsswDVB+8vmK5bPRvLdDWVsFpL711lt3nRUjRuoxUCexPiJUOvtFCZEx4nRSdzSD3u7IpF+Wh97OYzvB66I+eC+UQurUYz2yFpCrR/7dQuqy/jWP1uHoy3DScrSC7rDU65K6XjqUoZHhF/07qTv6GsoI3Ane0Sh6nNTLiFpIIXUpfEjqPvvF4XD0ZzRK6imGhUZDYugWUte/k7rD4ejv4EOxPkHqRCwnaExd/z784nA4+jt4UaopjULIn+JQkXoZkK+E1EmsTNZJ3eFwOIbFmWeeOQyp5wkdByojdT4o4mVpmeNrOL6G4lhWO/+cC07qDofDMSzKSB0ihzPhVLmQe/MOzsYVydUsdSKvBwg8/0Vp/hqRue4iTuoOh6O/IyT1kMzl5C9yl18RCIe8i1Dpi1IndYfD4RgW4Zh6SOKhAxp+0XkRCBfHxlApqWs8SP+QOivRORwOR39F6helIvUy9Ciph3ccAKn7lEaHw9Gf4fPUHQ6HYzhC1aSOjIa6Y+iWMXX9+5i6ozehzsEWeWw7x+bLrL/Nzknh3rK9BfKHYy1y8kRndQx/6A5Sr6crTuqOPoEyRa8HOhXr+rN7DpuOs20d26yxUQVoJu5W8pMHW99p4/GqiL3K/DlaQ3eQej0ZJ3VHWyK0pFHgZkhK17BBMsOA6C/TctHPo446ynSTXemlr42g2TyBPHFvu+222RZbbGHHRXHW8w/DdFzv5lAvzFE9GiX1MiBTpA+gIVLPz1PPw0ndURXYoJiNl9nyDIi86ilzEc4777xh9FAdZ/bZZ89WXXVVOwYbb7yxWfFsnHzMMceYH9uLsQ8m58RBGLMZAPE899xz9gTAdewGxDZt4JxzzrHNmFdccUXb95Mw9hcA9CP8iYtd+VdbbbXalDfiZAOKMcYYI5tyyimzO+64w/zZHpJNrdlBf9RRR7UnDvY5FfAfZ5xxLI/IMY950UUXze65555anbEVHvt9gmZuZI7m0CvDLzRwmUOODW6JTH75DOAX/g9vpN4MoTSCRuMvku/ufJYhn369/NQLY/NgNhKGiNjvEyDfaPmw1GOkzt6aY489th1D7tNPP72NuT/00EMmf+qpp9q+l+SBPTnZp5T9NgljL8+vv/7ajokHwmYYZayxxrL9I9nnlDCGeNhLk42V2TAazDXXXEbyjPNrs+vtttvOwthYmrzQd6644goLY99RbhZMD15uueUsjA9aGFJiX1RtsvzII49kn332WTbHHHPYTYI9PbkBCNws2CvU0bNIIXV0Ul+EYkCLY2OuTMZInU5CpDGnTkQkLBUAJJ/vXEQY/jdD6mGcsWPSzUNhobzklJdYfoVYOiA8VjxFyMet8zDd8L9IPgzTv8qS99d/DDGZsAw6LoojJW6Qlwvbpyxu/sNjoPoK47nrrruM2KeaairblDqGMK488qSOLgM2gIaEAYTJUAyGC3qO5bv88svbpr5cC6kq/qWWWirbZJNNrLPOM888lleW0MACR/bZZ5+167G0BSx3LHbAUBBpCQsvvLCR+htvvFFLiw2EaaOll17ads/nnOtk7ZMmeSZ/3DC233578wfcmNjAmqcIZNgAXjcg0nD0LFJIHd2ivXFhHwiddLyeDK5th19Ij0yngsKo0CHwB/nPapXHvHwsDlDkXw9KIxX14idMZCQUyTeaV9WR/gXFkS9HvXRBXl5tE0M+TYBfzB+LdOKJJ84WWGABG1ZIRZ7Ulb/9998/W2KJJWxH/9FGG83ilpt22mnN2mX4hXNIVWBnePLAuDyW8EQTTWQyk0wyiVn0Dz/8cHbkkUfa8Idw6aWXGqlD/ljYpKk62X333bPNNtsse/LJJy2fDMsQ3xRTTGHWPUM///rXv7Jf//rX9hQAuBZZyJqbh4aE8qAcWPw8dfCE4Oh59MrwSwoglDJZdRb9N0LqKOWgQYPMGrv88su7fDvHQ+VPJwIUiLFG/FF6LBXhxRdfNFnGHNdYY40u3yz79NNPs8kmm8zGaRlLBVQeZaJTEA+Pp8o7/nSsGWecMZtvvvlsTBN5LDksNR7ViY/OKfDYTLrE98EHH3T5ZtnKK69s8pNOOmltGAFAKsjTeVlzWdhzzz2tDMRz0UUXdflm1jnxp6Pus88+Xb5Zdu+991oc1Me+++7b5ZtlQ4YMsfgpG5Yl9Ub53nrrLasHxoLJkwBh4E9eNfYKKDdx40/a0gP8ITdk8f/kk09qyjb55JObP2ljOQLkN9xwQ4uHsj311FM1+T322KPWzg888IDJggMOOMDaC+K84YYbzA8rF70i7ueff74mW4QLL7xwGD1EnnbE7w9/+INZ5iOOOKJZtsJLL72U3X333WY1I6excrDYYotZfZ5yyik23h6CYRcIGOsaC1ygHSFl0iI+8i1QDixt6omw0AB58MEHbViFF8fkMSR1rHBuOr/73e+yXXbZxfzBrbfearoFGP5ZdtllrV5DnXH0HBol9TLQ9vV0vm1InXm6EB7jh3rEBJAjflgxb775ZpdvZmT66KOPWpg6CAXlcRQyw/GoqcJjaT399NNGJIQJlIvOTDw8NivvQPkhbZWdDsf1+EMunKuSeamHLOF6qpE/aSMfkgPjssprWOa33347e/zxxy0uHp0Fxnfxw0EAKhvzsMkrZROBAqxC4sGJ/HD4I0s8lBngT56pC/ITkiWKBrFQBsL0xIA/N1HVEfEKxCt5rEmBeKkH5HWjBNxoiIe8Mi4s0P7EQ74gtNtuuy0bb7zx7AaARZzSCbhhoocnnnhidsIJJ2SDBw+2c25Eau8111zTbkLU/Z133mnhV111VW1MnRsLYYyfEwbJ0jYcM76N/jKDBWsdXcEACS11nhYgdcCQDTfPl19+2W4qxLHNNttYXnhBjBFAWhpTR446wcIP6xJSp715auGYJxnqj2EabiLULdcRh2b/OHoe3WGp15NpG1JvFEWdOVbYepVQVoECcikVnkeRfFH+G0VV+ckDuXp5l4uhkTTqQeH88/TG3HKeLu67776af0pajMkzZAJx8zS17rrr2nBEeOPlBrPDDjvYEwQvGs8//3zTY54+eOrgiQFrd/7557cnCQGrmKcVbhCrrLKK3QQAL0B5+hC4KULWAEOAPDDMwotP8oIDPFEylo/1zhMiNzHADW2dddapkToW/wYbbGD5AzzRMpOGpwPG89UHwbzzzputvfbaXWeOnka/JXVlsl5mQ5mYXN6vSK4eQvl61zYSd5Fc6vWNoF6+8v5FsvXiAPXChLxMSpyx8CuvvNKGwBheuvHGG7t8O1EvPqFMRunidJPSNfzzpMBUQZ6GQlm5MqijhgivqxeHwkKCjkFyYWcPh3BGHnlke6p19A6GW1LPK3Z3oaxChjfUK2931kV31zPvCZhuCKHefPPNXb5DUWX6sbjkhw7zEhVSrwJV5btePAqDTJjvzjsMDZmBqvLgSEPbkjoRtULqrkiOFEhPGAphbDtEb+gQQzS8Eymb+dWOYCjo/vvvt7yr7rwf9jwaJfUyVEbqrVrqrkyOVOR1xXWnOaje8v+OnkV3WOr1yN9IHQGIOOYUAXJM1SJBHGE6FvAL/53UHQ5Hf0cKqcOxGM448S7/eSd/ycWckTqEi7BIOuZ48QKpI6cMKEwgwvDfSd3hcPR3pJI6vCmyFrfGHOG4Is5uaPilbFxRZK5/J3WHw9Hf0SvDLymA1MtkndQdDodjWPiLUofD4RiO0B2WupO6w+Fw9BKc1B0Oh2M4gpO6w+FwDEeomtQJR64I3UrqrDzopO5wOPozIHVtVwjgwrwDIvUyIC+OjaFG6vlE5BQGqYdTGmMyussgC5zUHQ5HfwekHm4sLq4MHX4QNU5cKVk5AXlxbF4GN6Ae4+cRrvwWAxHqn3j/+te/1rbwUpjD4XD0J+Qt9SI0wpH1ZAewmS5rNbPoP/9Fjs0dWHCfnVZi4ThkiId/NkxgAX9tDOCk7mgH9FU9JN+hUeX9qe+ATVrWX399az94Ms+hnIs3WS+/jIslW8TFDVnqjcgChl/cUnc0g6r1hUdW1kb/zW9+k+21117mV5QG/nIhdB7652ViUL+pdx3ncoD8suWedsQi72xCzc5eQiwOoejY0fNItdSrwoCyIRUBxSxbJgBFBFJiFJIF+oErlqMRSJcA+oT+NKtDxMW1l1xyib3jGX/88W17Q8WXj7fIPw/Cy2TIu9JvFH/6059sTXmABccOSxpLzaPZNBzdD0h9yy237DorBu0n7qwH2jrsH3l0y+wXJRiSer1MOByCiInF49jjc9ttt60NO7RKWmwWwQsrNr0It6QDH330ke0/yibVPNay36fA/qjs6H/ttdfaGuXspQouu+wyexQ+8sgjbY9SwN6rBx54oMXFEKTyTP+59NJLbe9ShiVJn3QAw5rsnbr77rtn119/vfmxTR3T4EYddVTbMo+42L1IfZA4SId159kqT2C/UvZ7JS3Cr7766q6Q1uvP0RzCF6X1ILIuayfC68k4qTvaAiH5aTPm4447znbt55g9OAFyKdZMHgxfEA97gK633npG8ID42NiZMHblX2GFFeyYza3Bueeea+fs9s8epRzvtttuFjbbbLPZOfuassm58r3TTjvZUAnH2jGJzaZ5QmDoB3/chx9+aPnhvdNqq61m5WWTawiAMdPFFlvMSP3ggw/OePc14ogj2hMGG7BzPfucHnLIIXZ8+umnWzorrriinf/2t7/NNt98cztmf9d6JODoXgy3pO5wFEEKyobSE088cbbIIovYbvrCiy++mM0111y2GfNTTz1lfo2SFBtHQ3QAi5vd9yFUsMYaaxgJCxD4RBNNZMeQIla3QP722WcfO2aDaqxrwNAkTwDsNCRwk2DzaSzpMcccs5Zn3UR4OqBspCeQNza3Buz8xHZ+gJsS76foWwsuuGC28cYbmz/A6teEhKWWWspuEAKbYesm5OgdOKk7+h0Y0oB8IK2bbrrJ/KRDIS6++GIjL2YS8JY/FXSAQYMG2Y2BzrXRRhsZqdLZABtb33HHHXYMrrvuOrOQ0Xfk0GPh0EMPtSEhgIX+xBNP2DHDLshCqDxdbLrpptmss85qu/gffvjh2RJLLGFygJedk046qRE1uO2228zqXm655bKBAwcaact/3HHHtWO+zlZfIp1wqz+mDmPFg8UXXzw766yz7Bjw1BDeABw9j35L6owRoqg4Oliqu+uuu0z5b7/99mi4u/ZzamP+IUlIinHpFKBjO+64o13DkEzRi/5Q6dEN5LG4jz/+eBvmgECZCQMYiglJkk7IUAlj3lzH0Iqw3Xbb1Uh98sknz55++mk7fvzxx02WcuEHyb/66qv2NIA1z/sB5QlSx+Jn+IUxdm5mjKW/9tpr2UUXXZTNPvvsJsdYul6U0pdGGmkkOyYdwgSeavADlIkhIwEr3Um9d9EoqZehjPgrJXVlKCR1TWksAy+d5ptvPntkpcPxX89JBgto+eWXT7rGXXs4tdUyyyxj1i4kBsGBesoqQLJcN8MMM2TPPvtsl2/xtYyhi8CFV155xYiQF5IbbrihxQf+/e9/2yyTscYay87533vvve2YcW6u2Xfffe0cUh8yZIgd0z8YKjnttNPsnBe9EPeuu+5qG1fzhKGXqccee6zFwwvSDTbYwPIH6DeMoy+88MJ2fuONN9byIQOJPkh+NZQEGOJZaKGF7JhhJI2vA0idJwdH7yGF1NFd2r+MsIHkilCb0pgSUdGURq7Fodj6BzwW+vCLox7QF2Z+MOwAWYXKmtdJhlwYpsCK5hohLxfCPsboIND8bBfSYQycGSIMg2BJkwccQ0GykCHt0Ucf3dJkXBzyZEgDTDbZZNnDDz9sx4BhG8bqeaHK9fPOO29XSGazVCB24plzzjntRSw3lIceesjyxw0KPwiec24OL730kh0jzywbrqcPfvXVV5ZP4uJmhAxPBQBSP/HEE+0YQPgMVzl6D42QOk+i9fQZIBf2kzwGYJlAwpB7zBGGw/L4xz/+UTsPZQAZwV//AFLXI6PDUQ/M6oBYsUyZjpcHJIeBwFACOpsK9JO46QTqLOoQ6DRDIQz9QezMBcePoSCNZfOSExJl9gmANBkyAuQj//SKNX/vvfdmr7/+eq1vcGNhSAZCJh7yQ/y8SyBPzJAhHcLIGxa9pjuSJ4Zw6FNMa1TeSZfxfG4K9EtAGHkiHcnxAVN47uh5pJA67Uub4kJujTlkaNMi2YY+PiKSGFDMkNQVp5O6o1EwVMFLxJlnntnIjWEShjkY9w5fWIqgy4DehoQWXid/hkjQU+aBM/7OjeXMM8+0MIZUGCpirvpVV11lVjEzcGLxgPBY75jeeecdu453AM8884wNP8mKRz5fFl0XApnUMgt5+Uavd1SD1DF12ifUnyLEdCZEt7wo1X8jY+oORwg+moEIGc5gWKMK1OsIfFzEjWOWWWbJzjnnnJosFhFPB1NMMYURsYZbUglSctwwmKvO0AxDMVjiqXHkUXRd6N9s3I7qUfWLUtq2Xvv6lEZH20EKC/ExfCAMj0Tl5Dv8o1FSL9OJMpluJ3W31B2tQEN50qnuhDpK/r8IZeFFCK9rNg5H30GfJnUlpH9InY84HI52hhOrozsx3JG6W+oOh6M/o61JnZdG9eBj6g6HwzEsYqQOKYcOOKk7HA5HH0B3kLo4NoaG5qmXffQhUucGAHyeusPh6O9IJXX+65G1AM/qmhgGYH0jBBHXc8jxRVteNsyESF3/vkyAw+Ho70ghdTgTA5uRE/5Djs07ZOHjWBiuW4ZfnNQdDoejE5B6fju7PKnjNKzCcT0gI46NwUnd4XA4uhFnn312KamDVFInHLkiOKk7HA5HN4JlJ1I2nk4l9TIZJ3WHw+HoRkDqW221VddZMZzUHQ6How/ALXWHw+EYjuCk7nA4HMMR2pbUiahM1knd0Y4o6yTtDOU9/+/oO0gdU6dt4dkyIFdPD2qkXqYsELWTuqMvg53+2ex6kkkmybbddlvb+BmkdKSeBnm78MILLW+yzHCsMX/WWWfZByplfdbRHqj6Ral0oQj2RSlDK/UcJK09SjnGheGCk7qjVYTKWnTcCHQdmy+zkxKd6+CDD7bd+Dln+zwQxp8n0hD1Ol2Rf4hYfHkgw7Z3bGzNHqrsb7r44oub/0cffWQbVLMRdXhtGG+9fBBWL9xRPVJIHc7EaMaF3BpzcDZyRV+e2tovauh6jkSJLBYmOKk7qoDI6o033jAdahWXX365EfiQIUO6fDrB3qMLLrigHaPHrG3E/qNsGi3gz67/gAXqcAAjh7yxMbTABtXgww8/tN396VshsL6ffPJJ20g6BB3xtddeM6enYeqAY/J00003ZVNOOWUtfm00DUjjrbfesptTuEsUaXHOJtdvvvmmbYgN1F/DfuvoXjRiqcOdtE09hxwuFoYbZvgl5gQUL3xRGpNxUnc0A+mQ/lHYXXbZpbZH6QEHHGB+zYA4V1lllWymmWbq8hkKrF528UdGm0OzqQv/CyywgBEm5D1w4ECzlPHHbb/99tmII45YO2dTauJgw+zZZ589G2GEEcx/1llnreX7+OOPNz82teafPVEBFvcEE0xgjrKST9KFpEmDjbeR53iMMcaw4RfOIelvv/02W2SRReycMP41pEQ+ZpxxRvOTu+eeeyys2bp0NIcUUkd/aBeRuvzyDiCHi4XjGpr9UibrpO5oBSjqDTfckP36178ehozkHnrooS7JNGJCwdHF2WabzT7VLgJxjT322Nlxxx3X5dNJir///e/NOmaz6FVXXdX8b7vtNsuLrP6VV14523TTTS0dSJRjYfLJJ8+OOuqo7N1337VrsJjB+++/b+fcDHbeeeds6aWXNn/Ak8M111xjYdwAIH02u55hhhksn59//rldC6lzc+FmIJAWYYC8kG89SXDD2Xzzze1Ynd/RM2h0TL0MyNRrPyd1R1vgwQcfNCsVUsJhteJ0LP9FF13USDKVlNBbdvE/4YQT7DxGaOgpcX/wwQddPll22mmnZXPOOad1IHbvghwZ9mB4hhuAnloPPfTQbK211rLj8ccf3whYOOmkk7LlllsuGzx4cDbffPPV0iXO+eefPzv33HOzO++809Jee+21sz322MPCwfPPP5+NNtpoNnxC3Uw//fR2HUNByPMEAXHz8lcgb4SRT54SROJgo402shsQSK07RzWo+kVpmYyTuqNXAQHtuOOORkZyGr4ocoTvvffevxgOLMIaa6yRLbTQQl1nQ2XvvvtuI2gNvbC0tMKw7Oedd17rQJA6Qx0Q7BNPPJENGjSoNl4OqUPIYJxxxslefvllOwbcGFZaaaVsr732qlnjxAe40dDZAZb7iiuuaLNyuIFxY3jppZdsSIV0H3jggWzaaae1a7HQySs3GcbZIXxBQzWMpUPq4dzoDTbYwOrB0fMYLkhdigupp26SwZgjSjzuuOPa233+3Q2/jjaGBEXUoTXeiLv99ttNf+op+aWXXmqyjz32WJdPJ9C33XbbzfR6hI4bBYQtQLI77LCD3XRGH310G4ZhPBsZyFSkfuSRR9bIkqGQ66+/3o4B4/DbbbedjWVTZoG+RH4g7n322Se76667ukKybL311ss222wze1nLDYcbzX333ZdNN910Fs5LVq4lXzy17L777uYPGLYhDMwyyyzZNttsY8eA2T9rrrlm15mjJwGpDzdflDJTIJXU6TAff/xxU45HUnd9x6ndGB/G0mTsFzLKuxjRy2/qqae2IYp6yh2G8bKU6xgqOeyww4zQsX61m9dBBx1kY9iXXHJJtskmm5gswzGQJzqMhcwxNwbk6A+AuFZffXXraIx7c3NguGXddde1l5v0AWQZKplrrrmyP/3pT3b9sssuazeGyy67zK6h41900UWWLuP2WN28tGWYhZem+B9yyCE1Uucl7+OPP27HPOnwZMGxhmNIKxx+YRjILfXeQY9b6rI4ykBEZbJKSKTOYyXjgg5HGSAsSAkHcRdZ7hNNNFF26qmndl3VGNisYOuttzZi/8Mf/mAkLaCzPC3KQmduOIBUIUzIH3KGTM877zzrD4AXmljSYMwxx8yuu+46s7Sx0DU1kn7BTYwhIz5+OvbYY+0FqPoJY+vcdLCkGWMHX3zxhd1gkMHw4pgZMwytnH/++TUDi5siNxDKxA1DfZAnhvDJA7K///77u84cPYnYJhkx0Hb1yFpARroTQ0Ok3ohVD7BSsFZASmYd/RsMcSy11FK16YJ5Yl9sscVqhkVqB0hFUVzyL0uLcIZpnn322S6fYa8pu75RVB2fo/tQNakDcWwMA3gRw7hdPccLIoZHsC6wbvDTP2FYDVgyWBEc8xUcjo9HNPwiy8bhyCOvyAw3MG4tMmeoJXwB2Yjyx5C/Vud5Hc3LlekwNyO+BBXqWVMhysoSC5dfGOZ9rD3Bsg4bb7yxHfPkB3fClTjO4U78xJsh9xY5+FgcnHcDiBTlK3MkjCyKkw/jrsE/VhThGqds5EWpwyGIqBjmuPbaa+0YlJGfw9GOyG88jR7Dk3kuhT9x4tMiRzgcG+NiXPKLUhJrZPiFBH1Ko6MKOJk7+jIg9fDDLxE6Trod+pfpO+Eahoyh0imNygx3C+Ck7mgG6BH6Vqbc7Ya+ll9HzyC01NGR0IUQqZeB63qc1JEFvCjlww2Hw+Hor4jNU4+ROucyiOuhR0ldGQpJ3S11h8PRnzFckLoeIZzUHQ5Hf0cjpN52wy9O6g6HwzEshjtS9zF1h8PRn9EdpK4h7hiSSZ2IGl37xeepOxyO/o78PHUgUpcDEDpO50UgvJTUEVKEoVOCOMx9vmAK/eQEJ3WHw+EYFimkDt/Cmzhxb8jF8sMhAx+H14ZuQL0vk3CEcSGR8FmrIlE45wLn4b+TusPh6O9IJXWsb/FqkRP3wsf5MLnkBb0aGVPXv5O6w+Ho70gdfhG5l0GGdhG65UWpk7rD4XB0otEx9TKE18TgpO5wOBzdiNTZLyL1eoQN3FJ3OByOXoSTusPhcAxHGC5InUSBk7rD4ejv6NOkLjJ3Unc4HI5OnHPO2e1J6ljhZV+UKlNDh1/ey0Ya2ZcJcDgc/RdsXK7ZL5CxSDkkZvmXETYIOTaGAVjgQInEHEBO29SBIjkSRJbzd997P/v1SKNmn37yWfbeex90ufdq7v333zcX+nW6Yf2K5YZ1KTK4quVwZbKEy8XCm3XdEa/iqhdnmGaRXD68SA73wQcf1A0PHbIxf1wYB8dFccbkimQbdanxpKQpmUbijPkXuZh86NdIfMimypfJpcQjmVTZFDmcZBuRL/L7+OOPs8MPP3IYS11cGXInLiTrfFjoyuQGYH1DwvUcEWDRs0wAxzEZHB8y4ZBF7s2/vJVNM90M2WijjZGNMspo2eijj9lxPFo26qijmmOxLx0P9SN89JzfKFHZvuYou1wsXE7hlLlMNtU1UocpeazaNZI3hvR6On+pTvlKLU8jbVxlmVPiGjhwYFL+Rh999GFkiuSJj//UchBvzF9OdVxlHRKu+BR/kUOmXnx2/WijZwPHGic79bTTjYThxxh34sSf9WRwIcfGwhsaUw8t9SJwpxh6F8myn/jpIZB2u4OlFtoZ1CGWQDsjVWd7E+oD7Yp2zx8oG+7tbVCHqZyDXJks/S6l7xEPfFyEhkg9pZLLEgQqIHecFBBfWYWAf/3rX11H9VF1ujRuamN8++23XWfFaKRuUgmYOFPKIiugDKkKmCpH3sr0Rvjb3/5m/7XyRIoVrUPkdElQF6mdM7WuKUfKzTuaxwjIXyoJp/Zn+nJKeRrhhxSkyFEvOLVzPSDXW3mkDkm7tB5/+jn7X0JdV9VXeoTU8QvBOS6m0BQpXyzk8nHEUEbqiqORMqek2wippypqimKBVDnyl1IW6ialfogrhWiQq0JRQ/yC1LuQP1eZ5V9U+lRSTyVW5NDFsjgJb1dSV95T8gca1dd6dUMYLqWvgEb6QApS4iN/jFxQ37GykJJ8f/4xrf3In3S2Hgivl8desdQBco0oTFlBQdWWOg2Rkq4aox4UzzfffGP/9ZBahyBVrhFSSNGJlDIDypIql1qW2tMOcfPXefYLhO2MXFEuGqnDFH0gvtS+0q6kLpC/lDI3UjdlUDxff/21/YOiuPFvhMNSkCoH36Sk/ePPHXXTYa2XQX2qrB4lVwQn9TpIVdSySgaKp7dIPVUOfUjRiZQyA8qSKpeax5DUqdWiFgrjQ6YoF6mEmaoPyNFXymQJ7wuknoIq9VD1VjWpp5QXpJYlldRNbxLSVp8q0xvJFcFJvQ5SO3FZJQPFM7yQOkipG2TK6gY0UuY8qRchH19RLlIJsxF96G+knlo3KW2seNqd1HlvkpI2dfPz/8rTJn+4snqUXBGc1OsgtSOVVTJQ/p3U42ikzM2SepFsajs3og+pfWV4IvUUpLSx9Cok9SIgm1rmlPKCVD2Eb1Lqh3RT0k6VK+tTNVJXRRaBgqaQJvGUVQoyuFSFQa5e/hRWlj/JpSoBilovXUB4SqdTPGWkjhyOOixLG6QqYKocdZNaPyn5Q/lS5VLzWPSiNI+8fhVJp6abog+A+KokdeJLJc3UtiN/9eJUOcv6ntBI3ZTJKfyrr76yf1B0Df6pZU4hTJCqDw1Z6iVpUw5kUvpLWV+xnY+IpMyRMUgzFpZ3argyh5wKUc+l5BF8//33teMYJJuabqqcGi0WJkc4yD9SFsmps8dkQodSxfxDB1LKAqSosfDQpZQZh4w6fJEDyKToDfjyyy/tPxYeurJ05VSWsvKk5A9HfDIwYuE40gKp/S8lbeJM1Ye///3vteN8eOiIr6xecKlyqeUA9Sz1UD6lzDhuZDH/vCuLTwj7CsjLyVGeFF1EJkWuLL7aF6UoV8wRRgTIQZoc15PHUVBdFwvHHxm5WHzy419WRV5GDhkK+t1339kxceIfplGUTsxJln/5FV2bl6vnqHAREvnFhfFyjFP96DiMI+bCOIoc069i/nKkQ35oY5SV87I6r5euwiXDf1F8kklpI0AdUpf1ZAmT3hSlK3/k8mGhUxzUYVmayKmv5Ns3lNM/cRblD4cM9YJDLhZf6MrqkDDyBakjSz0WyZEeMrHwvAvl8unrXPEVlUN+yIDPP/+81s6hk6zior455ziMT3L6L2tnZHBqE53n5QgjX9QhN29k8Iu5MN58PHL5MMUX+uVdvfCG9iilUsqgRkgBGUtBah5D66MeiC9FjnKkyNFJyuQUXjZOKLnUOmyk/VJQ5SMlQCalnSl3WR5VN+FjeT2k6ldKWUg7NT7KATEov/WQ0i6NpJ3SdoB2TgHxpZQjtU+l6IziSRlTB6l9ILVuGqlDyZLnmFNYal/B6boiIFNPb3r1RWmqolZN6uSvSjk1Rj0onlRFTalD0KhCl5UHyyNFJ1LLjCuTA8iVlVl5D4df6iG1DlPbuZEbaAqpE54SJ/VHX0nJY2p/LhuqFFLrJlWOspTJKTzFAMKlljm1/VLlIPUUWfKY0geQSe0r9eSc1OugEUUtawzF01uWeiqpV2mpkxYuVVHLyqy8O6kXoy+QepV9BdddpF5Wnu4i9bJ0y+rQSb0OektRQUodgtS6cVIvRmo7Uy8pcsTnpB5H1X0Fl1rm7ugrbUnq/JCx1A6QAuJimd6Um0AK1HBhBZYVvB64ljwSXyvxhKCSq4yPTpxKsClQmVPJIQXER/6qrEPirKewKSA/yhPkBTnIgGglbuKkvOSxKkgPlb9WQR6Jr9U6FIiPfkw9hroY1nEzIH+6vpV4AHGRtyrrkHbBtZI3rtX19GXeBYnDwrBmQJmr6CshpIut5CsEcVUZH/lLHR5OAfkif8QrtNomVeohIC7irKqdiac77iu4KtuZ/FUVX1V9JcwPdcjnCa3cVxQf/3BsVW0CyBe6XaUuqj+3ApWZ+sJG5EG81TgF4iSuVttZIJ4q+zNlb6WvuLHeQjwhpChVxYeCuLHeHMiP8uTGemsgPjfWmwPX6no31lsH+XNjvTUQjxvrzSHMT7sb65QX3a5SF9WfW4HKTH25sd4Y3FhvIZ4QUpSq4kNB3FhvDuRHeXJjvTUQnxvrzYFrdb0b662D/Lmx3hqIx4315hDmp92NdfKFblepi+SPOIVm2kfXUF/YiLqvNBNXHsRJ/lptZ4F4yFtVdUgZW+krbqy3EE8IKUpV8aEgVd+YWlGUGIirqo4GqEPK3Wp8XK84+oqxXlUdEg/xVUVYxNcfjXXqsNW+wrW63o311kH+uttYbwVV6yEgLuKsqp2Jp7/eV6pEuxvr5AfdrrLc5I84hVbah/xVbawTB+Vtpi1iIB7yVlUdkr9W+ooZ6/lGaBUUEkKo0lgnf1XlUZVGfM1UWgzqHFXFR1y8IuKDlipA/igzildVHqsmVfJWRR1yvTpsFaQagvxRblBFuaWHVRJCmMdWob6cN9ZbAXFWqYfEpzokzlbj5XrqD9dKXGFeZKyrncOwZsC1repyHipzVaBNcK2UMwR5ox6r4kTyle8rreSV9qjy5g5C3W4FKhdlDe8rrbaN8ke8VbYztkNV+k3dkcdW46N8KiP1x31FutNM3GF9VW2DkS/iq6pNiEft3AqUH+pLxnqrcQrKY1X9T7pdlR4qPsrbTLv8wlgnEkWk4zIn6JjMQKrc5OUX/qc4yeqf/CmPIAwrc4KO+Vd8ReH1XEyGhqDcsZtxKFfkQjlA3kSq8gsh2ZgTwuMwf6GcjlNdCOILjfXwP8WFskCkGoYJkkt16mAQQjiyHnbk2HWhE8JjyqvORhpKJ7xGxzGncP0TV6g3IJRvxAHyozwKCsvLx5ygY+KjL6OL4cO3wsNrYy4vA4hTZQ7DUh0Ij4kPvSFOjuUvSLbIhTJA+cPJrxmEcaKHrHah/tJoe4dygOvD/OkfSK7ICfnjPCfmw8uc5IQwvrxMPSeEx4DyahBIYeF/ipOs/qU3QhhW5gQdozchP8Tk6rkQOpduS19CWR3Xc6EcIB76su7N8hfkV+QEnROf6lDhMbkiFwNxhcZ6KJe/PubycsSnOgz9cXnZ0IVhgOuVJ91XpDtqHxDGUeQkJ1Be8iiEYeF1RU5y+icuXCgThqc4yepf7SyEYWVO0DH1SB2ii/SZGPJx5J2gY/7VzkIYVuZCOaD+3KoeChxTf7ii8HpuAAUjQziOcUSm/zIXXiNHXDwx0RiEUVjJhnJFLoxT/yhzPo8pTrJStHx85E35a9YpTuKTsuRlylx4Dfkhf2wDQh0Sr2SaiVuOvCmPsfC8U3o4lCU8xxEX+ZRseE0YT5nTNWH+UvMYOuIgnzrnmDrESCI+ILlG8yhH/tQeymMzcdXLA/7SyyIXyigutZGIX+exNIpcKK+4Q2Odc8mEx4041SHXhnoVlqWeC8vN9ZSVh1r+8Yul2agjLrVvM4786RjAh1988YWVmzzjr/JIrp6TnK4hb6rD1DiKnOqS9s23cTNO15O/ML5G40Q+bGvigw/RxzC+1Hhj15C/KuoxH18+vBlHnLQzceZ1OzWvoRz1SFwy1kM5XCNxosPqu5RXZU6No54jLvVnpRGTK3KS51/9UPXXbP6IhzhwIG+s8686kc7mXZiv8JgwyovjmDgUxn8jTteoTchvXibF5fPIP/kjTpUnlC9zYXxcS764N7NZrTgilNN5qpO8+kqYv9S4wnSVxyrvK8SjduFc6aXG3S1z1imoRkCqAgUi3ioQdoaqoE7KfxUgbyLUqiAFriqPxFNlXFW3CaCzQQiKt9n8Kn/quFVAcZa1SSN5Rpb8NXJNHuG16stVToOpCvl8tlrm2PVF/qnQtdQhetgqhyk+/luNKw/i0824ClR9X6m6/wHKWlV51Sat6EsexEWZq8oj8cCJVbUL8aEz5LGqchOPDJpWofojvirbhQfGRqbBxNIO/WgT4qyqnYmbvFV5r4q1SbN1Sjl54OG+QvtUAfJCvM3mKQ/iqZJviI/6a7aNu81YR/FQwKqQV7xWGkSVViXBUOYq4tP1lBVlliJXES95bEVZ8iCequIif/k2rgIYSd9++20t3mbyS96Uvyr7itqEvHFcBZTPVtolzAvxxIz1qvLbCpQHlbkV3SGOML68awbhtTFjvZl4dY30pkoQH21cle7QV6rkWNq4KiNOoMytlDcE5Wy17+VBXK22SQjKiy7qvtIqlL8q2lnX819VOxMXeSO+VvMHFAe2DfcV5bGZuMNrGNis0lgnHvJWFUeQV7VzCPwbKbtkyR/2DW95qtJF4q6yP0u3q6rDsE0aqTOhW4x1EUKVI+vkr6o8UlHEVQXBCDRElfFRh26st44qjHWg/NEeVeVRbYJrtX0F5bOqdiEe+jG6GPbnqvJbBVTmKtuFuHCtllPXx4z1ZqD4+K+qjQXKy82pqnjpK61yYngtbVyVESdQ5qrKS16r7HuAuKpsE8rrxnrzUBxurHcC/0bKLlny11+Ndf4bqTOhW4x14srf3FsFcVaVRyqKuKogGIEGqDI+FMSN9dbhxnprID7K3N+MdeLDtVpOXe/GenMIr6U9qjLiBMpcZV8hb1W2C3FV2SaU14315qE43FjvBP6NlF2y5M+N9cbQZ431ZgorcC1xVUEwAg1QZXwoiBvrrcON9dZAfJS5vxnrlJk4Wy2nrndjvTmE19IeVRlxAmWusq9U2fcAcVXZJpTXjfXmoTjcWO8E/o2UXbLkz431xtDnjPVhCtl4eQ3EQVxVEIwQNkQVQEHcWG8dIlXF22x+lb+qbiJAbYJrtX0F5bOqdgHE58Z6c9D1MtZbzaPio32Jq9X8hSA+9Lsq3aEOW+XY8Frao8qbJyCuqspLXqvue8RVZZtQXjfWm4ficGO9E//7H/lNT0NlJn/tbqwTV5V9T23CfzP60ieMdQpGnDiKSNXFiqowuSIovioIRqABqowPRQmN9VZBvkJlqQLEU1VcapOqyEWocmSda2mPqvKoOHFV6Q3xkL+q2gXQLtxI2t1Yr7IOia+KOHU99Ycettouio//KtsY/PQTN2T4oZp6/OEH+gu63eXRBML6pz2qMuKEKvsKea1SDwF5q/o+haFZ1X1F+auy3MRTpbEuI7OK/CmOvLHeDML8VG2sEzd5a/1e1ZnH/3Vwwo//6egrPw6bP9JppF4lSzndWG8MZqxXTYDE1V3G+s80SIcrK2y9UMXXuiIPBQ1QJamSt9BYbzVerpeyVJVH4sNVge5oEwCphiOazeSXvIX1V1UeFSeuqjYhHvJXVbsAysyNBJ5oR1Bm8lhVmRUfrpV24VpdHzPWm4lb1/BfZRsDjPUffkB3huaLI1KRawTEhWuimDWEdUR7wIdVckSVfYW8VqmHgLiqNBgob9Uj68TVal8BoW5XaZNIb1rNH1Ac7W6sEw95a62vkD+u77g/0c7/7miT/3SUd5hqbKxOVWby19eM9Vb1R22CayauAVxUNQGSKQihamO9qkYArVZ8T4D6a+d8Vp237igregOxtjPavR6Jr8q+1x8Bx3IzbndwU64U9pq8OlRNEeh2lf2lO/pJlfdmUPV9pWq+Ad0RZ5XAiMPQrKptZBhWicrrEN2mvMPE21wa9BP4EIO9qjqkvMRVVR8kPuyHKkHems3fABSEStPTNufNOK6Vwzhidyqtzax4m4mfayAXGf9y4PXX38rWXXeDbMCAAe7cuXPnzp07d+66yc0048zZWX88O/vbd9+bMfvf/7LzcafNh10Ws+FCh4xsOu1gim0Xk23UEWdqPlKc4ouFNeOIj7I2G2e3zVmvamQdhQhdiPfeez9bdtnfZb/+9UjZhRdelH33t++yLz7/PPvqy6+yr7/qcF9/nX3V8c928+3oyFtZ/tiiPObvLs1JB1SPnCusnXXDnbtOh46is1XqanGcX3e5vH8jLozjqy6Xl0l39F/yqvyGeVY5cOE17tx1n9N9Y3i8N4dlw2FL/e3bv2UPPfhoNttsc9aM9ummnSG75OLLa6PiedusDBpZZ0C3nUfWMZKrzF8rM0Rqxjqu0QovAhmqas46eQpdiPfffz9baqmlspFGGin705/+ZH5VVWy3oJrqdTgcDofD4egW5O2tJ598Mptm2mmyhRZaJLv9tjuz7bbbPvv1r3+dzTzzzNlNN93YYfOlzTtXnBis2IiMrocDxXkbrxFwLXZsVcY68bix3gDIU94JGOu//e1vTWna2lgny6FzOBwOh8PhaFtgrHQalkOGDMmmHjR19pvf/CZ7+eVXzO/zzz/PtthiCxtpn3LKKbOrr766ZnjnbbU8MFgZVWcaTFXGOnG2s7FOfDLWmymnj6w7HA6Hw+FwOIZFl8n1xONDsiknnzybfbbZshdffLHTswusinPQQQeZ0T7ppJNmF154oc3LBthjofEsGw6/qkfWidON9QbhxrrD4XA4HA5H34VsLoz1aaacKptnrrmyF59/wfxAaJO9/vrr2W677ZaNMsoo2fTTT59dcsnF2b/+1bkCFjZhKMvysN9/z0Zx32c//tBps8VsvEbgxnoTcGPd4XA4HA6Ho+9CNteTTzyRTT1oUDbnHHNkzz3/rPmFCG2zN954I1t99dWzkUceOZt11lmza6+91mxC8NOPP3XYaHwIyjQYRta/z37o8ONqczkbrxG4sd4EutNYD/PoxrrD4XA4HA5Htei0tTrtrSFDHsumnHKybLbZZ8mee+5p84shtNG++uqbbL111++c0z7VVNl1119fswmx0/7xz39m3/3j++zfP/zXNrvEDU2xcVRtrJNHjPWq4hvujXUVLHSCjPURRxzRjXWHowdQFUf0FYTlLSp7f6sTh8Mx/ANeE7cNGfJ4NtVUU2Szzz5rh7H+y5H1evjii6+zvffZ14z2yaaYIrvokovNPvznP/+Rfd9hrP+QuJJMGbAVu9NYb5XniQfbmHibiatmrBNJVbCnpoqM9XrAWGc1GDfWHf0ZkAD7GvChD04bTYSAHOjn9MtvvvnG1tPlP9zumWvkTxz6xz9PgJyzTi7yONavx4UfDEF0nBOP0uLDo3xcjYC4iYe0FC/HlJt/VijA4U/ayCo96oDjkChTSBMZOVYwCONX3XUH4DLyz3rHH3zwQfbxxx9be4jjUvLeUyAvoQ7KcQ8gLKx3/tWO6A5yHId1iYzkU1GmV4qzLN5G0iVNyo0+fPTRR3ZPYp3q7r73ORzdiXw/efxxjPWpsjnmmCN7/vnnu3x/ifC6fDf6y1/+kv1+jz2y0UYfmE077fS2udI3X3/bITisbP66VJAu3FjGA6kgnipH1skfvNdsfAO4GJIkUxy36lRAyBfDgHOcwnRMmuF1RU5yujZUIBnrI4wwQnbDDTeYnxvrjuEVoe6rPwCM1A033NBGLnDzzDNPdtVVV1k/DIGhfNFFF2XjjTeeyU088cTZYYcdln3yyScWfsstt2QzzTRTLR7caKONZl/605+B8vDhhx9ma6yxxjCyuPnmmy975513TObPf/5ztsEGG1j/JGydddbJXn31VQtrFhhBp5xySjZw4MBfpJ13zJmcbLLJsiWXXDI7/fTTzbgOEdZnEeATcQr1tNBCC1ncY445Zrb11lv/YmWERoHhf+qpp2YbbbRRtkfHjezWW281gxxQ53/84x+tHKT5q1/9Kjv++OPNuAXtxnUYq5QjbIPFF188e/vtt7skhoJ5rYsttpjJTDDBBNmBBx5oDyWtgPqgPajPzTbbzNrnvvvuq/WTMqAPMZ3g+vvvvz/bfvvts6222io788wz7WM6yT777LPZsssuWyvzEkssYcaNwlP0zOFoJ+T7Avo8xRRTNGSsC5zTN//X1Q+ffe65bKWVV+ngtVGyOeacO7vsqquz7/85dHrMjx1O97eYQ0b/oY0oOzY813GqC6/hn/uNbONG48KF13Cs/MmFsmXORtaVmVYQNhBxMQKl5XuqAI2TV4LQWNfIeqvlcDj6AugL9AmAsb7pppvWjIV5553XjHXIIAQj4RjrE044oclBvoceeqiN2IKbbropm3322WvxyI0xxhhmRAqke+ONN2YzzjijhfPNCG+3OMaYlXH2zDPPmLFOOGHrrrtu9vLLL1tYo1Dfh1NOOumkbOyxx7Y4J5lkkmzjjTfOzjnnHFsy7LzzzssuvvjibNttt7VVCZDBjTrqqNnOO+9sxnEMIk67qQQ8Ex5jrGN8Eh/G+pZbbpm98ELnygh5bgpvKvkwIL8333wzW3TRRWtx7rfffmb0AniZhyIMTsp05513Zm+99VbhqC1pEUY78x9LtwzKdzPXMvqPMStdkOMB7pVXOtdmVrzibsJZ7m3//fev6WEe5Im24Z924j8G4r7ttttsaiTx6uGmCMirzWNxKq+EHXvssRYf8fKQQToCD1XPdRggV155pfW7p556yt4YFIEy0EYMZsXuVyl1T55xDkd3AB0M9fCxx5izPmU255xz1jXW86DvhP0ojPPTL7/IVllzTetTg6YelP2p457yQwfnAfVJXHicdyGIu6gvN4IwvyHfhHlvBsQjHmsG3TZnnVeDRTeVRkCe8pUmQPgQM8b69ddf3+XrcAyfCPsnxzpnRDI01hdccEHboAJjLwQGAkYfI+rIMeocGusYIHy9T9i4445rRhQGCsb2cccdV4uP9DBUMZgZFcX41+hvaKwzso4hLaOZkXUZbc0ib6zPNtts9gASAyPQrEqAHG7QoEH2kAHgqEceeSQ74ogjbBc+ychhlJ988sk2vUHA0JchONZYY9nI7WuvvdYV2rl02V577ZXNMMMMwxis1CFvLHiAwPAG1CF1z0gVby+Q45rxxx8/m3rqqS1fvAl4+OGHs//7v/+zOl5mmWUs/+EgCA8QRx55ZDbddNPV0gvT5RraXG9GACP3v//97619eQuz9tprZ7vssku2yCKLDHP95JNPbiPeelMC4GCcdC/UQx4sqBP0RYatHA9LGLICDykrrriihU000UT29iY0cKl3HsConzAeOUavDz744Oyll14yedJes+PGz1uj0Ucf3eqSzfLQ8VlmmSXbddddaw8xl156qcmiD2GcvK3hLQz1Sf7AXXfdla288sqm5yoTcjwk/u53vzMjnWkv5GWaaaaxdj7ggAOGeZtA/dDuxKO2Dh15pD2UpvDggw9a3nmoJi1G9unn4Vsl6nX55ZfPbr/99tr9Nt8+DkerYAdTpsEwmNOIsR4DVhyPmdLNTz79NNt9jz1Mn+mTl15+efbv/8Ztx3r6XPUDLP2oioFsgbwTV7O2dlsb68oP//WMdYjZjXVHfwJ9Qv0jb6xjMIfGuuQ0sl7PWGfkhDAMKKY0rLrqqmaIYxDI0MbwwDhEhh3sGD3HyOQ6DL733nvP5BhhxFiXId/KNBiVAV454YQTzFgmTtbz5UHi3Xffzf7617+awcMI7wMPPJAtsMACtSk4PHwcc8wxNpqJsYpBJqOHuJZeemkb1WaEF4NLhhncgvEF92Css4Mf/hiFlB1jDWCIYsARhmMUivTOOOMMu0ZpYVxdcMEFZnCzpNnmm29uxhhhGJkLL7ywTWmCz3g7ed1115nxTjhl5c0Bhiz1ce6559bqHYdBydsD0qWuOVcYDzW8eQC8iVlhhRVqYTjenvBQQB3Q5qFRST0+9NBDdi0IdS8E7Y5RTJ1xPXXJQwBGM+3AjZ76ANQlhjHxUz6Mdb1RuOKKK6y9lD5l5OGQcqFPGA0Ko614gKFNiZty8caHPJAmo/c8QCGDUY2+8wZD1zOV66yzzsr22Wcfe8hVGNfx1gR9YlSddtE10047rdUVcVFmHO1IGOmG06PQRT2U4NAr7lnEueeee9rDknSUtCmf+g8j9ehLeC1l23HHHa1eMeQVRn0RJzrjqAYxHe+veOKJJ6zfcX/Q28QqEBrXzGnfo6NPcL9Azy/DaG9gdoaM9araTcZ6VQ8A5AvbGNdMHt1Ydzj6IOgT6h8Y65tsskntxo1xhbFOnwlBn8RQ1DQYjEtGThmVBPQhptDQnzCwMArwY+QZY45pGBhUyy23nF2PYYTBiKHDKCx+eWMdgz801puZBhPyEpxy4okn1oz1FMfbAo1oAww3yimDfKWVVsqefvppG6Ulf4SvssoqNSOK+cg8CGAQahoMBuQ222xTM8q4ng1BdthhBzPcGbW/9957rR0w5BjF5jreMmB0ihsxBhn9VpyMqOsbAh6uMNgw0gmnvRgVBqGhTjlIA2M0BA8sPCionEzf4KGGEXu1IWG0L1OgBG5QPIARjkNfMKCFsD1CMJrM2wPqjXgxRikDI8QY6ugUesJ3EpQbfSB+jHXqBEOThx/qHh0kjGOm/oRg/jgPi2ofyshbDXD33XfXHkRIj2kwyi9vWmgbHmh4AKNumYtLO5122ml2nd7YzD333KYHAg+I0mNGualbgbTDh+X11lvP2oJ2RFbTwMgzfSgEZab/6DsS0uCNAri8w1ihDPjzsEe+w+8u6JthPyBdvZ0I+cHhaBVDhgxJ+sA0FXn9DM/hVB6i6Qvzzz+/9UMNPGE45+1AXYe/G+sNwo11h6N7QZ8QieTnrDNad9lll1k/DKEPFsM564wwf/rppxaO8YKRIqMEA5AR0NVWW83OMb4Y6dXI5u67724fCjLCKMORUX1Nm8CADUfWmbOuaQvkv4hv8v70e/lh/DGSLiOFvGDsMKcSwwsjmVe24cg5jtFQjDLAB4IyymTw5R0GlvKNoUlZGOWRkStjXQ8fGKpMheAhgDcXeuBhtJxRZo2Q8o8BqQcp3jRohBmDDUNWbzp4C0CbaIoL7YbxDygzfjhG0HmAyQMjkjbiQQs52hZjmHJgBONHHaE73CBVx9yg9t5771qeKWtorOeh62h3jHUMdcqPQYz+oKdMidLHueOMM45NY9EbHvJ/yCGHWHkxtrlB44+jnHk9/uyzz0znpMfM+afdAcYwBjL+MtbVT9AjdGCttdayOiUfyJFXHqJwMo6ZZy/DmusGDx5cM7p5C0M8KjcjghpZxxE/RjNGjcqo6/JTXbhHsjgC6SGDzlE2wHdYSnOuueay6UzhyDl50FsXHMZ6OG2L/CmPDkcjyOsOxjpvC3lDp7eJVUHp8E9fk53HwBA8gW4zxYz+UGRT6jpcVTpPXG6sJ0L54d+NdYdjKERMgL6BUaabNkYWUzQw4kNgvDHFQgYABizTKjSfmVFHDH0ZqRijpMGoIoYMRhjX6l9TGhgNlvHMVAKNhGKgkZ7iY260jPU8wr5Nfw+5KDzGWMFwUnoY0kztyXMDZWKUWwYn8sxBB5A+o+2UgzDyGHIV/MWrXqZ+cJNitQ8eEjDAZFhj7DOHmBsKo+6UDX8cDyiMvGJ8Akat9S0AdcGDhNJjzrs+tMQoPvzww83ABaSJkUw7KVwj60zdCKeqkD58GOKOO+4wI0/l5K0HI+vUDdOa8JOxzkOH6pm8MXVE3xqUGesCcctYx+hlGozKAkhDDwk45UsPKTxEYOCGU3SYbpI3cBlZx0jV9Yys89AImMql6wnXB6boB/cITfPi+qOOOmqYbw7QZ01JwnhmdSRAvfAwpPrgTQhvCwTyFxrrtAW6En6QjOOtAg9fITCumdKiByr6FQ/UgAczpYn+MI0pNNZ5mAinBPEwHM77z/cjhyMVed2RsQ7fsnBAT4I3x0yvQ8fZRfXySy7JfuoaaQ/z+VNHH2clmap0Hs5wYz0Ryg//9Yx1RsfcWHf0ZzBCqxFwnEYLMYQY3cPgwnDVSDKGDEZqeHNnDjUjJzKCmHsLHn30URvZCOPGEGZaAcYYI6ga5WQKjox1jFymU8hYJz8YJRi6cszTxWDEn1Fops3o4YF+T58PeQlj5eijj67NLcaIwVjPEyqGHw8Zmp6DPPOxeYBhKgFxhCPvTFNhKtH6669vdUVew4cW+IcRXRlfGP/UD1N+qENk9BDETQ1DFSOdhyb544iXUWSVkVFZxYnxjfHFSDFvRuBPeE0fQmK0M/1Fo6dMk9A8edqEtuV6OJGPXJUmDoNWU124+TH1B3+MavSAhyjqGQd3M6VH+a5nrCOvuqfdqRPygcPgzz8wMuVqu+22q+kYDh1lJF/TeDCSNd9e+sr3FYyYYyxQh/JH33gokY7wQS7lV9zoLTqFDAa2RvcpN7rD9JcrOgzo33QtIynH1CDql7IRN29zNOpOfukn1BEPa8xL5wGNMNqBFXE0VYC61oOc8kw708ZMS6IPcA3+zDvnoRs9A/RHPWwyP52RddpGwFgPv5MgnXAqlNrT0Rz6c93ly86cdXiI/lfFNJgikG5o54W8DlfCE6N08DL8dsmll3QY07IxO675X4f7qcMQ/pk3ceQf/ccwJo7G27JtjXUiqAoUsmpjnfwVGeuQnRvrjv4O5lQzaswIGyPkGCN8gMcrfz7Y4YaPPwY0o5Mh6GPMDeTjQkYVccwjBhgAO+20k12Lv1afAEz/QI7RTAwYjFON8DJqydQZGSaMIDMyTZ9lSoD+mROOPwYlo/QySOjv6vPiAkabMVqIj/mTGNcYoTH+YjoMhprKQzqaCoM8c+p50MBYxjjD8GFkFaOYKSPM2WfUXKB+8UOW0VWMbo36MmqMocrNjBsJNzaMdsrH6jVMkeGtA3VIHd18881WNvLBdwTUH/XEyC/XUW8YurQTq4jQdoxK00bUgYChuO+++1p9kDZ5pwzMc6c9qGOm/YRGM+UgfuIkTR4sNOcbkCfyjGFLfihrONeafMduNrQ7dcI1TAfiTYZG1kN5RuAxaKkP2oU6Yh18PcAAdA4DmQ87ySd6TJ1ifFMu3hJg9OubAUAaPMydf/751qa8VUBHqAseLnlIoz6pE/rDDB1u8o6HAEbrNurQo0MPOjhbveOBd7755zd9ZI44eQU8zPAwR56ZpkN+qDum32Bc82aAtCgPx0wJCsvMAwhvCdAd9INy4MgH/ZR14XkTFV7DdxaUk/Kyeg33uPCeykM0cVLXlJWH0fDh2+FoFvk+XmSshzJVIoyXY90HAG891113vWz00Ufr6I/zZ3+64drsv//puGd0GOU//YBx/UOHaT6srdgMSDc2SNwsiA9uxTVTb2asc3GVI+s8iVRlrMvFKo0bFcTLqAJzaR0Ox1AwDYORPRyjsRgrjRJPyAmtXAu4XgMDocMPzmAUI8ZDnCPHPy6fD/mXgTRwMVnqBiMWh8GnNGKySi8WRvy8cSC+WDigLMiRRijDObzJW4GifNYDeaetMdhob+KJIV9/IEyrKN16+WnmGqB6AEWy1CXlwoCnbtETQdfwn7+euFWXIAynnr/pqKd/BA8IP3fJAfKk6/JAR7m3kQ+1YZgPtW8MhFEOlSfUk3w8YTsRn/oGjvOiNBQHCI8djlTk9UarwfBQ2OrGdlXhs88+z9breMjG/ptmmmmzm2++paNPdn4L9PNPHf2yw9UG1JvoBtQBfS7Gl80g7LfN9MsBkAUEiGNkg/NmHNfK6aYhMmolXjnFrWMKy2sRRjcYWdcOpg5Hf0YzJFAPZfFVnV49VJVWM/H0ZDl7C5SxP5SzEXh9OPoj8gYqbyF5C4RhzFsr3mjyITVvfHiTy8pOTMPiv7sc8ZMW0/ZwG2y4UbbRJptms8/R+R0Kbtrppssuu/KK7B//+qc9kIe2Z6odGtqaGnhJvbbIcT12MYMo/IdppLoBNEo4EsA5DpLScarTNcTFiAajD3mZKpwIlJF1Xm0zt9KNdYfD4XC0DG4vbqM7HDVgZDIF7+yzz7alRfkImo/ce9KRJh+Bn37aaXZ89jnnZn8857z/b+8twCW5rXXtsX3MzMxMA2ZMYmZmO2ZmZmZmOGYY04ztmJmZmdmOmSE5Se5/c/Lrzrtmf22NXN27u0q9Z8N6n0dTvaukVYIq6dMqVU245LIrw5VXXRPW22AjE+zbbb9D7UVs6UVpxlRLdhbQsmxlIz3eSpBXnd9lbNkyGER1/PhZGWslxOl4PEhlsbYyPqZtKyHNMIVlcgGsJ2VtIS+CsVbXcRzHcZpi+JDkOE4C2qsRnR3vCtI8XDJMuI8++hhhqy23NK+1kEgG6crOAqA34xdMi+I1G0D20K9FcToLbVuzjlCvumYd0gwrAF9i4KU1F+uO4ziO4zh9E7ztrLLgM6ryrEOsGVshFetVkbO5bH669acbQQVLA7hYdxzHcRzH6dtIrPNlpdizjkiWZmyFdoh1tLE8663iYt1xHMdxHMfpsdQT67FmbIV2ifWykwcX647jOI7jOE6PxcV6CVysO47jOI7jOF2Bi/USlBHrqtA0ULA4UHGqPH0NhgaKP91IOsdxHMdxHKf3093FOnmQWC+DiXUMEHKJXArX6tdgVKFpiIU6wcW64ziO4ziOI3KLddLgxC4rrlOwh84uK/77kZjZg2YQZEzivZVAOjKDDWxRWfx35/yt/bHY1t8cI8S/48D+OCgtuFh3HMdxHMfp2+QQ68STxkSo8597stU+QpH+rRfi+NjBgY0+juM0G363DKbZgtWLw34MI9RZCqN48baV4GLdcRzHcRzHqUe7lsGgZ6GMjTgNvyW8y9hq25p1XwbjOI7jOI7jtJuesGYdnY29Mvnxr8E4juM4juM4PZZ2rFnPKdYR/2W96uBi3XEcx3Ecx+mxdHfPuot1F+uO4ziO4zh9FhfrJXCx7jiO4ziO43QFEutbbbVV+Pvf/96x18V6Q1ysO47jOCMbjRWO4/RuXKyXgAzx6cZWxLoqNA0UMA5UnCrPvwbjOM7IhJ6G/zKD0J16HfpA+mEGG74VzNe5+FvHemsfqXLzGJwxiDFD+0VR2VUnCvWQPcYg6lTjHOOnjjmO0zXE9+oFF1wQ/uu//muEZTAcjzUjxPd5URDcz31OrDdjVxWVBgoYh7jiXaw7jjOyobfpjj3OG2+8EXbccUd78tivX7+w1FJL2b64XxU9uc/UWCFOOOEEKy9hyJAhHXs7L2PR8R9++MFsnH/++eH111+vjT3fffdd2G677ewcG264Yfjll19sf5oXx3HaR3yv9QmxToYIGMNQvG0mqJAKCH8eQ7AURvuK4sWkxxTSc8UV72LdcZwugT6lXrfynwbHRhL0kWeccUYYd9xxa8IV0b7zzjuHr776qiNW68R9a3fqZ5UXxohvv/02PPHEE+GVV16xpwqtEpfr7bffDosttpjV47nnnmv2gUH3m2++CS+99JItx4ydXa3US6t1SPxW0zhObyW+FxDro402Wthiiy1GEOvcq/SHuneaDaTD4cw21qDNBmxoC/yW+I/jNRv60clgQJmSGC4TSI8tOshff/3VvOvs50RpXM7LFuIKSkOaYaUHF+uO43Qlr73+uvU5U001Vdh3773D448+Gv42rK/rbpx33nnWL0488cTh2muvtTDDDDOESSedNFx11VXWV6fQdz/++ONh//33D4MGDbK0E0wwQZh22mnD2muvHW677Tbrt2NeeOEFi7/AAguYbUTtlFNOGTbYYINw6aWXWh8t6JcZZ5588knz+M8444xh/PHHD2OPPbal2WijjcL1119v4jceAwABfuaZZ4YFF1wwTDLJJGGsscay7XLLLWeDdOz1fuyxx8Lqq69uHrb33nvP9gHle+CBB2zC0r9/fzvn5JNPHmaaaaaw5pprWp19/fXXFveLL74Ip59+ugn1ccYZJ4w55phh6qmntnLiaWcsuuaaa+wcN954oy2JET///HO49957ww477BCmm246S0+9UI+bbrppuO+++8yRJUh7zjnnhPXWWy9cdNFF4YYbbjC7s846q9Up1xrlufXWW0doN9UNedFvx+lLxNd9LrEurUlfh5aVNuZv6dZmA+l0ftLSB7GVPR1rJmRfBoMNbLVrzTqBjINeMHWx7jhOu6HvoU/78ssvw8033RS23XrrMPdcc4XxxhsvTDbZZGGnnXYKr7zyWvifv/9zWNyORF0MeXz66afDIossEkYdddSw66671gacvYdNLvCwI5CHDh3akWI49Nf77ruvHacsCFcEMJ5j4q6wwgp2bJlllgmfffaZ9bGHHnqoCe155pknXHjhheHZZ58NL7/8son6ZZdd1uIvueSStvQG8HSvs846tn/eeec1TzXC/bXXXgu33HKLLdPh2HzzzWd/I2I5z5VXXmmilWPbb7+9HSNfiF6lmXnmmcP9999v8bHLPsaFm4a1E3z88cdhpZVWsv2zzDKLxXnmmWfCq6++Gm6//XazS30hyplkUI8IfV5aGzhwYJhwwglN5COkGXcQ5Hvuuac9dt99991tGQwDLzZVdsT5JZdcYnmlbpgkUX8cI9933HGH5Q1hsfnmm9t+8kD599tvPysPZTzwwAMtzxxfaKGFwkcffWTpYii3j3tOXyO+5n3NeotgA1t0tFXFOoWLf8cBYrEefw2G+FXQOR3HcTrjX//6P+HOO+8Ia6yxVphmmmmGibTpwsorrxIOP/zI8PjjTwzrD2NvqLa/9S/8UqgKnuyNN97YhB2eXa2lBsTyHHPMYcf4YsL7779fy8f3339fW4ONx/qwww4LjzzyyAie8Q8++MCENV5hxD2TE8QlHuCjjz7a4v/1r3+1AQ4+//zz8Pzzz1seiI93HvsI9XfffdfixDCpOOCAAyzO+uuvb+muvvpqmwwhos8666wRPNhAXi677LKw7rrr2tMDwDtNvlj2g9cbENcI7VNPPdXqAbDFkqC33norHHfccbUlQyeffLIdB5bBIPJ5woBdjT3UF08UEAfbbrutjXV44/HqcW62xIF4PGEN/IorrmjnWWKJJWztO/nYetjEj314+RH2oDQM8EwUOE5dM4kSyo/j9EXifrSRWI/vE92P9YIgTTvEell7bXvBNMenG+PKo4D6rS0Dg8Q63hZotfPKVWbHcfoe//73f8K//vl/Ruib/vrZZ7YMAm/tRBNOZCJr0MAFwoknnBTefPMtE6Ux/xmW5n+HhVb6IuKm8RHECE0845yTgQsvOgGxyXaUUUaxY4jfI488siasgSUgvEi58MIL23HZwKuMZ3ezzTazZS/qYzkfSzMWX3xxW5ZCfOwTH1HJ0hK81oDQX3TRRS0O9ULaFMagwYMHh4kmmsjiIqKPOeYYS8Mk6LnnnuuI2ZiLL77YHoeTJ50f2+SdScX8889v5WLcYEueWfLD35zrxBNPtDSAWEdcUybEOmMb/Pjjj+bx5jwIbcYnvOpzzz23LVvBO08Z4+sCaPu11lrLzsOSGiYtjJMIDPax3IUnNzGkxXvPcdpBkw2I7eu34/RFuvunG8kD/QehTH66tVinspSnRmKdDresWE+hHh566KFw0EEHhT322MMeHe+zzz72iJjAbw8ePPTtsN9+B4R99zsw7L//QeGAAw4KBx90aDjssCNsacjBBx8cDjnkkHDssceGk048KWy4/oZhgnHHN7GlgGA8+JCDw5Drrgvfff3t8M6HF1X/d1j/RWixG6N/ZLDCq4t98kD/SEAQsqSD5St4xvFeI97xJB9//PHW5zG4IWyfeuqpDovDvdYsH3n44YfDEUccYWu28Vafcsop5hFmuQ1r3NUfEx9vPTZYXz777LNb/NNOO8082KzJJm94lHk5U6jPpgx4q4mzySab2EBJHfI3ExAJ7xg8aPfcc499AYYtNlh6gohmwqFx4eyzzzY7eOmZpOD1lvAGBDDr14lD+QQTBol1JgFKQ3rGCMQBYp2y86QXsc14RPtTrymIfC3HYZKDx58y6GnIGmus8TuxzjlZzsRxlvuwrEbEY3b823H6Gi7WS0BmukqsswaQzhEPD1QV6zySfPDBB81DhVeHgDdGvz148ODh2GHhuKOPCScce1w44bjjw4knnhBOPOmkcOKwfuMkwrDfiL6jjzoq/HnTTcNss84S/mvU0UxwjTFsQFlskUXCMUceHR575JHwzwIvs9Fkd0x/yNpm1qnTF7L8hSUZ9UAMLr/88pYXPOAvvvhibbkHXmbWlbPOHC8w/ThikneC8OoidnnBEtHJ0hNsIDSJjyeZwY0+FOHMchc81pdffrn1y9hAbJIGMY7oxA6CleU2EvN4px999FErF8eYUCD6p5hiCnvUTf5ZIsMkRMtHmHhwTmD9vMT6XXfdZftYo04cJjNMtigT+WQCg5DnnNghIMI1diHWqRfW5rM0iHxSL4h1nDecgyUqfFCBwAuyc801l9nh5VeWrFBGAra01IiXlFk2BAgLlWPVVVe15UMQj3c4jjjOMhnW2Reh+I7TF5FYj5fBAPdFmXvDxXoLpGJdf2tfLNZzedYdx3Fa4d//O/wrWAIPKwMH664RbpNNMknoP//8YYfttw/PPPlk+Pf/93uP6++gi1PohJ9++skEpr5qUk/MCfpSXtrkyyq8zMikgvzjJV9ttdUsz7zQyZdMeKGRr8jgdV5llVXCnXfeaf078KIjaXnBFCHM1134igzr4vHC8yUV1pzHIOoRt7PNNpulYckI9lmig2DGk/7OO+90xB4OopplRUwi+IILEwA87aytJw0To/ilS95fmnPOOe3FUEQ/MFYgeJdeemkrF55yJg78xsN9+OGHWx2Sf/LOEhcmH9QVkwXqijrgiQTnQ7Dj0BkwYICtpUeoC55EMGGibikX9pjokJZ84dnniYXAFucgPywR4qkFaKxjbOac1BNtoPX+HKMtfMxzHBfrpcgl1iXQ9ZsQV3yRWFecHOSy4zhO7yHtFxBXd999d9h1l11q68Wnn356e2mRddLxI9mm0SnqdEFxP8g2FWxFfZfixcc0IEmAA30ogx2fSyTwm/FBkCY+H78R1HibCfFabZH+zTkQqYhcvOSMF2neiuA4+SVtnCdIy1UE5dR58dqnYJv8K31sk7TkG9jP+eN4cVx+E5964aVSAr8Vh22ax6J99SCubDmO0x6xzj2ue74q5AF79Atl8lMT63RSMhBvmw2C32SGDo8OWMfibb0QHwcqSRWFTQIVqOOxWNfXYBTHcRwnB/Q36lN++eWn8N57b4cbb7whrLHGmmH0MYb/76CsQWe9Nf8ZT1UnRSvE/WVKvf25aLf9HHTHPDabp55Qv47TXcgl1hWXLXoyFuuxLf1uNjCGYEsaltCKnX78g1gnpAfLBjKEFwEPRtHxZgN2qCxQHpsR66RTHMdxnCqoPwJeRFxl1ZXDTDPNaC9d8jJlkYfWcRzH6TpyinUCWhPNiabUvioBXYo96dNWQz8ygieIIEFcJpABZQaRTmXhXdexeNtMIF9s5dEibTojaSTWHcdxcqO+x3Ecx+k+5BDrxEM/Squii1l1EmvTKgFbZe3ZMhgJ41wDEQWNPevQSmUprgS6fhPi4y7WHcdxHMdx+ja5l8GgPRHW0pOt2CiC9OhsNKpstWKzW79gSn6Up9irrn2xWOezYOBC3XEcx3Ecp+8gsZ7rO+ukicV6VbCHNo7Feiu0TayzBKaqWJdAB3nVQdtYrMdfg3Ecx3Ecx3H6BvXEellSz3pVsIc2jrVsK/Q6sU4ax3Ecx3Ecp2+AWEcLdnexHuvaVnCx7jiO4ziO4/RYXKyXoB1iXb8VwMW64ziO4zhO38bFegkoHF+DySnW40K6WHccx3Ecx3FAa9bTr8GUBS3ZjhdMu5VYJ0N8DYaCViHOD/nTUhjtd7HuOI7jOI7T94g14gUXXGBaMJdYx3ZOsQ5oY0Kc72YxsU6Gqop10io9mUmXwXQ2m1D6ojjsi/OoOC7WHcdxHMdx+h6xXqwn1lvxZBNP8dm2w7NeWqwjqCnYr7/+aktX8IiXDfwnSATWC/FfcGNX+3ScLUI+TqdjVIzi8Ju88Zt8kT/ZU+W5WHccx3Ecx+l7xKJXYn3zzTeviXUJbnSjtKX0ZlHQcaVBy+o/+NSxMkHp0b7Sv63aNM+61H4uENMqYGdQ2ZrFaKmLiBsinuFov4t1x3Ecx3Gcvo1eMN1iiy1GEOtlkdDvNp51/kEkV10GE0NmcnwNJob8qeJdrDuO4ziO4ziQ62sw0pdoSTRsLrGOPXRstxPrOb4GI8gXMxwVUvl0se44TlcQ943qg+J93ZE4nz0hv/Xoqfl2HKfraMenG3OKdfoxNGy3E+ussUFg54B8NRLrfK7n1ltvtX25KtZxHKce6ofo0NUfjWzivjEl3t8oz7EN+lL63JR6adsF56vnhEnzEue/Fbq6TI7j5KWnfGe9bF/TY8Q6MxzlUfl0se44TldAn0N/c/XVV4cbb7wx/Pjjjx1HfiNX/1mV7777Luy1115h+umnD1tvvXX45ptvbL/yF/ehRXAsFse33357mHnmmcNKK60U3n777Y69XUOcV/L04osvhs022ywst9xy4aGHHrL9wPjw0UcfhY8//tie6sY0KuvIpLvmy3F6Ii7WS+Bi3XGc3sabb74Z5p133tCvX78w1lhjhWmnnTb86U9/CnfccUfDvrPoWKP4VcDuhx9+GNZaay3L56yzzhree++9jqMjnjcW5I24/vrrw4QTThgGDBgQnnnmmY69zdFKvTBuxHlKj/P3q6++Gvbff/+w4447hueee872M9ZcfvnlYZJJJglzzDFHuO+++2x/K2CbczfKb7soOqfyk7bRyMif4/QEXKyXwMW64zi9jbfeesvE+uyzzx4efvjh8Oijj4Y11lgjTDTRRCbeF1hggbDvvvuG2267bQTPe9yv5upjG4GHee21166J9Xfffdf2f/vtt+Hxxx8PjzzySPj6668tj/fee28488wzw0knnRQuueSS8PTTT//OM/2Xv/zFhPDCCy8cnnrqKZu0XHjhheGYY44J55xzjnne2Vevv+dc1BdpjjvuuHDeeeeFBx54IHzxxRcjiFHqhqcAHCOP5O+TTz6xfF122WXhyy+/tC+MvfzyyxYYZ3766adw9913m3inDXiacOyxx9qkgmOqb74OQd55MnLqqadanPPPP9/SfvXVVxYnhvPec8894bXXXrO0tD15OProoy3/PF15/vnnLQ8p5JH6uO6668KRRx4ZDjroIDsXdf3BBx/Y8fQ6oNx33XVXuOiii8LJJ58czj33XJsEfvrppx0xHMdphIv1ErhYdxynt/H666+bUMd7K6+uQBjef//9NlBMMMEEJpRnmmmmsPvuu5tIbOYzthD3b2WJxTp5kFhHDM4wwwy2f9JJJ7Xt+OOPH9Zbb72w/PLL22/2zTjjjOHBBx+0NHDTTTdZmUcZZRQ7TlhsscXCdtttZ952/h511FHDAQccEL7//vuOVCF89tlnYY899rABlDhLLrmk1ccf/vCHmh2W6bzxxhs10T548OAw3XTT2bFxxx03jDbaaPabLfVLnz///PNbOZ544glblrP99tuHeeaZx8aB8cYbz/LEMiAJ3WuvvTbMOeecZodje++9t+WViRbnYP8mm2xikwrBN5t1TIH8b7TRRmGaaaaxv3nacNppp9n/AQKMT7T10ksvbcdJzzefyYvqiX2k+eWXXywN/x/JnnvuaXVLGZdYYomwzTbbhIUWWiiMOeaYloYJ4p133mnxgbqqeo04Tm8jt1jnHuuWYr3IQ1AWCtdTxboGDcdxnJh33nnHRB+CPRXrKYgxPKks2ZhvvvlMdE088cQmFPFE03e1i1iszzbbbLVlMI899ph5x9mPYE7LgPBFkHJ8t912M883INYR8AhhPL5pH3vzzTeb533uuee2MgPLVXjSgODEm07/HcPk5aijjrLjiy66aHj//fdtP0tuELYIV8qQrpHHm42QnWyyycy7DeRnyJAh9oQDIR+X64cffghHHHFEWG211Wp5i2HflFNOGaaeemorB7YYXy699FKbdDH48/QgHR/PPvtsG3cWWWQRe1oBCGpskeaUU075XZpXXnnFxivKywTl2WeftXqjvhH0CPcYPn/ME4BxxhnH6oTJStmB3nF6O+0Q6zmd2NihTyirUfuRGFFN4DeZKxtIT0CoM1hRYdofbzsLxKNA6jgJ7RbrEukMIgxIeJLwoPBYlS3rU/H4sPXgwUPfCLrnZ5llFtviQeblRglC+qpmJvj0hwjKQYMGmTjDi413e9VVVw0vvPBCR6zhHXpVUrEuIcwSl4EDB9p+hLL6Sp0TcYjHmTLyH4tIrF9zzTVh8sknDwsuuKAJzBS8ybyAiqB/8sknzS5LZPA8szSFpTh4h/v372/nR1DjCadu8SiTlmUygGBmcjPXXHON4N0XnItJAPnR53pZtnPllVeauGYyxRKaFNqLF1MR+qSnf0egkz/qg3Qs99ESIAZ+RPIqq6xSm+zEbUNcbCDW8fAzPu2zzz5miycVPM1I25K/GWcZH7lmrrrqKvO0U9/UAfVCPpj0qL7Yz3GeJDCBSJcoOY4znFxiXTqVe1pO51ib6nczIY6PHWwqxHabCeZZl1DPBR1RT/Osa8AlPY9yGfBYX+jBg4e+F3hJk6C/WdfMi4uIJsRUkWedfikV7qwTZxkGyyHwyCMAWZqy0047mUjP1UfG0HfFL5iy3hoQ2lqOgcc27fOZUODhRUCzPEVruRHreIAR2kUvmOJZpkwEftOHHnjggXYeJgs4PxDxBI7j4ec3+WECQaCeABGMkEdQ804AxPXK+RHciHWEPTDJ4AVTPOvkMU43dOhQ20eZsMs7BZwDjz1ed+LSnlNMMYU9QSDvnOv0008PY489tol1LSOivjT2YJcJHHlBrJPusMMOszKThjXrKTiCWErFtcNECPHNOUhDvvjSDbb0XgFb7eNvxjvypjw4jvMb7VoGk/bpZcEefUhZe4Vr1uNtM0FxBRlCrCOw0+NK01mI4e9GYp0G8jXrjuO0E0Qvgg/RXe+rKKx7ZjkEYneMMcYwIYao40VDlnA0u3a9LPSNvBy5zjrr1MSyxCZ5LhLr6k9Ze41Y5zjr0fXJR54I8BQAzzriMQXxzRNI6oUXNgFBSnxEMjbTwROHCGvNWc5CXlnfDhLXBF40jWGQQ9izjITJA/kCxDovf7IPka90xF9zzTWtPDzR4LOOMSw7QVhzHG8+7YYtOOuss8zrvvrqq9ukLYWXR/GsL7XUUrVPSLJMhaewjEfHH3/8CG1NHfOSKeKcONQjdcTSKNU3k4cY3oNgPTv1ylp5JndqKxftjjMiucR6fI/VE+vxvcfvoqBjAjtoWDRqGg/ifUWhV7xgSgP5/2DqOE47YZ0xyxQQfloagTjHw4soxLOL8EJc7bfffvbFknZ4zjsD4YvIJC+IaK37xpPN0gr21/Os77rrrnZ8yy23rHnWEaYsMUFAx0t2BGKVtdosE+ILJoI6QqjrRUkmDqyVJ0/8jU2Wy0ikMojxEizLaeJlLqA+nwkHghxhzld3gHR4yHmKgF3WuzMu4N3mqci6665r+1lOwmSFl2n1gi35Qfzzm2UxrEVnrGGLHb4tL7Eej49MDljCQn3ylADIB3XNy6rYI/AkhqUs8qBz7cTLdBDkeNU5F8eJS57IC3/z1JjJTDw5jMe4eDx0nL5Mbs96I7FeBuzQ50qst0rbxDoeCjq9HJAvKg27cedUJNapCMdxnNzgWUec4THHq4o4R2QhHnmJkuUKOCli0j61Xh8b92tVoZ/kSyiIc8SjRDnrnVm/ziRCy05iGEyYfPC5QgS/0iHiEb6kTb3FQJlZ3kE64qbgRceLjCcckcvkBtGfft6SgHefesYen0zUMUEZeNGXc6UDMp5yyounH/s6zthBfbAuHs89y12oG9knHyw5wSNPPOoBEc05WFIUj2PKC8fJI08t5I0XpGeig4hnQsELxUwmGK/qQR0Rh5dmWctOHilDUX06jvN72iXWc2lKiXW2Zeh1Yr1sRTiO4zQCIch/goS3FA804lyCD+K+yRn5lG2LVtPlaHO/bhynGj1FrJe913uNWNfLRi7WHcfJjfqgRn1arv6zN9JX6iYen5qh1fiO4xTjYr0ELtYdx+ltNOof437JcRzH6VpcrJeADOlrMDkgXy7WHcdxHMdxnJQ+IdYxQMgFhXOx7jiO4ziO47Sb3GIdnYnmzKUpsYc2ln5tlX6IYN7wJ/AbDzvbVoO88xQOW7zFzstX2q84aToEPdtGBeAYcVysO47jOI7jODG5xLp0KtpUTmfp1SoBO2jjsvbMs47az+lZx5avWXccx3Ecx3HaTTs86wj3XJoSO1XstW3NOt/DjcV6FdukdbHuOI7jOI7jpLRjzXpusY6G7XZi3T3rjuM4juM4TrvpKWK9rM7uNWL9L3/5i+3LVQbHcRzHcRyn++NivQTtEOvYUh6VT8T6sssuO4JYT8lVJsdxHMdxHKf74WK9BN1JrDuO4ziO4zi9FxfrJXCx7jiO4ziO43QF3VWsS69KrJe11zaxnn4Npgou1h3HcRzHcZwi2iHWq3jCU6raa5tYz/0/mLpYdxzH6R3kGmuc1vB6d3orucU69wqas6pnHbCl/8+o7D3YDwNkSF9bIfC39qeB4xyjAAqcnK32Y4v/vZSlMOxTRuM0+ptjCvXgmIt1x3FGJnHfo9/xvp4EeW62/81Jeh6NB/XOH+9P47Qrz0V223WuroC8N1t3jdpiZKI8xXnjd3fMqzNyyCXWuQfQp+hNdKe0arzlGFvp5TRISyuQji3aWMdJH9uQ3fg4W/3ux8WuCLpRqwZsUVkshdG+zmw3guMu1h3HGVnQ5/BfRdOn0Xl2V9RX/vLLL+Gnn34Kv/76qzlO+JutAv0zAwf9slC/2tVQn8ojT2TVx+PsoQzkVX0/g1ac59zo3I0gr99++63li/y0O09loRxcr99//33Ncaa8pmWM24DrXPXQWV10BeSB64Jr4eeff7brti/SXdqju5JLrKueuVe41thCqmHTv4sCaBvbS+MROrNny2Ck3tmRA2z5C6aO4/QGJMReffXV0L9//zDeeOOF7bbbLlx//fXh3XfftWOdEfdb7ebZZ58NSy21lPWLhNFGG83CqKOOakF/jzLKKGHMMce0/6vi/PPPD59++mmHhd8GmGZpJn69OG+++WbYZJNNwpRTThmOPfZYi8f4cfjhh4exxhorLLHEEuGjjz7qiF2dZvLK2HL11VeHc889N7z11lu1NEx+Ntxww9CvX78w99xzWzzIOX5CPVutnIM6W3755e0aOOusszr2Dgc7cZ65ZhZddNEw/vjjh+OPP97KCUXCXrSSF8Vl20o6ceedd4ZpppnG7r8HH3ywJqBSmrHfah46i9uojkQr52wUl0nLI488Ek499dQwdOjQ8PXXX3cc6TyfvZ12r1mvWr+xPYVW8K/BOI7jNED9zXvvvWdiYZxxxjHBNnDgQBNt/I3YvO6668zjWkTcb7UT+knEjPK2xx572IBOfyyPOlvEGP3n6aefHkYffXSLu/HGG5sXttW8xnGbTRef4/XXXw8bbbRRmHrqqcNJJ51k/TwDG15Uwsh4mvHaa6+FxRZbzOrmkksu6dg7PN/U8VdffWWeXvIqmi17GTqzjXiNBSz1d8ABB1i7rr322uGbb76p7Y+DeO6558ICCyxg1/KJJ55oZcsJ+Y/P1yqI9UknnTTMP//84YknnrB9zdZ3WtackAfVfbPnKHOdKA3bCy64IIw99thh5ZVXDt99953td9qzZj0W61Xh+qhir9eL9VbL1Gz8OB/tot32ncZ4/XdOV9wH7abZ/CPg5pxzzjDvvPOGl19+2fbxWPOll14yjzCeScQRAY8mfRLe6q4UmoiG+++/P8w333yWj3333df6YojbSltEJ6KUuCuttJIJ5xiE/hFHHBGmmGIKi4M3nv52hRVWCJdffnn47LPPOmL+BhMWPH8zzzxzrT4IPJFYa621LH/x2PD++++HP//5z2G66aYzsQ54EC+99NLwpz/9yZ5i/Pjjj7YfAYpdvPDTTjutpSHwe6qppgoTTzxxmG222cJ5551nIh/YPv3002GzzTYzz7Hyw1OGQYMGhdNOO82858AyEPKiOGOMMYZtsX/TTTfZgLvbbrvZeXbffffaOYDx6fbbbzePu9IrcG0wiWKJiUQdE6att97ajmPrrrvuCquttlrtnNT1XHPNFc4+++zaJEqCPG5LEf/98MMPh1lnnTVMP/304fnnn+/YW5wOiINYH3fcccPJJ59sEzp45plnTBQuueSSJhIPPPDAMPnkk9fKNcccc4QrrrgifPDBB9bm3B86Nskkk4Ttt9/e7hvB/cCkkLydccYZlob2itMwEea8oLqiXiebbDIT60899dQIZaBuzjzzzLDgggvWJp5saVsmoxwX3Iu33XabXfMrrrhiuOyyy6wNJppoIkvHNfGHP/wh3HPPPfbEh/uHSSTHaI8ZZpgh7LfffrUnKnF9fv755+HII4+0JwAqD/a4r6699toRvOBAPXMdb7755uGGG24Ia6655ghPwWaccUZ7yqH8cz8oLwoTTjhhWGONNWr9ERS1b1+g3Z71qmQR6xjImSls0dnmWltGvuqJdR7h0kA333yz7StbhmbTtWo/jq/frdiggdVhFYGtVvMEpMFumbSNqGqP9LGHKGf+Ylud1WkMfzebjzhevTSUr5X7LT0/v8l/XE8xadx68eqh88V2isBuZ3FidL3FaRqlV9xGcURqM/673nUe5z9NUwRCdvbZZw+zzDJLTUyQJq5fxBiibK+99jLvNoMpQnfppZe2pSYSnfVoJh+NIC+cf8CAATaY41mXMFYfyrWHUMRDucMOO5gwYDkMQll9NgLhqKOOMvGGR3PvvfcOQ4YMCbfeeqsJHMQ69ikbj+Pp74F+WGJum222Cffee68JZfKEOEN8srQFUSMR8s4775hgQZyccsoptg97CLkJJpggLLzwwrUlOojQiy66KFx88cXhqquuCoMHDzYRiSiU4OLpx0MPPVQr55577mn7mcCwHOSxxx4zwUfa1Vdf3Y4hGNlHGoQrExSEIQKRycLdd99tXkwmPpyLNAhTJhqAmNTkhDEJcfbAAw+YTSZtmhAhbu+77z5Lg4j94x//aPsJ5JvzsryK8+288861Y/vvv3/T3u4vv/zShCiTGIR0PDESXCfxdfviiy+GhRZayDzrXAcSO4hWllQpH0xCqTfaGeFOHbGfa4h2Ovrooy0NEznammNMbt944w2zx0QNBxvxOcZEgCcXLO3Ae444Vjty/Ungch0hVBHkxAWuVSbJeJmZCHINcU1wjbKECdHPebiGmfDo2r7yyitrT54QxkzimIjdeOONYdddd7VJH8dIx2SR65Y2Q/hz/3OMJ0FMdOGHH36wdiMf3A+IeexxTXCvINZJQ/65FmgP7nHsUd8c4zrjuuI4+UfIU28c46kdE+AvvvjC6orJJHnjWiJvCHW1V6NxrbfTDrHONRPfJ81DH05bEH4bY7BVbzzqDBPrGGRhMM0AAE6qSURBVGhFPHQGtkaWWK9ysWKXPNMB33HHHXbzcvMwGHEDsT9tONJ8/PHHdn5mxwRu1FtuucU6Y3m1Yj755BPzosg+8UlHB80ARhni9uBGpZMjTpyGDozHm4onOCedL3GVH7ackxs+jq8LkrxiV+dQfB79U+8pdBCKS9lJS2f79ttv/67dOQeDLR0e8agb0pAvBIPaNYZ6ePTRR82+ysz5GPi5EeP4tAllZhBGUMRlYMCkU03t40HDPnnAtuLzG0+priOlQ4QhFDhOUDrCK6+88rs64u8PP/zQriPyhH2lYeCifVNoS7UzcQmkQzxoDWkMSwS4BpQPAmmoBwmhGAaVJ5980uxzTavMXNvxemXBPUw744kiHvEJXBd4kagb6kl1RZm5Xmhb7CtPpC+6jkjHPcVx5YW6Ij1tQJ0D51GgTomLoCE+9olPmWMhrHajHjhGXJWBLfca9ZHez3hKOTd2KYPyxHVK+yPQGCRZNtAM3AvE3WWXXWwgx+OHV5G/EXTcdypnjPLfKqTjupYYQYTjqeW8caDP5DgBcYKAUV9FnSDEOMbEhGsYTytiEcGqLWvKEUkIXgQ30BdyfvoB7BGXtdOs7Udk4QXk/Ah5rUOXZx2vZSzWESx4whdffHGzWwR2EdOILiYBxxxzzAhLkWhPrmHyhIil7+DaxZP+wgsvhMMOO8zqB28o946ELWmYkFA3CEBBeolorgPEJNfRqquuap5XhBXXaArnREySbtNNN7X7mXFAYn3dddeteWsFdYBIx+4qq6xSq+NGkH/ENvWBl77RMgndt8B4gRBGBJ5wwgm1/kbXEm2mttE9T/vyRID8cw2oD9G1y/3DEwjqVhMU7iPOQ5p99tmnMH9MBhDs3Cdce0Cfg6DFW84YAAhyPPGIYK5f8sz1xj1PO/E3EznuOyZqSsdEgicleLXJI6gfoD25Rskfwj3uU+izeQrD9cIkBc87MCEmPhM+rnH6OfpmykYe2B566KE2cec60XsuXKvchzzRoI8C6k71p7wzWZJzgHLxFIH7gklPs+/M9AW6l1gH2pG0v2kJ3Ttq41Zwsd6BbDJwMkAzK+fGYr0fHRGDCWJUZVJ8toiNddZZx+LS6fI4a7311rNHsZp9C/LHDc0Ag13SkYb4eLn0ODYuJ2IQ7xCdCI+ROQ8dMR0lg2IKgxIdK/aJi23ytOWWW1pnKduyT5nxAJAP0nAOys7jQcoWP+oF0tGRkAfiYpvBhPPQaeoRqqDtsLPttttaXPJEuUl/8MEH1wYGgX3KzEBFmeN65bFg0bpgHsfj0SDf2Fae8AgivlRWQbvQgRKHMqy//vp2Hn7jfZOYVjoGAB7BKy+KS5mpu1hYAp0Fgo+BmXIqT3iSLrzwwsJ7g3wiBCiD6pV8kR/aNIWOmjpVmxH4fdBBB9WWM5Af5YnBHoFFHGxTDgLnYJIgVHZEyDnnnGP3gq49yoLoYBBP65QyUWbqRO3GefBCIYR0HcXpGIS5t4i7wQYbWFq2DIrxY2Ol4R4kP+SZOuU81CnXkURSbJ+XQjlGPOIrDfVWNNBxbeGFo14oL1vqi7ZHHMwzzzy2zAFx0yzUJxOxa665Jsw000w2sCN+EKGsD2YCDWl9loFz4cXWkpyddtrJrl36Y+4ziRjEBIKUewZBT1z6JPpY7l88iuyLRX29gEhhEggIUPoGhK68hgTOgUhDgLEfIaQlNEzk8G7iWUegA/mVZ50XTBG7oIGTfDLZ0ZIDllZI0Mf1SH9LfXANpstyyDdimQkH58aJoPGD9l1uueVM1NHuIhaoTNxoO/oqbDOxie8jbOleIr94QfG+UjdcD5SfJy7YQrimYwv9Jv0dx/Fos9SkiFhMMLHnSQhPN7gXU7CtEI+V9D141hHrnBNnBuAM4KkAgpJJPXA+0tLn0Y5MDPAK01/EcH7qjzbCywzkj6c+XFfxJCiGvot7D7t46gGnC2Id0c19zvXB+KQlQ50F2pqJOnln8o3Xn+UulBvUN3H/0z5cr/RBcd1SZgQhQpn0OF1oV90rzQTqQ9eIxDpjBPdNCpMW7heuEZ7QgMQ61yzap5kJXF+h+4n1EdE9R9A93go1sZ4rQ4AtbuQiQVIGCoatVEDl9qw3Q1rJZSq9M2KbzdhvRx5isN9qnrqKNG+NaFfclGbSVbHfLDpHs+cp24lAK+lazZdo9Ry5wQvOY3BEGqJDpGVhAEdwMGFGkDNIM/gj/pjYISrT/jZXfiXWtQyGySrCBpRP4qgvRWji0SYukyYGOYQLExT2IbDrCQK8jogIiWTKLOHChIvJQNofMzlgosJkSQIcsY5g0TIY8kge8BAjjBBV8sJTt4gdlY+JE97XovpjDFI58FCy5jddSoKgxDvL2m4mlJp043XHc8lSEsS62ou63HHHHc0mnnXEOhN/8ohnn+VPRU+1cMJoOQRPVRDijF+cg304Y9IJP3FY5sFSjtizrvE6DsDklok046G84MDxovqJobwsY9EyGDlcmEwvssgitkRHYyxtoPOSb0R16oUGRDF1iwebSTbwlIlrijIhOovGa17Upj24zxDYwKSBCQgTCq4rzq2Xo1kuIs9zCpMr4nNtSkOwlIT7mHtT6VT3tB3txP1KPehpE3BOlrIxoWHSTptiEwcGbYg9TbxTqBscB1zHmhgwEWGywb2SPo2hvXgCwASQySrLuoD84EBhEov2kXOviM7avLeRW6xTf1zrOTUltsraK3zBNN42E9K42OKCpLOJj2tbL8TH9Ru4SST+48KODLHuOE7fhAGfQR6BiACIYRDGK4wHkoEUkYLAQjSRTn1ZTNG+qtBXsuRA6115RC+xLuLzxmKdQU7LEsgz3k32YwvRhDeYfp2neYhCvWzKsgkGR8QkwoX9eLKxTb+NF58lRDwB4RgCa4sttqitYyYdnnW809Qh+UOUyLOOCOLJEgISocw+hDHrslnGgBecScPjjz9uooaAaGIs0BIFlkowUUJYkyfOybp5bHEcTykiUWKeiRn28YQfd9xxdn7GH+qXF0xJg7eWpR/kl7wiQAl4mckP9U4aBKomDdSlvKQ82UHks598SjAK/kbQSazHT44oW3r9ICSZXDDpqueFj4nHSvKIWJdnnTYD1p+z9IR883QUqAPOTf6oC64BJiCpWOfJB8tgEOvYAdqGCR3XAd5hJm/UAyKa64t16iwXQcTSPnqiiNhHrCP0eaoHTPZYTkX9cE/yRExLiZhA8kRN69+pE13biGCJdT5ZCZqcUAauU64v2jS+d8gjEwSEPJMGrm9gosOTD7UvkxQmTugf2ownALruaU89Gcazzj7uJa7XtD3xrDMhZEKnZXc88eDJLE8ZuF84F/ukjfoyEuusIEif7kNcv2ldC/brGPWpex7S9K0EpZGjJN7XbLD/wZSLioDIlrEqAVtUFh07f3OOeNtMiNNI/NM5KI9AR8mN72LdcZx2g4BFFOBVY5Dk5T2W+SAiEHUM1AzmCHf6qRQ63HZD/4cAQRzyyB1xEHvWU8grfShrs9myhEVCjT6XpQp4sRFWCBiECoIOjx/LZiQiBN5DxAlLH4iLp5a0CAtEIEJDdcYxlhqQPwQuok5LDzg3v1kGwOCL0EJAsywJAYPYQpiSb7Z45dliFy869vSuCstPENZ46ZV/RDoTKwQRkw1EJemoL5ZzMFngJVZEGfln+RJ5R8zj7SavLKmKl+RxfTBZwRbXA0IM0cl5yR/iU3ULTBgQjJSB5VAS6xrDqAOWwFHXrIXnCURM3J6IQ+qd9eUS1a2A8GSCxTUcLzXEo80+6pb3RID24dzUES9W4gVHtCO2YxDYlI+gpR/y4NMOtCVLTqhf/ibQLni25YkXLN+kvVjepckOkA8mYVwnCHPaljrHJm1EGu5VwbVGOYhP20qsU9eA8GXSyr3DRDv2rKM7eLmZPoBrOJ6wc4wloPQNXNe6V/hN3dE2lB3IMxqJe43rkomqXlSOoX+hbqk/rbcH4rLsi0k2S54oo94J6Msg1uUIkFjnXlLgum0l0Idrwk37VgnYY4st2dO+ZkM/Ogi8IgQyxkXElv3NBqVhS+ACZ4bKha84zdiUHcXFDoG/498cA9Z5McDwGM7FuuM47QQxpq9f4CBgLSkDeqNH0V2FhBtb/S4iPtYoXhHqnxlkUopsabBrlSJb7Gu1b9cgLcg3oqwZO63UTVFcys256nk8m7HfKA7H4uPpOXSsMxuimToBRIPO3ahc9c6LYEXscg8hrgRjOrZj6tloBNco9V40Wa6HysE2PSd/NyqT9sV1wW9plZQiG0UU1S3E+UnRfdkoTm8mFuu8l0Mdcl3RDtKPjQLXjbakYxvrYgL3s/pB4si+fjcKxNM5lKbZtIQRPt0YowZvJqSoU6Rg6fE0bRxSqGxdgGwJcTw86zxGRKzrZZp6F7njOE5Z6Fd4VI3HD8GR9jNF/VdfIi4/v7tzP1ymrUiTlrEVO63G761w77AWHbHOsp3eUCc5ylB0fWhfDvt9AS2D2W677UwQV4U+DA0r3al2YBv3bzqWxtFWvwFbmvBCIzuKo98jfA0mF2SAGQMFrQJ2yBuw5e+4EIh1vU3vYt1xnHagfqev06gOvH6cZsDjyWcKeSlYn3qE3nb9+P3Q9eQW67QhT2hyaUrsYavseNKtP91IviTWsalCKp8u1h3HcbqWquNErnHG6fnE47njVKEdnnUX602SinV+x3nkzW+9TS+x7je+4zhOPuhTO+tXG8Up2t+ZPcdxnFZol1iXBq0KfV5lsY6oRgznIpdYp0AqVFEBEev8pxZ8FkkvmOaqWMdxHMdxHKf7064162yhjMCOIb0c0GVs9RixTgFVaQKxztdg+M6qL4NxHMdxHMfpe/QEsY6nHn3c68Q6laSKqifW5Vl3se44juM4jtP34Lv17RTrVUGgo41Li3USxWK9jJEUhDVine9RijJ29cgAigoZr1nnv4oGxXccx3Ecx3F6J7EeRKzzGe9tt912BLEex+F3MwFSsa79ZcEOnnVCGVv9lCFlCiNsywbSkxkqC8Gu/fKMExDd+rtIhAsX647jOI7jOE5KrAf5bj9LoovEejNB+lR/ozdxOLPVsSoBOxLrZWz2U4YQ6xLHMsS2sxCnYUs6bPHfvVJh2qfjcVplQpWTItug9HE8F+uO4ziO4zh9j1gP1hPrII3ZWZBWZYuo5n8OlSdcelRxOgvES9OgtQkS7K0EW7OuhLnAVo416yooYJPfVJpwse44juM4jtP3iPVgDrFOEAhsrTiB+FgZSC/hXcZWt37BNBbr+h0XMhbresHUxbrjOI7jOE7vJtaDjcS6IH5nQaRivSrY7rViPa48KiwtIGJdn27Ud9ZzVazjOI7jOI7T/bnwwgu7/acb+4RYx2OeCnHEOp9uRKz7pxsdx3Ecx3H6Hj3hO+u9VqxTSaqoRmLdv7PuOI5TnqoDUU+F8aJe2dNll47jdF+6u1jHDtq4UZ/TiB6zZh2baefpL5g6jtNXoS9Uf8j2rrvuChtvvHHYYostwtZbbx0222yzsMkmm9iWfazl3H333cPJJ58cnnvuudogVI8yA0pPIi4fXy8744wzwkILLRSOPfbY8Ouvv9r+uI6ht9eJ4/RUeopYL2unR4n1tKAu1h3HaTf0Oa12sGXStEp6josvvtgGK/rD9ddf3164Ipx99tnh1FNPDYceemhYYYUVanGmmWaacOKJJ1pfDTnHgJ7Gzz//HLbaaiurly233NLEO5T1gpWh2fOk7S66Kp+O0x1pt1ivisR6WXttE+tUVvw/mJYhFev8jjskF+uO43QlH374YTjooIPCvvvuG1566aXwj3/8o+PIcLFER0yoJ6jayaWXXhrGHHNM6w8vueSSjr2/h74Zbzvxxh9/fBPxn332mR1TnhkTvvrqKysjSwyvvPLKcN9994W33nor/PDDDxZH0Dd/88034d1337XtL7/8El5++eUwdOjQcO2114bbb789vPbaa7VJgdC52JIObz/9+HXXXRfuvffe8Oqrr5qtGPp38vXGG2+Ezz//3ET2+++/Hx588EFLN2TIkPD444+H7777zuLHbUCZiE8bPvPMM+GBBx6wdG+//Xb49NNPw6677mp1wlMIedY1sFJG4lEHfMyAOnn44YdtDIrhfHwK+csvvwzvvfeelYv6ovyku/rqq8Pdd98dXnzxxfD999/X0sT5/PHHH63eqYvTTz/d/mfG+++/P7zzzjt2jDxh85VXXrE80Z5xevH3v//dzvPss89aPnxsdHoz3Vmsc39ih36k6F5thraJdT4mj93OSDuqGDoXdTDY5Hcc18W64zjtJO2fEIoI13XXXTdMO+20YbzxxrOlE4j3p556qiPWbyIv7sPaTSzW+TJCDGWI+0/6ZiYdxO3fv7+JV+1//vnnw1prrWXHJp54YvviFn8vuOCC9t95Tz755OGII44wgQsIx7333tuOcX7SzDrrrGHllVcOyyyzTJhxxhnN1nTTTWeCGjErnnjiibDsssvaRwKmnHLKsPTSS4eVVlopDBgwIIw++uhh3HHHtXNJ2FKGo446yuxNMMEEYY455ghTTTVVWHTRRS2fM8wwgx1jEkI8pWOicM0114TFF1/czkUeKQ9/Tz311JbHKaaYwtLutNNOtcGe+iCdyjD//PNb/lZccUUrI/vmnntumxxpvKM+dtllFzvG9TH99NOHmWeeOSy11FI2Xk022WR2jPMi+hkrle7MM8+sHZ9rrrnC6quvbufiWmMf5UR8M9Eg/+wjDhMl0LVGuTfffHM7TnsxsYD0OnCc3kJ396xz39H3lbVn/4MpGSLwG2OtBqVjS8CjjkeEmT1/K5OpfXUa9ToOjhNAduK4fUGsp3XTWSfbqD5z0KrtdualiM7K39X5SYnP31leq9Ju+zmol8dm8p2rbM2eSyEGTyfCCU81YpWX3Zdccklb/4z3tyv7o8suuyyMPfbY1h+y/EUo3wwSyj/bq666ysTkGGOMYUIf8PyyD+GMPQlQQZnWWWcdO8f2229vgyIebtbCI6xnmWWWcP3113fEHg51wLkQnBNNNJF5ijk/9YYgnWSSScyDHD+lgI8//rg2aVh44YXDBx98YPtPOOEEq2v2H3jggSN47CkjS3s4NtZYY5lXH/DwI+DZv+eee/5uwGQCRt44vvPOO1teGMNUVoQxk5gYyoXYnmmmmUzoU4eMa1wT8tLPM8884bbbbqvVO/z0008mpCkDwuLrr7+2MZMnHKRhQvDoo492xB4O498xxxxjbbXqqqvaRInzEZ9JDW0liEt9MyFhgnTHHXd0HHGc3ktVsc49SuC+5h6i75PTOdWuZQJ20v+9NI3TKLTFs05HqP+mtQpUmgY78sfvuNPrCrEenw+UJzWsQiM6Oy6IFw8i6d8itsdv6kbxlCaOA/pbx4uI48S/i4j38zu2qfNrf73ziTR9ajvdKi6/47bojDhtIxRPNtO/i+BYfDy+TkQcJ7XH37RjvC8ltdUIjitO/BuKysLf9fYXwf56xyCnHYLqJ67TonSd2RL8jkO6L4a/4/PzW/A7FrRffPFFuOKKK2zNOOKVvmm22WYLRx55ZHj99dctfUrR+bRNjzUiFusI4pS0fZlQ4GXGQ/zkk0+ac2X//fc3QYj4XG655Uysrr322mHNNde03whFysM5ELBPP/20lR/RzECJgNd6b9D5EL+8/Eo6vOcsuznllFNscsPEAG/1euutZ+dYY4017HwbbLCBedhJQ5DoPO644+xvBDyTh5TLL7/cyoWXHzHNAMl6dEQtTxPil0cFAltLg3g5lwkAS1GYfLAPQU49kDcCT1Zo4+WXXz5MOOGEFufPf/6ztT/1ITG+zz771Lz7gnagvkiz6aabWn54wsA52Fc0cSENgTGVSQTXIudh4kK5llhiiZrAf/PNN8OgQYNs0oWteDLTyvXkOD2J3J517hXuMe67HGAv1QSt0NYXTHvimnXS4+lgvSTr/eiwCawP/Pbbb39X0fxNfLwuis+WQP40YVFZCDzuZJAhDnZJw6DHukYGTKFzMfgRn3MQny2PQlmvyLE4T1xYdPSs43zhhRds7Sj2SUOZGDh08bElLXX7ySefWBzSELBPWtZexhcr8QnE59E5cSmHzsUgnE7S0jolHvFZo8rj2/Tawz4DEoMO+VDdkoZyMREkDvlS3riGWSNKnlSvpGONLZ4s4sdQR6xdJa6CykCZUzgPnj7yo+uBLWViPajyofNQB3gcZVvtQHq8Yml8YNDmGojLy5Z8asAlvtJwrRAfu9gnLnVKmVmbq3hKQweGd5L4CjpPLCiUjjJQZmxTXtWp4iueoJ2pO+wSR/nnb+pCZQblibXF2FW9KlBmLQ+Iz8MyFMqIXdlWfAmcOD5tT30o30qHcFaHrrwAfdZHH31Us82WtMRH0KVw7XKfq45IozbgGPcna5S3GzaAaCkFWwQndjkX+Y7zUBbE+jjjjGPnOPfcczv2Doe6pz1pI6C+WVKBqN1hhx2sb+OeY/kGAhohzAureL9Zp80acgK/2XfPPffY2nDql+sfzzrLUvAoc+2lYB+xS94WW2wxa0eEJn+Tj8GDB9u6bOwTqDPOw5ryW265xf7m/iD/hx9+uKVjCQt9RApPBxCwTDpuvfVWawO+isNATvl0f8f1zT4EOHaZcHDt0ZYss2EfnwhmzTn5IH/klfpgS2A/1xfXD3XCxASxzuSHv2M47wEHHGD1zCSC+qLf4lzs42XgVKwD7UPfQX3T3wH9KmUjj0wA6E9ZesTfTB6IC+n1VfVac5zuRruXwVS9Z7DDmBCPg63Qo74Gw++4wnKKddmlk6bR8RqxFnHgwIH2WBLPBY9KUyFKOgZJ1n0SGOTwBvGbARmREueZhqJz5/Eu9rFNoKNmMNPawxhEAB4Y4mN3vvnms8fHeG8QBSl4d/AgkXfis8U+a2sZZFNop5NOOikssMACFpf88/iWtaS8JJZeG9TxIYccEuadd96afbbU0UUXXfQ7EcTfrFXFC0UavD6UmXIwoKSeJ3jsscfM00YcbJMn0saDbQxCHU8X+cY+gfrCC4bXKm4DYBCjDMTHLmVgu8gii5hISYUiwvjggw82m8QjP+SN64/1qnGZgfQsB2CQp6y6Juacc85w2GGH1ezHNy7XBXVEnmgL4pOWNbuIHYjLwQCPl5I4agPSIgAQmbKtLcKQc8u20lBXLBMQOgciA0GFmCKeykw7638MBsVny6N56khlUNmpo3TyTr7uvPNOu864nsmPykLbpC89AtcR9tTO5EvXRdG9gCDmPsE+6XQO6pn7ijzE9jknQkrtRVzOxbpg2iduL6BMeM2Jw71P3XAOlsLg4VUfiCBjSQZlpb8izD777CbmtLyjKvKsI8Dx7hfBZHe33XYzYU0e6OeYaKge6EfxquMtPu+882r3vuqIySl9F15gvLb0h9y/LC1BHNPPcG3E/TBimc9FssyENeWcg+O0JXbYz/ryVNQixPF2s7Z7xx13tHuWfGjNOtd+kVin3hHKhBtuuMH2nXPOOSbgWQpDvtM+DYGvZTJcS9zPlGu11VazfVxrjzzyyAgTHtqWJxhcJ6wrv/HGG23coxxcc5yPayktF1Bf5I949GfY4jpiH/00k6kYLQmibekz42uGvpJrCU861yvLf3j6oSVAMen16zi9hZ4i1svacbHegeyybdShVW0w2e/MDsebPZdsUnYGk0b5L0ucl0b5Ul7SOI3SCOI0E0/oXPpdDx2T/UZxy9IOm/Vo9lxpvNx5bMVe2knlzoto1S7xy94vpK13PrzweFsRxno5kLXZiE+Wc/B0LaZsfcTpWKeOQORcbOOAkGYg4xhbJlS8zIiQBvoO6oFJJN5oBChxeTkRLzFLQ5jwaB+CGacAMJFkcsVyFjzDCErSb7jhhvaS6aSTTmrpmACxfjvuo3kRFpFJOiaCeLcRo0x6EM+IV9aQq77IH8Ife0wGeeKRwkSFPCBacTYAnmr2k4a05IkJGBN81nazT0uIGOy1VIYtHmvyx7IaXhKlDVkOxMSE81BuJrUaQ5lU4J2n3hHlaVsTjycRnIvzM4ECnjJhR/VIXqlDXpzl2knLrLZnwsg39MkLcag3HA6O05dwsV4CbPVUsQ6tVmaj+DqW2m9FIKRpG9HZ8SJI0yidjsXx0jTxfsFvyhnvA/6OQxH19rdCM7Zznb9KfknbWZ7SOCll06T3VBGyUxQ6I47DtRB3fM2kL6JeOu1nW3R/tXI+4io0A55znlohvhDG9EkILIQnyyX0JCWm6N4oAzZoRyYIPF0g4InlKQFbAssn6C9ZfhIvtYvBDv0s+WJLfJ4m8FQEUc1TED4fqIEQxwB9PJ7h/fbbz8rLMhjOhWeYp2x8ShHPL4JUS7mKIA2TG85FQNTj8VcatQXn1JI6bJKXON9AW2ipVLqchHiUAY87gztPlHj6Qvsgeqk78iKnh8YTtixzIT754ykGdUMdKQ75AOqE/Xj9mdCkbU98BD35oI04r9ICEyjKzhMKvkRDvbDcDdEfx4uhrDwlYULBEqj0KZbj9HZcrJcAW10t1nmRCIinyi1D2YpsJR1x68VP97cStytplK8cxLaLzpUe17ZRvHbQiv2i/EG9/UXE8Rqlkc1m7XYl3SlfZfOBFxQhyguRWlKCx5klFKxpTr2pgr6pu7ZJK8R9LOIWTzFifZtttql947wROa8B2Yntpb9znasz2n0e7OsaYoklEwaWE7FUjWuQF3W1ZM5x+hIu1kswssV61Up1HMcRcX/Ci96sd6fPYRkEAwPvJqQvn5KmN/dDsVhHHPK/pPLOzWmnnVb4Iq6TB11TbPG6s+af9eosl+Fpgcbc3nztOU4RLtZL4GLdcZzeCEsa8BwjSOM+s6/2OZS7Xtm9H85LXJ/8TsfstC30G5EQ73ec3khPEeuy1yr9yED8hnsOyIyLdcdxnL6H978jD+o+Do7TV8gt1rl/YrFeFeylGrYV7H8w5WUUAqK9aiAzeJ94i54XmSS4dYwt55KoVihCacHFuuM4juM4jpOSQ6yjHdGZ6EiEOlqWLbpV2yoBG3EoilMv+DIYx3Ecx3Ecp8fS7mUwVcFOFX3qYt1xHMdxHMfpsbhYL4GLdcdxHMdxHKcrcLFeAhfrjuM4juM4TlfQbrFeVVe6WHex7jiO4ziO02dxsV4CF+uO4ziO4zhOV9BTxLrstYqLdcdxHMdxHKfHcsEFF3RrsU566dgymFjnG45lDRSBLb5Pid0qUEmqKGymM5JPP/00LL300i7WHcdxOoF+UcFxHKc3Ic/6Nttsk0Ws00+iYXP2l0U6tllqYj3OVLwtExDM//jHP+w/P+Jv2dK2mQAUTOJbM5L4+CeffBL++Mc/WgPdfPPNts/FuuM4zm/EfWaK95X58Lp0nJGHxPrWW29t/yEnyOGrPlB/Nwq6j9GbeNbZgmyUCYDtWMeKNG5RgH54wP/2t79Z4fhNYAmLts2ENB2zmp9++in88ssv9jeiXcfidGmIj8sOgb/1m0kAgQJ8+OGHJtbHGGOMcMstt1iBXKw7juP8nrTzd7oGr2/HaT+I9dFHHz1svvnm4eeffzZxjNhuNeh/9Ednoo3ZSpuy7UzHKsTxsIdt6ViO6VyKW2Q33tcPj7p2InT5GyPytpcJZADxTyHL2iSdCkggf/ytmQngWV9mmWVcrDuO02XUE7zdod+J88Bg9f3334cnn3wyPPzww+Hzzz+3fVWJz1G2zKSrWl9KX2Srqu0qMPa9/vrr4amnngofffSRjWdlKCrTyCyX43Rn5Fnfcssta571VFc2E6RVJaT1d6salhCniXUsf6NVpY+bCf3ovCWC1RlUDRjW7KHoeLMBUa58qWD8Fi7WHcfpatQ/FTEy+x7OTX8uQf7QQw+FZZdd1t7pIcwxxxy2T3lMy5H+ncIxbCteLPyL0sX7iuLreFFanacI2YqP8zfjjs5RL21MGif+u95v4G/O8/zzz9vLbNtuu2149tlnO46G8O6779bqfbfddgs//PBDx5HOwbYC45/K0wxpPh2nL1G0DCa+n1oN3HsIbC1bqRqwo1B0vLPQlhdMKSRCnYJWATvKF9u04+IFUxfrjuO0E3WWMfRtH3zwQXjuuefMYy3UXxWl6Qp0TpYh7rzzzmGUUUYJU045ZZhxxhnDqKOOGtZbb73w8ccfWxygT1WauI/lNwPer7/+at4lQVwNYPo7hrg8giYdfbEgTfw36fV4GbDDsklC2s/zN84f7FIuHk0rDlvlJYVzEpc0Og+QD9KkeQeOkebHH3+0wO90HOOcjJnXX399GHfccS1cddVVNXvK73fffTdC+divfOMgo6ycAzEfl4m4KhP7iEsQqmMCbRTXa0xR+Rynt9KuF0x1X1ZFfUDZ+7LHfLqRbVpQF+uO47QT+pJYOOGZ3mOPPcxLPdZYY4VJJ53UtgsssEA46qijbNlDUf/TlX0S5zriiCNMqE877bThkUceCffff3+Yf/75w9hjjx0OOuggE3oQD0Ske/XVV80bTPlmmGGG0L9//zDffPOZp3iHHXYIK664Ylh++eXD008/3ZFqeJ97ySWX2Gd0mRSQduaZZw7TTz992GyzzWzwpH6OPfZYE+hAPfK+0UILLRT22WefsMIKK5gneuGFF7ZjgOC/8sor7dyyO+uss5rtRRddNOy1117h7bfftriqX0TtPffcE1ZdddUw9dRTW9x5553XyrHWWmuFjTfe2PJ/4IEHhi+//NLSkPadd94J++23XxgwYECYaaaZrMz8Zkt6yvHMM89YfOLuuuuuNgkiz6ONNlqYeOKJzf7LL79s4nuXXXYJ88wzj31OToKdgf+VV14JO+20k9XN5JNPHqabbrowzTTThMkmm8zKdMIJJ5jIFzw9Jv6CCy4YNtlkE8sHeaI+pppqKmtP/j799NPD119/bWVRXUD823F6M0We9SrQN6Jh1UdWvZdIn2rYVuiVYj0egBzHcZqhqBPF+8mXplZaaSV7eQlxhii99957a95ORNJ5551nQpPj448/fthxxx1trXjslaYPq9rhdwb936233hpmm202E5DHHXeceZnYf+SRR1r+KMfll1/ekWI4HD/55JNN4HMcQc9yDoTjG2+8YRORWWaZxdJPNNFE4fbbb7d0Dz74oE0I2I/45hO6iOCvvvrKRPfaa69dO+cBBxxQE6KkW2SRRezYJJNMYhMg9uH1p47ee++9sNhii9nxNdZYI9x3331Wzwjhl156yV4iwyYCHg83afCgI2ZJw8QEbzcfIeCcPAH585//HMYbbzw7jvDVE5EXXnihtmxliy22sHPj6WaygFg+9NBDrcxLLbWU1QWQl4suusjamnDuuefa+wHUI+XnXAhp6k3eb+Kzb8IJJzRRznnkVUfEb7DBBpaHxRdfPDz22GN2HtqACRL7yQN2WXJDWaljrjvqj3Y78cQTR/Aotvtac5zuhIv1EmBrZIl1xXccx2kVvJ9vvfWWCR8ELyIJD+jhhx9uoi5eTiHiPol+jxcLEZ8ShnhFzz///BGWnxTRSideLy6eZv1HcQg7vMAIQjzaTB7w3nJs5ZVXDk888URHqhAeeOAB8z6TZ4Rn0XhAnag+Hn/8cetrEbLsw8t85513dsT8Dcq8+uqrWxzqBEELiH28w3i/03SI2EGDBlkavOD07awPp14pAx5unhbgJScOwhu7CFdEK+WI15ALJl544xHMG220kQlxoM1YjvLFF1/YPoTzo48+Gm677bZw5plnmlhmYkCemCgA9X/XXXeFKaaYwkT0jTfeaPuBcYmnCYxLxxxzjO27+OKLLa88hbn00ktHGKewRaDc5It422+/vR1jqdWf/vSnMOaYY1pdx5M/IM943lnixERD9es4fQ0X6yXoiWJdFalzKKTH2hF0Hn4jFrROyoMHD/mD7mfdd/RViMc111zTRA8dPgLzuuuuC5999pnFEUrTLIg/BB8CEhHGkgmWkyAIuc+L4ByNzlPvGP0hgm2cccYxcYkwJCD06CPZcow8kBcGNXliEaazzz67LQFBqAr6cuoK7rjjDhPl2MHTTb1hA1u8aImnF+L8k/6kk06y/CBg8QgD9c0SEDzjTIJiEOUsC8HuXHPNFVZbbbWw/vrrhw033NDELFv9zRr8c845xyYF++67r6VB3L7//vsd1n4DTznLRVjes84669SWwSDAWdbCOWn/ueee287JVyVYosOkAEHOpCvOK5MM0hSJddqBMuNZB/JI3vCCx/Ub1xWefvJB+5AeEPBLLrmkLedB5GsZkdIg1pkEcc0yOWNi5jh9ke4u1rFDf1jWTq8R6zz6BVVsWRhAWX+JF4VOm0fb7Q6s52R9JOs3eQTK42F+c4zfaXwPHjyUC7qfuL8IeHfp4BFSAwcOtE8cxlTtoGPoF1mDjfDifIg8BCyefBH3ca2cm6UUxx9/vIlNxDRLQIqgX+YYeSAeXlkEIJ5o+iDE/O677/470Ue+WMZCvvEmIzhZBnTYYYfZPgQwAj4FD/ycc85pcfbee+/wzTff2H6EP8tnEOssUYlBaGuJDKK5SHjTT1922WW23Ojuu++2usWzTplY187kIx1/mExsuummJqJZcoJYpwxbbbWVnWuVVVapLXOJYbLFS6T00y+++KLtYzzCQcRThlSsM0FDbDMusU4fbrrpJlsuw7mZvBS9AMe1x5jDBOuUU06xfYh1npSwxp317xLrgjLsueeeZtfFutOXabdYrwp2up1YpyPLLdbJH7/bLdY5B2scGUAJrBlsR+DxNFs6Y37z+Fp/x/E8ePCQL8T3l+49hBbrrRFsCC/WPdOf1PuiQFFn26gDRqAi0vHcIyY5D/0WQhbPaL3zNAt94w033GATD+wfffTRvxus4vzxcikvQ5IPPOmsFQe8zuwj4HnGaYEAZz/OC5aPcAzRydp04IVU1vOzH8F+yCGHmIgdMmSIeXy1zh0xiVinvIDA5sVKvPnUQ8prr71m4pi0TK4Q4izbYVJx4YUX1p5UsNacl2cpH2VGsLKfCQUvyl5zzTU2MeCFUtqWY4hhvOXyrCN22Y+nn6U+vDzLkw/S4qXnGIEXOhHuWndPGeSNR/yTD+qWSQFPADgPYh2PPuMST2p4jwBBwfkR8Ih/ysREC+FPPR188MG1Jzpcp5SR8px11lm/a1fqk/zjjee6dbHu9FV6vVgnMd4FAr+1DKNMIL3sUVkMQtqfxk0DBaEQCiB7/B3HE3gw6Ezp4HKtWY/P7zhO34H7nv/MBlGplyYRcHhC//rXv3bEGk7cX0HaZ/BVENYds+wBO3iyeamQpQ5xHxXbgNROMyAQTzvtNFsagqhtZt0y3mq+GIPAY3mFvg4DLPXAu45gR4jzMicvcSI88TBTpnRNOB5f1rqvu+669iUWJiZ44lnXjfebOkA8MzYA9cN7AKzpLvKcC9am4/lmCQreZdqDZSF8lpIJgZbVxDDuXHHFFTZokw/WnPN1FiZlCFsENktcJNZpD9bEszyJ8/AVFyYRePWHDh1qEzqEO7Z48snLubQ/a+DxdpMXzoEAZ/LCew3UBU8tmOzEbUoaBD8CnK/McJ1RLsYxRDoThXiMI4+IdCYbvFdAPWOPOAQmAkycOBftyBOWMteQ4/R0coh17h3pVYQ697Kc2dKgZQN26P/YFh3vLIzgWddNHm+bCYorsEWHSUHT40rTWQDsKF/6HXdk7RDrjuP0DeK+pgjWQbNkRC9s0s/wH+DwkmM6GPA3Sy9YSkNcvviBIERIpd7ORudsFYm2IjgPx3S+9O8YRB+CD+85S0W0/lx8++23tp+y4enG4wt49HmyiYgfPHiw7YvBC463H+9z+gWaIuK8FeUzJY6DN5y2wsPPpIVxLYYXU1lmwpMBjkv4puNKSjP5ENhJxyCl51ij88Rgo95Y1qwNx+lL5PKsx/crfQj3IfvKBsFv+pqy9vrxj8R6LrDVjmUwBPIr2rEMxnGcvkHcl6Skx3A+4CVmeQPLIfAu0/fg9V1iiSVMxOIlZQ0667nxhECjc1Qlts3vuO9Lz1v0N/E1cABrx/GM8+14lmvwcifLX1hXzldi+HILXyTRunPAk4sgZxkR6RDKiHkmLcRXPTFp0Zd0OC/nVBBFfXd8HNL48d/UOZMr2oPzssyG5TJ4y1kixEQErzlf5mF8agXOE9dVvXzF2zR/ot6+ov1QL349+1Bvv+P0VrrzC6akpf9Aw8peq/gLpo7jOC1AX8TSCNZnL7300raUQ0sqehL1Bh+WlrCen6UqBF665D97igdA0sbpEeLUAWvNWVLCF1bwviPsq44DzaL8MP6QF945Iv/kh+Up7NMkynGc3kV3FuuAndTh3Ao9RqxjMy2oi3XHcboC+p1GnWzc73QWtydQJv8jq8zNnrdeu9Tb7zhOz8HFeglyifW4E5VnPQaxzos6rInU/6jnOI7TlbjQGxGvD8dxuhoX6yVwse44juM4juN0BS7WS9CVYl3LYPgSg+M4juM4jtO3cLFeAmzxWSx9U7cs6Zp1fscFlVh3z7rjOI7jOE7fpDOxLudvZ0GkYr0qWcQ6b8hLFOcAW+0Q62lB+c46nwzj+8cu1h3HcRzHcfoezXjWY1FeLwh+t8OzXlb89yOh/lclfhPkwZZYbhTiNAqIfyoLwc4x2UrjaR/HiypCcaDIs67/FIllMC7WHcdxHMdx+h45xLr0LL/RnGhj6c4i/dpMkE3soY3lHG811P5TJAykmdXvzgJx4/hFYr3eVqEIZRJcrDuO4ziO4zgpuTzr0qbozVSsx3E6C2ncWKzreFG8eqFta9b5H//avWbdxbrjOI7jOE7fpruvWcd2kY5tlh79gqmLdcdxHMdxnL7NRRddZO8vbrvttnU9662QW6xjBx1bRqiDe9Ydx3Ecx3GcHovE+jbbbNMWsV5WZAsX6y7WHcdxHMdx+iwu1kvgYt1xHMdxHMfpClysl8DFuuM4zsih6qDiFNNZvcbH+e3t4Dhdh4v1EmDrn//8p9mtgot1x3GcfDQSkVUHo95IWl/1foui+BrsIT3uOE4eer1YJ6GLdcdxnJ4NfWMsDIFB66OPPgpPP/10eOaZZ8J7770XvvvuOxeMJVCd8Z1kxjeeHKf1HUN8xiwN+qTReBbjbeE41ekpYr1Rn9EI86zT+eQU63RI/ulGx3Gc9pMOIu+//37Yaaedwswzzxz69etXGGaYYYaw2Wabhccff7wj1fDBpLcIx0bl4Fhnx7UtqpPXXnstLL/88mG66aYLF1xwgS35hJ9++ik8+uij4d577w1ffPGF7QN+77bbbmGqqaaydvnll19sP2NafK5maCYecVq16zg9HYl1Pt2oe7IK3Dto41z3EH1J0WS9Wfoxc/jXv/5lgYzxd6tB6dgSEOq//vqrzW7S40qjgKBnWzTbcLHuOM7IIu5r+N1sp028st6TKnz66adh0003DaOOOmoYZ5xxwjrrrBPuv//+EbxM/H799dfD5ptvbqKdvnPfffcNn3/+eUeMxgIv7oObHXxarbtmaSWuSPPL3820lc7F9ttvv7WnFDyt+PLLL2uOrkceeSRMPvnkJsrvuOOOWho86m+//XZ44IEHwltvvWXjXUpnZSGPrZY3zrOC/nac3kYOsc69QZ+AVkUTy+kca9ZWg3QvdrAZb9O4jYItg8FYM51us9Cx+DIYx3F6IzgirrzyyjDvvPOGySabLKy99trhlltuCX/72986YrSfVHB9/PHHJrrlOT/nnHM6jvxGnIb+dMiQIeGPf/yj5f/JJ5+0cUCwXGafffYJc889d5h66qktzDTTTGH99dcP99133+9sDR06NCywwALhwAMPNFsbbbRRmGeeeSz9oEGDwt5772399ddffx2OOuqosNhii4WBAwdaHa655prhwQcfNFsSzg8//HBYdtllwx577BGef/75cOKJJ4b555/f8jDrrLPaMfJfNMZ8//33NnAvs8wyFn+aaaYJU045ZVhkkUWsXvCAQzyeIMDPPPNMG094IkG6GWec0cp06aWXjjA+fvPNN1Y35OHuu+8Of/3rX8Nhhx0Wpp9+evsfFMcee+wwySSThBVWWCE89thjNjCfcMIJYemllw6XXHKJDdICMXDPPfeEjTfe2OqKc88xxxxW1u22287qLObHH3+0usWrf9JJJ4UXX3wxbLDBBjZBoJ5Jt9JKK43QRmz1u4zod5yeQDs86/QvzUzmmwF7qYZtBX/B1HEcpxPwjJ5++ukmAMccc0wTxHiwCRLI4447blhrrbUs3ssvv9yR8jfouxRyENtBFC6++OI2WB1yyCHh559/7jgyIkrDtmjgQPQjEikXXuLtt98+XHfddSYojznmmDDXXHNZWZdYYgnbBz/88IOJ0VlmmaVWFwhZ6uG4444LCy+8cE3ETjjhhGHAgAFhl112CQcccEBYb731wsQTT2xpjj/+eBO2mkjoXPTvnO+MM86wvBxxxBEm8jmGIOZJAZDuwgsvNMFLPSy11FLhrLPOsmUpV1xxRVh55ZXDWGONFaaYYgoTuppcXX/99WH22We39kMI33DDDTb5Ovnkk629OQ/CHWEMTB7+8Ic/2NMLBD7edc6x4YYbhvHGG88mB0xqOAdLkmiLLbfc0uzsuOOONmEhrwhq1RlpmJjcfPPNlp8ddtjB8jn++OPb7zfffNPOTfswCSINgfqkXGeffXY4+uijw6KLLhpGGWUUO7b77rvXJga0tUQHbZ62u+P0dHKLde6XnGIdO9z3Ze89F+uO4zgJiBy8pohVPLkSR/WCBJICYrd///4mnFn6IOi/1JdVIe4HsUf/N+ecc4aJJprIvLc6XjQwFO0DnhjgIWbAW2ihhWyZRwovp+61114mvldbbTV7eRWBjecbsYtnl4kDaEx56aWXLG/U0amnnlrbDwjmPffc0+oMocxSHrj66qvNU41HH/EqlHcEsgQwIhmP81133WUCl6cdeMPj84hrrrnGvNAE6ow4lAc7CPbBgwdbGQVjGOKcJSwIZWDNOqJ4ggkmCOedd15tDTrlnm222cxO7NnGa4+A4BysWafMr776alhyySVt7GLSIm9/zF/+8hdrC9IdfPDBNthT33je2bfKKqvU6kvn4qmCJhjUC08BgOOkr9f2jtPTabdYr3rvuFh3se44TgYQgFdddZV5cRE79QKiU6HoeFHAe8w6cdYyI6hyQp/Ii6KIv9FGG82WaODtLkL9J1sELh5sPOB4gBGheL3JL15almikMIlhCRDLPPAKI2IBEU4/zJMFiVfEPzz77LMm1lm6gWc8Xm6DPc5Fvtddd10To4BoZuJBW8hzHkP+8aLjyV5xxRXDK6+8Yi9xkneWgXz22We1eDGsNccmXv7TTjvN8oJ4xvO+6qqr2gQhbrc11ljDng7ceOONtfLw1AQbeOnxaGs/a9apEyZ3eNo1yH/11Vc1sc6XKjgfQpxJBfWiyU0KL6YqHUuV8NDTZkyI2IfHXecQXFu8OMzx1Vdf3bz4jtMXcLFegp4s1um833nnHXvEi6eGThcPG3/z24MHD70jIDRZ8oCHFuEUL2kpCq2Ic4WiNAhTvK+s3X733XdNsNKRx4OCfjcL3luWh2Cbc7KEI7UR20X4seyC/LBWGkGNd3eLLbawfQx4+qJJnA4hznlYCoSARBSTfzzrLAthSQaCUnEB2/PNN599gYa17UViHU89S0c+/PBD249nHM/1ggsuaAJbkBcCtvE202aIUsaC888/38rOE404jfLO+HHTTTeZIGficOedd9o+BK3yzN94o1n29NBDD9nEZ9JJJ7UxhvPxgi7jA2vumShwTi2n4WVe1rqzDAfbGlPx1G+99dZWr2zJu+qESQ91QplSuEZZBkM66pw4ePe1PIg2StuYNuQlY44z+Yk9647Tm3GxXoKeKNZllzzjXeNRIh0yaxPxWLH+kcBvDx489NzAi37acn/zEiGiCYFDkODV32VEukI9O3iNOS9LGfRyJdAPNdOZF8VhaQV9FPbx5LMMAi+4RDfCmK++4LVmDTbx8OzedtttNcGJcJx22mltLTQCUeIZ8NoiyqkrjuslVvr6U045xZbB4NXWkg59heaFF16wddacE49yLNb5jecasc7Xa3hZk0GNZTB4qdmPp5j14ho0KQ9LV5gwsJzl8ssvt/0IWc5PubD11FNPWZmBPLIEBiGPVx0PN+VBOCP2ScOLmh988IHFF1quggjg5VlEABMs9lEHePdVzieeeMImYeQJT7wmYUwGeA+AcyAkeOrB5GC//fazfVp+E3+1h6VDTIa4Fqk7xD+w7AWRTzpspkKCiYE869SBxLrj9HZ6vVgnIR2mRHEOsEXnqI6yLORNBcMmhY0LiljnawY00K233mr7VLFlqZrecZyeBX0LIgivK55chE5RkNhmqxD/HcfV/lj400/x1Q+e2OEJb0QzHXq9OCxpkWitF1jGEa/Pjm3xJRi+LKK4iFvyzm882fS5WppCOmzoSzS88CmbmgAwGUHYcvzcc88dQayz1Obwww83UY44Je/Achl9xUUvkxJwzGiL5xhRC8o/6+fx1Cs+QS8EE5gAXHbZZRZXfT35PPLII2tPVljewoRE6Zi8cFzlYeKAk4h64aVXxjrgKQMvkPJEgHR4xaljJhfyrEusA+l4soNY5xiBetb1wvp7lhfF4yi2JNZZ/65xW2VhwsJ6eo4zWdNyIMfp7fz3f/+39SNMxHOIdfoU+qpcmhB7iPWy9kys0xmQKXV4bMsGIEP6PqX2k8H4d/x3M0isxzDA8tUBOlfe3gd1Xo7jOGWgn+Hzgwgslm5ISCGiJOjYFgn0OHCczwXyVZDYQy2a7ftaIbVJWfDs4jFmTX6rgxieZwQgfa3EarNUKR/ecpbV8CUZvaBLXvAU18tHej7GH8rMBIAJRDp+FIHYZ4057cWEirFMtFIextN6XrSifHBehDgOKMoYP5WuUo+O05uJ741cYh2bBLSkxDp/a9tKII3ud7ap1m7Fpol1OhV1LGWDMsVvCknno0cIadw4cFxCXIG/lSftwx6BwmKXtHSoPMrGe8Unr6BeB+k4jlMGBBTike+Bs05ZQrxIrOuFR5afxEsQ1N+Jru6j0vM3QnHrpUmPF8WJ6ex4EdQ3nm2edOiTiTEaJ5q13Y48FlHPTtH+RufUuOc4Tn3ie0hinXeQtKSMPkIBbYhQjkN8XPccNgn8Jk68r2rAXlmt3Q8vBevnWGfI76qBSsIW6wGxq31pvDTgiZcgJ/CIUPsQ6NjgrXu27KPAeIu0Zl2edRfrjuOUoZl+gyUMCEm+esLLhIhzPqXHS33XXnut9U2doUGhnZTtAzUwpL+LaHRcx+LjRXHTOILPJbK0hhdl06Uc9dK0QpEN/d3oWCOajRPHS/8W9fbXo9X4jtMbiK/5Cy64wMQ6L8mjKQHHrgI6UvpSujL+m4DmRGMSeJKHhmWLPfRnrFmbCaSRbmUba23tS9PUC/aCqWYYuUAw8xiCCipL2vlgk6BZDmjNeizWc5bDcRynHvRxLLOg03ccx3FGHvKsb7XVViaEU+QkQT+iE9lqn/YrAFu0sf7OQexZb5V+ylBOkYu9qmI9RY8p4kLqazC8lONi3XGcriDug3J25I7jOE45JNZ51ygW6+qj64nyehAXDcs2B5wPe2UnAN36042xOJdnPS4kLz3xiUU867m+BuM4jlOPMp2s4ziO01706UZeMC3yrNN3p6ERHEdYu1hvAipJnnJs6tGFcLHuOI7jOI7Tt+lMrAP6MQ6N4LiL9SZBnEus63dcSBfrjuM4juM4fRsX6yVol1in0uJCulh3HMdxHMfp27RLrEuDVgV7LtZdrDuO4ziO4/RJ3LNeAoQ1Yr3qJ81isU7++B0XUl+DQaz712Acx3Ecx3H6HhdeeGHh12Bi0I+dBYFIRxvnFOsIdbRsfJ5maYtYp3D6D42q0KxYZzblYt1xHMdxHKfvUe/TjTES5I2CSMV6fKwM2EHHsi1jqx+J8YATELr8LfXfSpCw5je2+B+XqDAdq2eTY/UyL5uguHE8F+uO4ziO4zh9mxxiHS0qTYpmxeEsZ3YZXRwH0mMLfVzGVlv+UyQM516zjk1+k1/hYt1xHMdxHKdvk8uzTlDc2LNeFeygY2W/VXrMC6Yu1h3HcRzHcZyUnrQMpgwu1h3HcRzHcZweS3cX66R3se5i3XEcx3Ecp0/Cpxv5MmCuTzfmFuvYQceWteNi3XEcx3Ecx+mx5P7Ouov1FnCx7jiO4ziO4zTCxXoJRqZYV8U6juM4juM4vZ9eL9ZJ2F0/3RhXKPlLhbjE+oj/g6mLdcdxHMdxnL7CRRddaFqw3gum0pNxaEQq1qtSWazzj7zWuSBT+ph8FVQotkUTik8+/Sz8cZnlwhhjjh3uvPPujr2O4ziO4zhOX+H88/47jDba6CbW+U85q4LuzCnWsYfWLmvP/gdThDX/qxK/EcVlAmmVHnu//vqrzW50LN42G6gobfHUD/+fn4bvg3ff/yCstc56oV+/UcJ0084QBg1aKPTvPzAM6D8oDByw4LCwwPC/BwwoHfr3Vxg07O8FfnfcQ/cNAwcOHHZNDLsWhm379+9fGKeVkMNGVwTyOf/887elzD2lDrpj4Dpk63XYfKCu4vpK/84Z2mm7N4V21FNOe7LF/aZ7LndoRx14aDEMHGDj+6BBw3TegEFhqqmnHaYF+4U99tgz/OMf/zCNGOtJacl0XxqkZYkrp3NRvDIBW2XtmWedH7k96xLXOdAMJ83jjz/8HB548OFw+VWDw5VXXxOuv35oGDr0huHhhhvDkCE3DNs3ZFi4/ndhyJDh+6+77joL6XEF4g0ZMnTYb4XieATZJDSy6aF9QW0wvN2GhMGDB4errroq3HAD18XQSu0St2/8O1dQnouOtRJ0Tee4BpWfa6+91uzlqAOVM7XVqr3ObKR/NxMUP0fdEZQH6o/r8Hd1WBDi9Banw0a6v96xZm2m+xQana+rg/Ki/FCPhDRe2RDbjn+3EuI0um7K2urqUCafSkN/WrVPjYPs8TuHzZz20jrSdSj7rQbyoxD/XaY9FFKbuYLyk+avlfMUlakor82WfYQ8DNNnQ4bpvcHXXhcuvfzy8Oqrr4b/JFpRqzRagTRo2Nye9bJau/aCKYJdBYq3jUIR7CdDzGyYlShevG0URPqb/GH3t7gdB0tCA+RqBJHTJnZoF8qcC2zG9VqVnOUF8pZz0ghcgzwSU7mrlp/85axDyG0vN9x71GPOa7G7Q5vkvLbp9HnSmMsm+evu101uqDvqMJcTCHK2M7Zy9w+5bWJHY2kOsJfzPgHs5azD3PYAfcO4orJXtU8b5x77cpc5533C9cd1KI2T07ZI2z39nYZ4P5Ce/BW1seI1CoonsEOZCcpbfFx/1wsjiPVcUPm5PevqYPhdFqWVPUJn9jgah5Q4vS7AKnkU3Lg5XtIVulBydgjYylVewF58c+SADvWnn36qlbuKbcqpziUX5Ie85apDwJY6gxxQ5pzXIuXN2UFjJ6c96g17hKp1qPTU3y+//FK7DtlfxTZ5495TmZu1VS8e+7Gp/FUFe9jKZQ+wxf1MXUKV+gOVOWefzT2Su8w5bXK9MC7n8hiSr5xjAKhNcqA2zlF/2FL4n//5nxHu56p1md7PVVG5c9qjrFXtqf6wxTWocUX7CY3gaBxqDPvj/x9m83+5FjOVmbKSN5W5s7x1BulpE0IZWz1OrOdA9gg5GkBgTxdeVbiYqwqkOB+68HJ0WoL2yFGHgrzFN0dZ4vzgievuYr3szVsPypozj5S56rUYQ1nJY65rEXvUY9XrRmBP/U3VdlF6PHE///xzrcy2v+MYuSa0ciZdN0Vlxk6rNslP7jbBVs5rG1uIdZ7yQFW7pM81DgDlzd3H5rbJ9VJVrMd1hQ3qr6ytImhnbOaAvGIvR/1hS2VnXPnxxx/NNlS9figv7ZyzHrFVNV+C+qOsufKHHcYU6pFy58gnS1/+lzz+e1hbZyg2eYzbpGoesUMdEsrY6rNiHVvYrNoAcfpcNkEXM22TA+yRt9wDSa7ygvKom6MscX76oljXdZgLypz7WiSPVdtZUHfYymmP+svRLkqPWE8968P+KSWsoVEdyl4rNskPecvVP8hezmubsuLR1LhS1S7pda/kyCPl5R7JVYeQ2yZ1SP1hM8f9gg3qL2eZ1SY5UBvnyB+2dJ00EuutXkvEp7y52kRgq9W81ANblDVX/rAjsZ6jrSnlv/8zXKx3V896XIdlbLlYr9gAcfpcNkEXM22TA+yRt9wDSa7ygvLItgpxflysV4cy57wWgfao2s6CusNWTnvUX452Ufp6nnWOjhDY18Q5dd00KjNH/tO5KaMZe61AGShrzmsbey7Wq0H7Un+EHG2NDeovd5lztYnaOEf+sKU8Ma788MMPZhu0P47TLMSnvLRzrvsPsJXLHnZy9g/YoU/kq4G5xhXa2PqbjHmM26TVdk2J67CMLRfrFRsgTq8brqpNoEH7mljHXnxzlCXOj4v16lBmXYs584mtHPawQT1WvW4E9qi/HO2i9NRfPc+6QivouqlX5lbtdmavVSgfZc15bZO33GKdds7Vh6n/UhvnILdN6pD6w2aOtsYG9Ze7zLnaBBtcgznyhy3lqZ5nPY7TLMSnvLnaRGArlz3s5Ogf4noqEuut1l0MbZyzD8NO3CZV8gZxHZax5WK9YgPE5LRJg+YU66rDdnSquaDM2NPNUZa4/vuqWM+ZR8qc81oUucqMHeqx6nUjsKc6rJpHpS/yrOsY/7Z6Fl039cosm83aJS/kLVf/kNseUNZYrFeFPFKHufpsyso9krPMspnr2sYO9UfIYZN6687jito4R/6wpeuknlgvg+owZzsDtqrkKwZbjfqbZlF+2DKm8A5KrrYmb9jKVYfYydkmlFl1WKZd2iLWuTG6s1gH8pjTHmCPUKYhUlSHtE0OVIc5Oi1BWXNeN7rZctSfSMV6FdukpT1yXjeUOdc1I3Jf29zHiM2cbU15c5UZO5Q5d6eao12UnvrjOlS75LBLmTuz08pZdN1UzZvAHiEXtG+7xHoO1H/lLDO2cgsGjc052hkbucucs00Aeznqj7KqzrgOu7NYxw5tUiVfMdjJUY/KD3a4Dhmfc7V1rjwK7OS+96rkz/4HU25cAr9pYLathjgdb+vzyJdZk/ZRaBpFfzcbZJf0BH5jp4wtAvZ0Y8ShKG4zAXuEuA4JZfKnfMkej4gY5HUO4sS/G4U0TlzWMnkrSsc+8sk23l8mYDuHLcqNDbZAHX7//fd2jJuF86gO0zqqF5Qn4sft3Gz6RgHbBPJFqFJ+8qN6rFqXpFX59PlLOlcd5zz63WpQOavYIJC/uMyyx7aMbZWXvFWtP4LyAQzuXIf8revw//7fctcQaZW/OM9pvFaDyh3/HR9vJpA3tuQLW7G9MiGuH/LD/UxdUocaTOP4nYXh9f5bH6Ays1XeywZsKFS1RcBGbK+sTdlRm3A/U4fs4zj1GNdzKwEbqj/lsyhes4H02ENDKH9VgsouW2r3VstLfGwRgDr87rvv7G+JsNh2vRDbJK1+U2ZCur9MID31l6sOCdjRJI+/OUez+VQ8rjMC9UVdINTRieSTOGldNRPSc5HPZvPVWcAO5ZU9tlVs6zosa6MfFacG5bc6QdDfzQTBb2zRGdC4OhbHbTaoYdmqomJb8e9WAo2sCosvoLKB9NiiHrENZe2SBrBHh6A61LFWQmoXm+RPx9I4nYXULnVImdkHrdhT/DiNbj7ta8WeguzqN3UYvwjEsZTURhx0XNsc94oCaQnUI2VnX1lbCrKnPOocabx6QZBGW60tpOMSipum7ywANqu2M0F55Hd87+l4/LvZAMof9aj9reZRdpRHBibEutpZ7QPN2I7jAeljG/G22QBxHrFHG6f12GxI0xTVYRqnsyD4jT3qketRpPGbCXF9kz+C8hYfayUorexpH6RxmwnKB21RNK5AmqZRUBq21CECScdEHL+ZANijvLQNv4vitRqw1+q4ojiKr7TsU970d6tBaWkDtYPuZ2wD+3XeRiG2SRCUV2WOz6n4zYTYvuqQfMVxygbsYE/l1f74d6OgeCoX9tCI1GNc7qpB7VB0rNmgPLJVHYKOx787C3Fe+F3lPqktg1Ej5ABbmoXlgIyqQ8gFDUDAdg6URzVsWZQfyhqL9arEdZirzNji2sllL76YqxDnh86Ax5VqlzK2Y3u5r0Ns5bhuBHmlTbApyrSP0lBfiCOuRezmgLLmbGfsUN6q9gR2yR+hTN0J0io9AxOTRrVzfKwMlDXXNSN0LVbJV0w77hXqEaEJVfNJepU5B7RJOrhXBVuxzapghz6xr40rlLuqPdLLBn1ivAymTN8T54fy5upfgfLSLrmuG/Ka3s9V6pP6og65FnPdf+SH8pZpiyJ0P8telfICdqi/sveKi/WKDSCUx1w3B3YQSBqYqkL+qL+cZcZe7k4Vm1Vvtjg/OcR6TO7rEFvYzFWH2KFN4g6wjG2lYcu93J3FOlvKW9WewB75I+gcZSCt0rtYrw62cot18hjfK1WgTbhH4jauCrawmevaxl5usZ7jXonBVu5xhXJXtUd62cgp1tmilXL1r0C+cveJOe9n8tXTxHpVsEP9sVXbt0KfFOtq1Bw3sFAesVkF5Yey5vasYzNnmbGXu1PFZtWbI85PDrEe28t5HQK2clw3grzSJnEHWKZ9lIb66u6edbaUt6o9gT3yRyhTd4K0So/I1DIYiI+VgbLmqMMYXYtV8hXTjnvFxXo1sNcXxTo2q9Yh+VGeurtYp525rnUtVoU8pvez8l8G6quvetbZlrHlYr1iAwjlserNofxQVhfr5SA/ypOL9RHz3yxKQ325WC8HaZW+r4h1pWXL9ZKzfyB/LtargT0X6+UgP8pTdxfr5IvrWtdiDshffK9UaR/qy8V6K4Tw/wDmfeLxgrAtJgAAAABJRU5ErkJggg==;" vertex="1" parent="WIyWlLk6GJQsqaUBKTNV-1">
          <mxGeometry x="15.540000000000013" y="65.97" width="228.92" height="144.03" as="geometry" />
        </mxCell>
        <mxCell id="hfr1dAZ7PhntGpoKkZmB-42" style="edgeStyle=orthogonalEdgeStyle;rounded=0;orthogonalLoop=1;jettySize=auto;html=1;exitX=1;exitY=0.5;exitDx=0;exitDy=0;entryX=0;entryY=0.5;entryDx=0;entryDy=0;endArrow=block;endFill=0;endSize=16;" edge="1" parent="WIyWlLk6GJQsqaUBKTNV-1" source="hfr1dAZ7PhntGpoKkZmB-40" target="zkfFHV4jXpPFQw0GAbJ--0">
          <mxGeometry relative="1" as="geometry" />
        </mxCell>
        <mxCell id="hfr1dAZ7PhntGpoKkZmB-40" value="Member" style="swimlane;fontStyle=0;align=center;verticalAlign=top;childLayout=stackLayout;horizontal=1;startSize=26;horizontalStack=0;resizeParent=1;resizeLast=0;collapsible=1;marginBottom=0;rounded=0;shadow=0;strokeWidth=1;" vertex="1" parent="WIyWlLk6GJQsqaUBKTNV-1">
          <mxGeometry x="489" y="88" width="100" height="34" as="geometry">
            <mxRectangle x="230" y="140" width="160" height="26" as="alternateBounds" />
          </mxGeometry>
        </mxCell>
        <mxCell id="hfr1dAZ7PhntGpoKkZmB-41" value="" style="line;html=1;strokeWidth=1;align=left;verticalAlign=middle;spacingTop=-1;spacingLeft=3;spacingRight=3;rotatable=0;labelPosition=right;points=[];portConstraint=eastwest;" vertex="1" parent="hfr1dAZ7PhntGpoKkZmB-40">
          <mxGeometry y="26" width="100" height="8" as="geometry" />
        </mxCell>
        <mxCell id="hfr1dAZ7PhntGpoKkZmB-56" style="edgeStyle=orthogonalEdgeStyle;rounded=0;orthogonalLoop=1;jettySize=auto;html=1;exitX=1;exitY=0.25;exitDx=0;exitDy=0;entryX=0.5;entryY=1;entryDx=0;entryDy=0;" edge="1" parent="WIyWlLk6GJQsqaUBKTNV-1" source="hfr1dAZ7PhntGpoKkZmB-48" target="hfr1dAZ7PhntGpoKkZmB-40">
          <mxGeometry relative="1" as="geometry">
            <Array as="points">
              <mxPoint x="539" y="209" />
            </Array>
          </mxGeometry>
        </mxCell>
        <mxCell id="hfr1dAZ7PhntGpoKkZmB-87" style="edgeStyle=orthogonalEdgeStyle;rounded=0;orthogonalLoop=1;jettySize=auto;html=1;entryX=0.5;entryY=0;entryDx=0;entryDy=0;endArrow=classicThin;endFill=1;exitX=1;exitY=0.5;exitDx=0;exitDy=0;" edge="1" parent="WIyWlLk6GJQsqaUBKTNV-1" source="hfr1dAZ7PhntGpoKkZmB-48" target="hfr1dAZ7PhntGpoKkZmB-62">
          <mxGeometry relative="1" as="geometry">
            <mxPoint x="289" y="280" as="sourcePoint" />
            <Array as="points">
              <mxPoint x="539" y="217" />
            </Array>
          </mxGeometry>
        </mxCell>
        <mxCell id="5iPSP7Z7Nrs9Xm5JaROF-12" style="edgeStyle=orthogonalEdgeStyle;rounded=0;orthogonalLoop=1;jettySize=auto;html=1;exitX=0.5;exitY=0;exitDx=0;exitDy=0;entryX=0.5;entryY=1;entryDx=0;entryDy=0;" edge="1" parent="WIyWlLk6GJQsqaUBKTNV-1" source="hfr1dAZ7PhntGpoKkZmB-48" target="5iPSP7Z7Nrs9Xm5JaROF-10">
          <mxGeometry relative="1" as="geometry" />
        </mxCell>
        <mxCell id="hfr1dAZ7PhntGpoKkZmB-48" value="BOARD" style="swimlane;fontStyle=1;align=center;verticalAlign=top;childLayout=stackLayout;horizontal=1;startSize=26;horizontalStack=0;resizeParent=1;resizeLast=0;collapsible=1;marginBottom=0;rounded=0;shadow=0;strokeWidth=1;" vertex="1" parent="WIyWlLk6GJQsqaUBKTNV-1">
          <mxGeometry x="280" y="200" width="120" height="34" as="geometry">
            <mxRectangle x="230" y="140" width="160" height="26" as="alternateBounds" />
          </mxGeometry>
        </mxCell>
        <mxCell id="hfr1dAZ7PhntGpoKkZmB-49" value="" style="line;html=1;strokeWidth=1;align=left;verticalAlign=middle;spacingTop=-1;spacingLeft=3;spacingRight=3;rotatable=0;labelPosition=right;points=[];portConstraint=eastwest;" vertex="1" parent="hfr1dAZ7PhntGpoKkZmB-48">
          <mxGeometry y="26" width="120" height="8" as="geometry" />
        </mxCell>
        <mxCell id="hfr1dAZ7PhntGpoKkZmB-62" value="Schedule" style="swimlane;fontStyle=0;align=center;verticalAlign=top;childLayout=stackLayout;horizontal=1;startSize=26;horizontalStack=0;resizeParent=1;resizeLast=0;collapsible=1;marginBottom=0;rounded=0;shadow=0;strokeWidth=1;" vertex="1" parent="WIyWlLk6GJQsqaUBKTNV-1">
          <mxGeometry x="479" y="290" width="120" height="34" as="geometry">
            <mxRectangle x="230" y="140" width="160" height="26" as="alternateBounds" />
          </mxGeometry>
        </mxCell>
        <mxCell id="hfr1dAZ7PhntGpoKkZmB-63" value="" style="line;html=1;strokeWidth=1;align=left;verticalAlign=middle;spacingTop=-1;spacingLeft=3;spacingRight=3;rotatable=0;labelPosition=right;points=[];portConstraint=eastwest;" vertex="1" parent="hfr1dAZ7PhntGpoKkZmB-62">
          <mxGeometry y="26" width="120" height="8" as="geometry" />
        </mxCell>
        <mxCell id="hfr1dAZ7PhntGpoKkZmB-64" value="Class Diagram" style="text;html=1;align=center;verticalAlign=middle;resizable=0;points=[];autosize=1;strokeColor=none;fillColor=none;fontSize=24;" vertex="1" parent="WIyWlLk6GJQsqaUBKTNV-1">
          <mxGeometry x="40" y="20" width="180" height="40" as="geometry" />
        </mxCell>
        <mxCell id="5iPSP7Z7Nrs9Xm5JaROF-16" style="edgeStyle=orthogonalEdgeStyle;rounded=0;orthogonalLoop=1;jettySize=auto;html=1;exitX=1;exitY=0.5;exitDx=0;exitDy=0;entryX=0;entryY=0.5;entryDx=0;entryDy=0;endArrow=diamondThin;endFill=0;endSize=16;" edge="1" parent="WIyWlLk6GJQsqaUBKTNV-1" source="hfr1dAZ7PhntGpoKkZmB-75" target="hfr1dAZ7PhntGpoKkZmB-62">
          <mxGeometry relative="1" as="geometry" />
        </mxCell>
        <mxCell id="5iPSP7Z7Nrs9Xm5JaROF-22" style="edgeStyle=orthogonalEdgeStyle;rounded=0;orthogonalLoop=1;jettySize=auto;html=1;exitX=0.5;exitY=0;exitDx=0;exitDy=0;entryX=0.5;entryY=1;entryDx=0;entryDy=0;endArrow=diamondThin;endFill=0;endSize=16;" edge="1" parent="WIyWlLk6GJQsqaUBKTNV-1" source="hfr1dAZ7PhntGpoKkZmB-75" target="hfr1dAZ7PhntGpoKkZmB-48">
          <mxGeometry relative="1" as="geometry" />
        </mxCell>
        <mxCell id="hfr1dAZ7PhntGpoKkZmB-75" value="&lt;&lt;Interface&gt;&gt;&#xa;INotifier" style="swimlane;fontStyle=0;align=center;verticalAlign=top;childLayout=stackLayout;horizontal=1;startSize=34;horizontalStack=0;resizeParent=1;resizeLast=0;collapsible=1;marginBottom=0;rounded=0;shadow=0;strokeWidth=1;" vertex="1" parent="WIyWlLk6GJQsqaUBKTNV-1">
          <mxGeometry x="280" y="290" width="120" height="40" as="geometry">
            <mxRectangle x="230" y="140" width="160" height="26" as="alternateBounds" />
          </mxGeometry>
        </mxCell>
        <mxCell id="hfr1dAZ7PhntGpoKkZmB-76" value="" style="line;html=1;strokeWidth=1;align=left;verticalAlign=middle;spacingTop=-1;spacingLeft=3;spacingRight=3;rotatable=0;labelPosition=right;points=[];portConstraint=eastwest;" vertex="1" parent="hfr1dAZ7PhntGpoKkZmB-75">
          <mxGeometry y="34" width="120" height="6" as="geometry" />
        </mxCell>
        <mxCell id="hfr1dAZ7PhntGpoKkZmB-79" value="EmailNotifier" style="swimlane;fontStyle=0;align=center;verticalAlign=top;childLayout=stackLayout;horizontal=1;startSize=26;horizontalStack=0;resizeParent=1;resizeLast=0;collapsible=1;marginBottom=0;rounded=0;shadow=0;strokeWidth=1;" vertex="1" parent="WIyWlLk6GJQsqaUBKTNV-1">
          <mxGeometry x="291" y="400" width="97" height="34" as="geometry">
            <mxRectangle x="230" y="140" width="160" height="26" as="alternateBounds" />
          </mxGeometry>
        </mxCell>
        <mxCell id="hfr1dAZ7PhntGpoKkZmB-80" value="" style="line;html=1;strokeWidth=1;align=left;verticalAlign=middle;spacingTop=-1;spacingLeft=3;spacingRight=3;rotatable=0;labelPosition=right;points=[];portConstraint=eastwest;" vertex="1" parent="hfr1dAZ7PhntGpoKkZmB-79">
          <mxGeometry y="26" width="97" height="4" as="geometry" />
        </mxCell>
        <mxCell id="hfr1dAZ7PhntGpoKkZmB-89" value="PINCARD" style="shape=rect;html=1;verticalAlign=top;fontStyle=1;whiteSpace=wrap;align=center;" vertex="1" parent="WIyWlLk6GJQsqaUBKTNV-1">
          <mxGeometry x="260" y="-1010" width="810" height="710" as="geometry" />
        </mxCell>
        <mxCell id="5iPSP7Z7Nrs9Xm5JaROF-0" style="edgeStyle=orthogonalEdgeStyle;rounded=0;orthogonalLoop=1;jettySize=auto;html=1;exitX=1;exitY=0.5;exitDx=0;exitDy=0;entryX=0.5;entryY=0;entryDx=0;entryDy=0;endArrow=none;endFill=0;dashed=1;" edge="1" parent="WIyWlLk6GJQsqaUBKTNV-1" source="hfr1dAZ7PhntGpoKkZmB-94" target="hfr1dAZ7PhntGpoKkZmB-108">
          <mxGeometry relative="1" as="geometry" />
        </mxCell>
        <mxCell id="5iPSP7Z7Nrs9Xm5JaROF-1" value="&amp;lt;&amp;lt;Extend&amp;gt;&amp;gt;" style="edgeLabel;html=1;align=center;verticalAlign=middle;resizable=0;points=[];" connectable="0" vertex="1" parent="5iPSP7Z7Nrs9Xm5JaROF-0">
          <mxGeometry x="-0.1564" relative="1" as="geometry">
            <mxPoint as="offset" />
          </mxGeometry>
        </mxCell>
        <mxCell id="hfr1dAZ7PhntGpoKkZmB-94" value="Create" style="ellipse;whiteSpace=wrap;html=1;" vertex="1" parent="WIyWlLk6GJQsqaUBKTNV-1">
          <mxGeometry x="360" y="-950" width="140" height="80" as="geometry" />
        </mxCell>
        <mxCell id="hfr1dAZ7PhntGpoKkZmB-95" value="User" style="shape=umlActor;html=1;verticalLabelPosition=bottom;verticalAlign=top;align=center;" vertex="1" parent="WIyWlLk6GJQsqaUBKTNV-1">
          <mxGeometry x="40.00000000000001" y="-770" width="50" height="90" as="geometry" />
        </mxCell>
        <mxCell id="hfr1dAZ7PhntGpoKkZmB-96" value="Owner" style="shape=umlActor;html=1;verticalLabelPosition=bottom;verticalAlign=top;align=center;" vertex="1" parent="WIyWlLk6GJQsqaUBKTNV-1">
          <mxGeometry x="1170" y="-870" width="50" height="90" as="geometry" />
        </mxCell>
        <mxCell id="hfr1dAZ7PhntGpoKkZmB-106" value="Accept" style="ellipse;whiteSpace=wrap;html=1;" vertex="1" parent="WIyWlLk6GJQsqaUBKTNV-1">
          <mxGeometry x="360" y="-830" width="140" height="70" as="geometry" />
        </mxCell>
        <mxCell id="hfr1dAZ7PhntGpoKkZmB-107" value="Reject" style="ellipse;whiteSpace=wrap;html=1;" vertex="1" parent="WIyWlLk6GJQsqaUBKTNV-1">
          <mxGeometry x="365" y="-730" width="140" height="70" as="geometry" />
        </mxCell>
        <mxCell id="hfr1dAZ7PhntGpoKkZmB-108" value="BOARD" style="ellipse;whiteSpace=wrap;html=1;" vertex="1" parent="WIyWlLk6GJQsqaUBKTNV-1">
          <mxGeometry x="580" y="-850" width="140" height="70" as="geometry" />
        </mxCell>
        <mxCell id="hfr1dAZ7PhntGpoKkZmB-110" value="" style="edgeStyle=none;html=1;endArrow=none;verticalAlign=bottom;rounded=0;" edge="1" parent="WIyWlLk6GJQsqaUBKTNV-1">
          <mxGeometry width="160" relative="1" as="geometry">
            <mxPoint x="120" y="-705.71" as="sourcePoint" />
            <mxPoint x="200" y="-705.71" as="targetPoint" />
          </mxGeometry>
        </mxCell>
        <mxCell id="hfr1dAZ7PhntGpoKkZmB-111" value="" style="edgeStyle=none;html=1;endArrow=none;verticalAlign=bottom;rounded=0;" edge="1" parent="WIyWlLk6GJQsqaUBKTNV-1">
          <mxGeometry width="160" relative="1" as="geometry">
            <mxPoint x="200" y="-910" as="sourcePoint" />
            <mxPoint x="200" y="-480" as="targetPoint" />
          </mxGeometry>
        </mxCell>
        <mxCell id="hfr1dAZ7PhntGpoKkZmB-112" value="" style="edgeStyle=none;html=1;endArrow=none;verticalAlign=bottom;rounded=0;" edge="1" parent="WIyWlLk6GJQsqaUBKTNV-1">
          <mxGeometry width="160" relative="1" as="geometry">
            <mxPoint x="200" y="-910" as="sourcePoint" />
            <mxPoint x="350" y="-910" as="targetPoint" />
          </mxGeometry>
        </mxCell>
        <mxCell id="hfr1dAZ7PhntGpoKkZmB-118" value="" style="edgeStyle=none;html=1;endArrow=none;verticalAlign=bottom;rounded=0;entryX=0;entryY=0.5;entryDx=0;entryDy=0;" edge="1" parent="WIyWlLk6GJQsqaUBKTNV-1" target="hfr1dAZ7PhntGpoKkZmB-106">
          <mxGeometry width="160" relative="1" as="geometry">
            <mxPoint x="200" y="-795" as="sourcePoint" />
            <mxPoint x="360" y="-755.4200000000001" as="targetPoint" />
          </mxGeometry>
        </mxCell>
        <mxCell id="hfr1dAZ7PhntGpoKkZmB-138" value="&amp;lt;&amp;lt;System&amp;gt;&amp;gt;&lt;div&gt;Notification&lt;/div&gt;" style="shape=umlActor;html=1;verticalLabelPosition=bottom;verticalAlign=top;align=center;" vertex="1" parent="WIyWlLk6GJQsqaUBKTNV-1">
          <mxGeometry x="1190" y="-420" width="30" height="70" as="geometry" />
        </mxCell>
        <mxCell id="hfr1dAZ7PhntGpoKkZmB-139" value="" style="edgeStyle=none;html=1;endArrow=none;verticalAlign=bottom;rounded=0;exitX=0.5;exitY=1;exitDx=0;exitDy=0;entryX=0.5;entryY=0.5;entryDx=0;entryDy=0;entryPerimeter=0;" edge="1" parent="WIyWlLk6GJQsqaUBKTNV-1" source="hfr1dAZ7PhntGpoKkZmB-137" target="hfr1dAZ7PhntGpoKkZmB-138">
          <mxGeometry width="160" relative="1" as="geometry">
            <mxPoint x="660" y="-460" as="sourcePoint" />
            <mxPoint x="1180" y="-450" as="targetPoint" />
            <Array as="points">
              <mxPoint x="300" y="-390" />
              <mxPoint x="425" y="-390" />
              <mxPoint x="1110" y="-390" />
            </Array>
          </mxGeometry>
        </mxCell>
        <mxCell id="1CrdBLcqtOvvU1FPe3sJ-8" value="Task" style="ellipse;whiteSpace=wrap;html=1;" vertex="1" parent="WIyWlLk6GJQsqaUBKTNV-1">
          <mxGeometry x="920" y="-850" width="140" height="70" as="geometry" />
        </mxCell>
        <mxCell id="1CrdBLcqtOvvU1FPe3sJ-12" style="edgeStyle=orthogonalEdgeStyle;rounded=0;orthogonalLoop=1;jettySize=auto;html=1;exitX=1;exitY=0.5;exitDx=0;exitDy=0;entryX=0.448;entryY=0.6;entryDx=0;entryDy=0;entryPerimeter=0;endArrow=none;endFill=0;" edge="1" parent="WIyWlLk6GJQsqaUBKTNV-1" source="1CrdBLcqtOvvU1FPe3sJ-8" target="hfr1dAZ7PhntGpoKkZmB-96">
          <mxGeometry relative="1" as="geometry" />
        </mxCell>
        <mxCell id="1CrdBLcqtOvvU1FPe3sJ-21" value="&amp;lt;&amp;lt;extend&amp;gt;&amp;gt;" style="edgeStyle=none;html=1;endArrow=open;verticalAlign=bottom;dashed=1;labelBackgroundColor=none;rounded=0;entryX=0;entryY=1;entryDx=0;entryDy=0;exitX=1;exitY=0;exitDx=0;exitDy=0;" edge="1" parent="WIyWlLk6GJQsqaUBKTNV-1" source="hfr1dAZ7PhntGpoKkZmB-107" target="hfr1dAZ7PhntGpoKkZmB-108">
          <mxGeometry x="0.005" y="-1" width="160" relative="1" as="geometry">
            <mxPoint x="449.5" y="-679" as="sourcePoint" />
            <mxPoint x="660.5" y="-830" as="targetPoint" />
            <Array as="points" />
            <mxPoint as="offset" />
          </mxGeometry>
        </mxCell>
        <mxCell id="1CrdBLcqtOvvU1FPe3sJ-22" value="&amp;lt;&amp;lt;extend&amp;gt;&amp;gt;" style="edgeStyle=none;html=1;endArrow=open;verticalAlign=bottom;dashed=1;labelBackgroundColor=none;rounded=0;exitX=1;exitY=0.5;exitDx=0;exitDy=0;entryX=0.027;entryY=0.647;entryDx=0;entryDy=0;entryPerimeter=0;" edge="1" parent="WIyWlLk6GJQsqaUBKTNV-1" source="hfr1dAZ7PhntGpoKkZmB-106" target="hfr1dAZ7PhntGpoKkZmB-108">
          <mxGeometry x="0.005" y="-1" width="160" relative="1" as="geometry">
            <mxPoint x="420" y="-709" as="sourcePoint" />
            <mxPoint x="630" y="-810" as="targetPoint" />
            <Array as="points" />
            <mxPoint as="offset" />
          </mxGeometry>
        </mxCell>
        <mxCell id="1CrdBLcqtOvvU1FPe3sJ-23" value="&amp;lt;&amp;lt;include&amp;gt;&amp;gt;" style="edgeStyle=none;html=1;endArrow=open;verticalAlign=bottom;dashed=1;labelBackgroundColor=none;rounded=0;entryX=0;entryY=0.5;entryDx=0;entryDy=0;" edge="1" parent="WIyWlLk6GJQsqaUBKTNV-1" source="hfr1dAZ7PhntGpoKkZmB-108" target="1CrdBLcqtOvvU1FPe3sJ-8">
          <mxGeometry x="0.005" y="-1" width="160" relative="1" as="geometry">
            <mxPoint x="839" y="-851" as="sourcePoint" />
            <mxPoint x="700" y="-930" as="targetPoint" />
            <Array as="points" />
            <mxPoint as="offset" />
          </mxGeometry>
        </mxCell>
        <mxCell id="1CrdBLcqtOvvU1FPe3sJ-25" value="Condition: Must be a member. Limit create 5 boards" style="shape=note;size=15;spacingLeft=5;align=left;whiteSpace=wrap;" vertex="1" parent="WIyWlLk6GJQsqaUBKTNV-1">
          <mxGeometry x="500" y="-980" width="230" height="40" as="geometry" />
        </mxCell>
        <mxCell id="1CrdBLcqtOvvU1FPe3sJ-27" value="" style="edgeStyle=none;html=1;endArrow=none;rounded=0;labelBackgroundColor=none;dashed=1;exitX=0.5;exitY=1;exitDx=0;exitDy=0;exitPerimeter=0;" edge="1" parent="WIyWlLk6GJQsqaUBKTNV-1" source="1CrdBLcqtOvvU1FPe3sJ-25">
          <mxGeometry relative="1" as="geometry">
            <mxPoint x="540" y="-910" as="targetPoint" />
          </mxGeometry>
        </mxCell>
        <mxCell id="gJPcnmt5-Wf3Ulk2e-ia-0" value="" style="edgeStyle=none;html=1;endArrow=none;verticalAlign=bottom;rounded=0;entryX=0;entryY=0.5;entryDx=0;entryDy=0;" edge="1" parent="WIyWlLk6GJQsqaUBKTNV-1" source="hfr1dAZ7PhntGpoKkZmB-137">
          <mxGeometry width="160" relative="1" as="geometry">
            <mxPoint x="200" y="-485.09000000000003" as="sourcePoint" />
            <mxPoint x="355" y="-485.09000000000003" as="targetPoint" />
          </mxGeometry>
        </mxCell>
        <mxCell id="gJPcnmt5-Wf3Ulk2e-ia-4" value="&lt;span style=&quot;color: rgb(31, 35, 40); font-family: -apple-system, BlinkMacSystemFont, &amp;quot;Segoe UI&amp;quot;, &amp;quot;Noto Sans&amp;quot;, Helvetica, Arial, sans-serif, &amp;quot;Apple Color Emoji&amp;quot;, &amp;quot;Segoe UI Emoji&amp;quot;; font-size: 16px; text-align: start; background-color: rgb(255, 255, 255);&quot;&gt;Add/Remove Tasks&lt;/span&gt;" style="ellipse;whiteSpace=wrap;html=1;" vertex="1" parent="WIyWlLk6GJQsqaUBKTNV-1">
          <mxGeometry x="920" y="-680" width="140" height="70" as="geometry" />
        </mxCell>
        <mxCell id="gJPcnmt5-Wf3Ulk2e-ia-5" value="&amp;lt;&amp;lt;include&amp;gt;&amp;gt;" style="edgeStyle=none;html=1;endArrow=open;verticalAlign=bottom;dashed=1;labelBackgroundColor=none;rounded=0;entryX=0.5;entryY=0;entryDx=0;entryDy=0;" edge="1" parent="WIyWlLk6GJQsqaUBKTNV-1" source="1CrdBLcqtOvvU1FPe3sJ-8" target="gJPcnmt5-Wf3Ulk2e-ia-4">
          <mxGeometry x="0.005" y="-1" width="160" relative="1" as="geometry">
            <mxPoint x="743" y="-730" as="sourcePoint" />
            <mxPoint x="953" y="-730" as="targetPoint" />
            <Array as="points" />
            <mxPoint as="offset" />
          </mxGeometry>
        </mxCell>
        <mxCell id="gJPcnmt5-Wf3Ulk2e-ia-6" value="&amp;lt;&amp;lt;extend&amp;gt;&amp;gt;" style="edgeStyle=none;html=1;endArrow=open;verticalAlign=bottom;dashed=1;labelBackgroundColor=none;rounded=0;" edge="1" parent="WIyWlLk6GJQsqaUBKTNV-1" source="gJPcnmt5-Wf3Ulk2e-ia-4" target="hfr1dAZ7PhntGpoKkZmB-108">
          <mxGeometry x="0.005" y="-1" width="160" relative="1" as="geometry">
            <mxPoint x="772.05" y="-659.54" as="sourcePoint" />
            <mxPoint x="887.05" y="-729.54" as="targetPoint" />
            <Array as="points" />
            <mxPoint as="offset" />
          </mxGeometry>
        </mxCell>
        <mxCell id="gJPcnmt5-Wf3Ulk2e-ia-7" value="Scheduler" style="ellipse;whiteSpace=wrap;html=1;" vertex="1" parent="WIyWlLk6GJQsqaUBKTNV-1">
          <mxGeometry x="920" y="-990" width="140" height="70" as="geometry" />
        </mxCell>
        <mxCell id="gJPcnmt5-Wf3Ulk2e-ia-8" value="&amp;lt;&amp;lt;include&amp;gt;&amp;gt;" style="edgeStyle=none;html=1;endArrow=open;verticalAlign=bottom;dashed=1;labelBackgroundColor=none;rounded=0;entryX=0.5;entryY=1;entryDx=0;entryDy=0;exitX=0.5;exitY=0;exitDx=0;exitDy=0;" edge="1" parent="WIyWlLk6GJQsqaUBKTNV-1" source="1CrdBLcqtOvvU1FPe3sJ-8" target="gJPcnmt5-Wf3Ulk2e-ia-7">
          <mxGeometry x="0.005" y="-1" width="160" relative="1" as="geometry">
            <mxPoint x="907.53" y="-851" as="sourcePoint" />
            <mxPoint x="804.53" y="-910" as="targetPoint" />
            <Array as="points" />
            <mxPoint as="offset" />
          </mxGeometry>
        </mxCell>
        <mxCell id="gJPcnmt5-Wf3Ulk2e-ia-9" value="&amp;lt;&amp;lt;extend&amp;gt;&amp;gt;" style="edgeStyle=none;html=1;endArrow=open;verticalAlign=bottom;dashed=1;labelBackgroundColor=none;rounded=0;exitX=0;exitY=0.5;exitDx=0;exitDy=0;" edge="1" parent="WIyWlLk6GJQsqaUBKTNV-1" source="gJPcnmt5-Wf3Ulk2e-ia-7" target="hfr1dAZ7PhntGpoKkZmB-108">
          <mxGeometry x="0.005" y="-1" width="160" relative="1" as="geometry">
            <mxPoint x="913" y="-868" as="sourcePoint" />
            <mxPoint x="663" y="-990" as="targetPoint" />
            <Array as="points" />
            <mxPoint as="offset" />
          </mxGeometry>
        </mxCell>
        <mxCell id="5iPSP7Z7Nrs9Xm5JaROF-2" value="" style="edgeStyle=none;html=1;endArrow=none;verticalAlign=bottom;rounded=0;entryX=0;entryY=0.5;entryDx=0;entryDy=0;" edge="1" parent="WIyWlLk6GJQsqaUBKTNV-1" target="hfr1dAZ7PhntGpoKkZmB-137">
          <mxGeometry width="160" relative="1" as="geometry">
            <mxPoint x="200" y="-485.09000000000003" as="sourcePoint" />
            <mxPoint x="355" y="-485.09000000000003" as="targetPoint" />
          </mxGeometry>
        </mxCell>
        <mxCell id="hfr1dAZ7PhntGpoKkZmB-137" value="Notify Email" style="ellipse;whiteSpace=wrap;html=1;" vertex="1" parent="WIyWlLk6GJQsqaUBKTNV-1">
          <mxGeometry x="230" y="-520" width="140" height="70" as="geometry" />
        </mxCell>
        <mxCell id="5iPSP7Z7Nrs9Xm5JaROF-5" value="&amp;lt;&amp;lt;extend&amp;gt;&amp;gt;" style="edgeStyle=none;html=1;endArrow=open;verticalAlign=bottom;dashed=1;labelBackgroundColor=none;rounded=0;entryX=0;entryY=1;entryDx=0;entryDy=0;" edge="1" parent="WIyWlLk6GJQsqaUBKTNV-1" source="hfr1dAZ7PhntGpoKkZmB-137" target="hfr1dAZ7PhntGpoKkZmB-94">
          <mxGeometry x="0.005" y="-1" width="160" relative="1" as="geometry">
            <mxPoint x="259.75" y="-528.28" as="sourcePoint" />
            <mxPoint x="340.2525253169415" y="-889.9957287525378" as="targetPoint" />
            <Array as="points">
              <mxPoint x="300" y="-882" />
            </Array>
            <mxPoint as="offset" />
          </mxGeometry>
        </mxCell>
        <mxCell id="5iPSP7Z7Nrs9Xm5JaROF-7" value="&amp;lt;&amp;lt;extend&amp;gt;&amp;gt;" style="edgeStyle=none;html=1;endArrow=open;verticalAlign=bottom;dashed=1;labelBackgroundColor=none;rounded=0;exitX=0.5;exitY=0;exitDx=0;exitDy=0;" edge="1" parent="WIyWlLk6GJQsqaUBKTNV-1" source="hfr1dAZ7PhntGpoKkZmB-137">
          <mxGeometry x="0.005" y="-1" width="160" relative="1" as="geometry">
            <mxPoint x="310" y="-510" as="sourcePoint" />
            <mxPoint x="370" y="-780" as="targetPoint" />
            <Array as="points">
              <mxPoint x="300" y="-770" />
            </Array>
            <mxPoint as="offset" />
          </mxGeometry>
        </mxCell>
        <mxCell id="5iPSP7Z7Nrs9Xm5JaROF-8" value="&amp;lt;&amp;lt;extend&amp;gt;&amp;gt;" style="edgeStyle=none;html=1;endArrow=open;verticalAlign=bottom;dashed=1;labelBackgroundColor=none;rounded=0;exitX=0.5;exitY=0;exitDx=0;exitDy=0;entryX=0;entryY=0.5;entryDx=0;entryDy=0;" edge="1" parent="WIyWlLk6GJQsqaUBKTNV-1" source="hfr1dAZ7PhntGpoKkZmB-137" target="hfr1dAZ7PhntGpoKkZmB-107">
          <mxGeometry x="0.005" y="-1" width="160" relative="1" as="geometry">
            <mxPoint x="310" y="-510" as="sourcePoint" />
            <mxPoint x="380" y="-770" as="targetPoint" />
            <Array as="points">
              <mxPoint x="300" y="-700" />
            </Array>
            <mxPoint as="offset" />
          </mxGeometry>
        </mxCell>
        <mxCell id="5iPSP7Z7Nrs9Xm5JaROF-9" value="&amp;lt;&amp;lt;extend&amp;gt;&amp;gt;" style="edgeStyle=none;html=1;endArrow=open;verticalAlign=bottom;dashed=1;labelBackgroundColor=none;rounded=0;exitX=0.971;exitY=0.289;exitDx=0;exitDy=0;exitPerimeter=0;" edge="1" parent="WIyWlLk6GJQsqaUBKTNV-1" source="hfr1dAZ7PhntGpoKkZmB-137" target="gJPcnmt5-Wf3Ulk2e-ia-4">
          <mxGeometry x="0.005" y="-1" width="160" relative="1" as="geometry">
            <mxPoint x="550" y="-540" as="sourcePoint" />
            <mxPoint x="667" y="-610" as="targetPoint" />
            <Array as="points" />
            <mxPoint as="offset" />
          </mxGeometry>
        </mxCell>
        <mxCell id="5iPSP7Z7Nrs9Xm5JaROF-10" value="Task" style="swimlane;fontStyle=0;align=center;verticalAlign=top;childLayout=stackLayout;horizontal=1;startSize=26;horizontalStack=0;resizeParent=1;resizeLast=0;collapsible=1;marginBottom=0;rounded=0;shadow=0;strokeWidth=1;" vertex="1" parent="WIyWlLk6GJQsqaUBKTNV-1">
          <mxGeometry x="289.52" y="88" width="100" height="34" as="geometry">
            <mxRectangle x="230" y="140" width="160" height="26" as="alternateBounds" />
          </mxGeometry>
        </mxCell>
        <mxCell id="5iPSP7Z7Nrs9Xm5JaROF-11" value="" style="line;html=1;strokeWidth=1;align=left;verticalAlign=middle;spacingTop=-1;spacingLeft=3;spacingRight=3;rotatable=0;labelPosition=right;points=[];portConstraint=eastwest;" vertex="1" parent="5iPSP7Z7Nrs9Xm5JaROF-10">
          <mxGeometry y="26" width="100" height="8" as="geometry" />
        </mxCell>
        <mxCell id="5iPSP7Z7Nrs9Xm5JaROF-13" value="" style="endArrow=block;endSize=16;endFill=0;shadow=0;strokeWidth=1;rounded=0;curved=0;edgeStyle=elbowEdgeStyle;elbow=vertical;dashed=1;" edge="1" parent="WIyWlLk6GJQsqaUBKTNV-1" source="hfr1dAZ7PhntGpoKkZmB-79" target="hfr1dAZ7PhntGpoKkZmB-75">
          <mxGeometry width="160" relative="1" as="geometry">
            <mxPoint x="341" y="510" as="sourcePoint" />
            <mxPoint x="340.5" y="420" as="targetPoint" />
            <Array as="points" />
          </mxGeometry>
        </mxCell>
      </root>
    </mxGraphModel>
  </diagram>
</mxfile>
